<?xml version="1.0" standalone="no"?>
<!DOCTYPE svg PUBLIC "-//W3C//DTD SVG 1.1//EN" "http://www.w3.org/Graphics/SVG/1.1/DTD/svg11.dtd" >
<svg>
<metadata>
Created by FontForge 20110222 at Fri Sep  5 05:56:23 2014
 By Orthosie Webhosting
Copyright (c) 1988, 1993, 1990, 1996 Adobe Systems Incorporated.  All Rights Reserved.Helvetica is a trademark of Linotype-Hell AG and/or its subsidiaries.
</metadata>
<defs>
<font id="HelveticaCE35ThinRegular" horiz-adv-x="519" >
  <font-face 
    font-family="HelveticaCE35ThinRegular"
    font-weight="100"
    font-stretch="normal"
    units-per-em="1000"
    panose-1="2 0 3 3 4 0 0 2 0 4"
    ascent="800"
    descent="-200"
    x-height="514"
    cap-height="714"
    bbox="-169 -262 1041 935"
    underline-thickness="50"
    underline-position="-75"
    unicode-range="U+0020-FB02"
  />
<missing-glyph horiz-adv-x="278" 
 />
    <glyph glyph-name=".notdef" horiz-adv-x="278" 
 />
    <glyph glyph-name=".null" horiz-adv-x="0" 
 />
    <glyph glyph-name="nonmarkingreturn" horiz-adv-x="333" 
 />
    <glyph glyph-name="space" unicode=" " horiz-adv-x="278" 
 />
    <glyph glyph-name="space" unicode="&#xa0;" horiz-adv-x="278" 
 />
    <glyph glyph-name="exclam" unicode="!" horiz-adv-x="259" 
d="M106 714v-241l12 -290h24l12 290v241h-48zM155 0v103h-51v-103h51z" />
    <glyph glyph-name="quotedbl" unicode="&#x22;" horiz-adv-x="315" 
d="M80 485h38v229h-38v-229zM197 485h38v229h-38v-229z" />
    <glyph glyph-name="numbersign" unicode="#" horiz-adv-x="556" 
d="M414 690l-31 -220h-169l31 220h-33l-31 -220h-123v-33h118l-24 -173h-122v-33h117l-32 -231h33l32 231h169l-32 -231h33l32 231h116v33h-111l24 173h115v33h-110l31 220h-33zM209 437h169l-24 -173h-169z" />
    <glyph glyph-name="dollar" unicode="$" horiz-adv-x="556" 
d="M290 347l61 -15q78 -20 114 -56t36 -93q0 -43 -17 -74t-46 -50.5t-67 -28.5t-81 -9v326zM258 393l-41 9q-30 7 -56.5 16t-46 25t-31 39.5t-11.5 58.5q0 31 10 58t32.5 47t57.5 32.5t86 14.5v-300zM258 -105h32v88q46 1 91 11.5t80 34t56.5 61.5t21.5 93q0 31 -8 58.5
t-28 51t-53 42t-82 30.5l-78 19v310q86 -2 137 -43.5t57 -139.5h38q-2 57 -19 98t-47 68t-72 40t-94 14v49h-32v-49q-53 -2 -90 -13.5t-62 -29t-39.5 -38.5t-21.5 -41.5t-9 -38.5t-2 -29q0 -46 15.5 -76.5t41 -50t57 -31t63.5 -18.5l47 -11v-333q-104 6 -156 63t-52 151h-38
q0 -65 18 -110.5t50 -75.5t77.5 -45.5t100.5 -20.5v-88z" />
    <glyph glyph-name="percent" unicode="%" horiz-adv-x="778" 
d="M572 -12q38 0 68.5 14.5t52.5 38.5t33.5 56t11.5 68q0 38 -11 71t-32 57t-52 37.5t-70 13.5t-70 -14t-52.5 -38.5t-33 -57t-11.5 -69.5q0 -36 11.5 -68.5t33.5 -56.5t52.5 -38t68.5 -14zM571 21q-29 0 -52.5 12t-40 32.5t-25.5 46.5t-9 53q0 29 8.5 55.5t24.5 46.5t40 32
t55 12t55 -12t40.5 -32t24.5 -46.5t8 -55.5q0 -27 -9 -53t-25.5 -46.5t-40.5 -32.5t-54 -12zM206 346q38 0 68.5 14.5t52.5 38.5t33.5 56t11.5 68q0 38 -11 71t-32 57t-52 37.5t-70 13.5t-70 -14t-52.5 -38.5t-33 -57t-11.5 -69.5q0 -36 11.5 -68.5t33.5 -56.5t52.5 -38
t68.5 -14zM205 379q-29 0 -52.5 12t-40 32.5t-25.5 46.5t-9 53q0 29 8.5 55.5t24.5 46.5t40 32t55 12t55 -12t40.5 -32t24.5 -46.5t8 -55.5q0 -27 -9 -53t-25.5 -46.5t-40.5 -32.5t-54 -12zM138 -24h40l465 738h-40z" />
    <glyph glyph-name="ampersand" unicode="&#x26;" horiz-adv-x="593" 
d="M262 412q-12 18 -28 36.5t-30 39t-24 43t-10 48.5q0 20 10 36.5t25.5 28.5t35.5 18.5t41 6.5t41 -6.5t35.5 -18.5t25.5 -28.5t10 -36.5q0 -31 -12.5 -55.5t-32 -44.5t-42.5 -36.5t-45 -30.5zM433 137q0 -2 -10.5 -20.5t-33 -39.5t-56 -38.5t-78.5 -17.5q-33 0 -64 10
t-55.5 29t-39.5 47t-15 63q0 38 16 66.5t40.5 51.5t54 41.5t57.5 36.5zM545 0h51l-116 143q15 35 24.5 73.5t11.5 77.5h-38q0 -31 -6.5 -61t-17.5 -58l-170 209q26 19 52.5 37.5t47.5 41t34.5 50.5t13.5 66q0 30 -12.5 53t-33.5 38.5t-48 23.5t-56 8q-28 0 -55 -9t-48 -25
t-34 -38.5t-13 -50.5t9 -53t23 -47.5t31 -43t34 -41.5q-31 -20 -64 -40.5t-60 -47t-44.5 -59.5t-17.5 -77q0 -45 16.5 -79.5t45 -57t67 -34t83.5 -11.5q65 0 117.5 31.5t85.5 86.5z" />
    <glyph glyph-name="quotesingle" unicode="'" horiz-adv-x="204" 
d="M83 485h38v229h-38v-229z" />
    <glyph glyph-name="parenleft" unicode="(" horiz-adv-x="241" 
d="M228 -184q-63 103 -94 217t-31 233q0 123 32.5 241t95.5 224h-35q-62 -105 -96.5 -224t-34.5 -241q0 -119 34 -234.5t95 -215.5h34z" />
    <glyph glyph-name="parenright" unicode=")" horiz-adv-x="241" 
d="M13 731q63 -103 94 -217t31 -233q0 -123 -32.5 -241t-95.5 -224h35q62 105 96.5 224t34.5 241q0 119 -34 234.5t-95 215.5h-34z" />
    <glyph glyph-name="asterisk" unicode="*" horiz-adv-x="352" 
d="M161 714v-130l-123 41l-9 -28l124 -41l-81 -102l24 -20l80 106l77 -106l22 20l-76 102l123 41l-10 28l-122 -41v130h-29z" />
    <glyph glyph-name="plus" unicode="+" horiz-adv-x="600" 
d="M281 271h-233v-38h233v-233h38v233h233v38h-233v233h-38v-233z" />
    <glyph glyph-name="comma" unicode="," horiz-adv-x="278" 
d="M100 -126q37 14 50.5 50t13.5 76v103h-51v-103h21q0 -10 -1 -24t-5 -27.5t-10.5 -25t-17.5 -16.5v-33z" />
    <glyph glyph-name="hyphen" unicode="-" horiz-adv-x="352" 
d="M283 253v38h-214v-38h214z" />
    <glyph glyph-name="hyphen" unicode="&#xad;" horiz-adv-x="352" 
d="M283 253v38h-214v-38h214z" />
    <glyph glyph-name="period" unicode="." horiz-adv-x="278" 
d="M164 0v103h-51v-103h51z" />
    <glyph glyph-name="slash" unicode="/" horiz-adv-x="333" 
d="M28 -17l318 748h-41l-318 -748h41z" />
    <glyph glyph-name="zero" unicode="0" horiz-adv-x="556" 
d="M278 -12q75 0 123 32.5t76.5 84t39.5 115t11 125.5t-11 125.5t-39.5 115t-76.5 84t-123 32.5t-123 -32.5t-76.5 -84t-39.5 -115t-11 -125.5t11 -125.5t39.5 -115t76.5 -84t123 -32.5zM278 21q-65 0 -106 31t-64.5 79t-32.5 105t-9 109t9 109t32.5 105t64.5 79t106 31
t106 -31t64.5 -79t32.5 -105t9 -109t-9 -109t-32.5 -105t-64.5 -79t-106 -31z" />
    <glyph glyph-name="one" unicode="1" horiz-adv-x="556" 
d="M331 690h-34q-31 -53 -80 -86.5t-109 -42.5v-33q52 5 100 27t85 61v-616h38v690z" />
    <glyph glyph-name="two" unicode="2" horiz-adv-x="556" 
d="M94 38q3 32 21.5 60t47.5 53.5t65 49.5t73 49t72 52t62 59t43.5 69.5t16.5 82.5q0 48 -17 83.5t-46 59t-68 35t-83 11.5q-102 0 -157 -60t-61 -185h38q0 45 11.5 83.5t34.5 67t58 45t82 16.5q34 0 64.5 -11t54 -31.5t37.5 -49t14 -63.5q0 -44 -17 -78.5t-45.5 -63.5
t-64.5 -54.5t-73 -50.5q-38 -25 -74.5 -52t-66 -58.5t-48.5 -70t-22 -86.5h460v38h-412z" />
    <glyph glyph-name="three" unicode="3" horiz-adv-x="556" 
d="M36 228q-3 -58 13 -102.5t47 -75t76.5 -46.5t102.5 -16q48 0 91 12.5t75 38t51 63.5t19 89q0 35 -10.5 65.5t-30 54t-47.5 38.5t-63 19v2q30 4 55 17.5t43 34.5t27.5 48t9.5 58q0 46 -19 79t-49.5 54t-70 31t-81.5 10q-51 0 -92 -17t-70 -47t-44.5 -72.5t-15.5 -93.5h38
q2 43 14 79t34.5 62t56.5 41t79 15q31 0 63.5 -8.5t59 -25.5t43 -44t16.5 -63q0 -45 -19.5 -74t-50.5 -45t-69.5 -22t-76.5 -4v-33q43 3 84.5 -3t74.5 -24t53 -50.5t20 -81.5q0 -41 -16.5 -73t-44 -53.5t-63.5 -32.5t-74 -11q-48 0 -86 14.5t-64 41t-39.5 65t-11.5 86.5h-38
z" />
    <glyph glyph-name="four" unicode="4" horiz-adv-x="556" 
d="M365 690l-336 -476v-38h336v-176h38v176h116v33h-116v481h-38zM365 209h-298l296 429h2v-429z" />
    <glyph glyph-name="five" unicode="5" horiz-adv-x="556" 
d="M58 333h39q33 48 75.5 72.5t101.5 24.5q42 0 78 -16t62.5 -43t41 -64t14.5 -79t-14 -80t-40 -66t-62 -44.5t-80 -16.5q-42 0 -78.5 13.5t-63.5 38.5t-42.5 60t-14.5 78h-38q-3 -52 15 -93.5t51 -70t77 -44t94 -15.5q52 0 95 18t74 50.5t48 76.5t17 95t-17.5 94.5
t-48.5 74.5t-74 48.5t-94 17.5q-52 0 -96.5 -20.5t-74.5 -62.5l-2 2l59 275h319v33h-349z" />
    <glyph glyph-name="six" unicode="6" horiz-adv-x="556" 
d="M288 21q-41 0 -76.5 15t-61.5 41.5t-41.5 63t-15.5 79.5q0 42 14.5 79t40.5 64.5t61.5 43.5t78.5 16q42 0 77.5 -16.5t61 -44.5t40 -65t14.5 -77q0 -41 -14.5 -77t-40.5 -63t-61 -43t-77 -16zM507 520q-10 88 -67 135t-144 47q-53 0 -92.5 -17t-68 -46.5t-46.5 -68.5
t-28.5 -82.5t-14.5 -89t-4 -87.5q0 -63 11.5 -121.5t39.5 -103t75.5 -71.5t119.5 -27q50 0 92.5 17.5t73 48.5t48 73.5t17.5 92.5q0 51 -17 94t-47.5 74.5t-73 49.5t-93.5 18q-35 0 -67 -10.5t-59 -30t-48 -47t-32 -60.5l-2 2q0 51 7 113.5t29.5 117t65.5 91.5t114 37
q34 0 63 -11t51.5 -30.5t37.5 -47t21 -60.5h38z" />
    <glyph glyph-name="seven" unicode="7" horiz-adv-x="556" 
d="M56 657h407q-89 -96 -145.5 -182.5t-89.5 -167.5t-47.5 -157t-20.5 -150h44q12 127 40.5 223.5t68 172.5t88 137t100.5 119v38h-445v-33z" />
    <glyph glyph-name="eight" unicode="8" horiz-adv-x="556" 
d="M479 198q0 -46 -16.5 -79.5t-44.5 -55t-64 -32t-76 -10.5t-76.5 10.5t-64 32t-44 55t-16.5 79.5q0 43 16 73.5t44 50t64 28.5t77 9q40 0 76.5 -9t64.5 -28.5t44 -50t16 -73.5zM65 529q0 -58 32 -98.5t95 -52.5v-2q-71 -8 -112 -56t-41 -122q0 -54 19 -93.5t51 -65.5
t75.5 -38.5t93.5 -12.5q49 0 93 12.5t76 38.5t51 65.5t19 93.5q0 74 -41 122t-112 56v2q63 12 95 52.5t32 98.5q0 49 -18 82t-48 53t-68.5 29t-78.5 9t-78.5 -9t-68.5 -29t-48 -53t-18 -82zM453 529q0 -37 -15 -63t-39.5 -42.5t-56 -24t-64.5 -7.5t-64.5 7.5t-56 24
t-39.5 42.5t-15 63q0 39 14.5 66t39 43.5t56 23.5t65.5 7t65.5 -7t56 -23.5t39 -43.5t14.5 -66z" />
    <glyph glyph-name="nine" unicode="9" horiz-adv-x="556" 
d="M279 267q-42 0 -77.5 16.5t-61.5 44t-41 64.5t-15 78t15 77t41 63t61.5 43t77.5 16t77.5 -15.5t61.5 -42.5t41 -63.5t15 -77.5q0 -42 -14.5 -79t-40.5 -64.5t-61.5 -43.5t-78.5 -16zM55 170q10 -88 67 -135t144 -47q53 0 92.5 17t68 46.5t46.5 68.5t28.5 82.5t14.5 89
t4 87.5q0 69 -10.5 120t-28.5 86.5t-42 58.5t-50.5 35.5t-55 17.5t-54.5 5q-51 0 -93.5 -17t-73.5 -48t-48.5 -73.5t-17.5 -93.5q0 -52 17 -95t47.5 -74.5t73.5 -49t95 -17.5q40 0 72.5 11t57.5 30.5t42.5 44.5t28.5 54l2 -2q0 -31 -3 -69t-11 -77t-23 -76t-39 -65.5
t-58.5 -46t-81.5 -17.5q-34 0 -63.5 11t-52 30.5t-37 47t-20.5 60.5h-38z" />
    <glyph glyph-name="colon" unicode=":" horiz-adv-x="278" 
d="M113 514v-103h51v103h-51zM164 0v103h-51v-103h51z" />
    <glyph glyph-name="semicolon" unicode=";" horiz-adv-x="278" 
d="M100 -126q37 14 50.5 50t13.5 76v103h-51v-103h21q0 -10 -1 -24t-5 -27.5t-10.5 -25t-17.5 -16.5v-33zM113 514v-103h51v103h-51z" />
    <glyph glyph-name="semicolon" unicode="&#x37e;" horiz-adv-x="278" 
d="M100 -126q37 14 50.5 50t13.5 76v103h-51v-103h21q0 -10 -1 -24t-5 -27.5t-10.5 -25t-17.5 -16.5v-33zM113 514v-103h51v103h-51z" />
    <glyph glyph-name="less" unicode="&#x3c;" horiz-adv-x="600" 
d="M552 514l-504 -234v-52l504 -236v42l-471 220l471 218v42z" />
    <glyph glyph-name="equal" unicode="=" horiz-adv-x="600" 
d="M552 369h-504v-38h504v38zM552 175h-504v-38h504v38z" />
    <glyph glyph-name="greater" unicode="&#x3e;" horiz-adv-x="600" 
d="M48 -8l504 234v52l-504 236v-42l471 -220l-471 -218v-42z" />
    <glyph glyph-name="question" unicode="?" 
d="M81 493q0 43 11.5 79.5t34 63.5t56.5 42t79 15q31 0 60 -8t51.5 -25.5t36 -44t13.5 -63.5q0 -26 -8.5 -49t-22.5 -43t-32 -38.5t-36 -35.5t-34 -36.5t-28 -43.5t-19 -54.5t-7 -70.5h38q0 44 9 75.5t23 54.5t31.5 39.5t34.5 31.5q17 16 33 33t28.5 36.5t20 44t7.5 56.5
q0 45 -15.5 79t-42.5 56t-62.5 33t-75.5 11q-54 0 -95.5 -17t-69.5 -48.5t-42.5 -75.5t-14.5 -97h38zM231 0h51v103h-51v-103z" />
    <glyph glyph-name="at" unicode="@" horiz-adv-x="800" 
d="M425 547q31 0 49.5 -13t28 -32t12 -39t2.5 -34q0 -20 -5 -44t-13.5 -48.5t-20.5 -48.5t-26 -44q-24 -34 -55.5 -56.5t-60.5 -22.5q-44 0 -73.5 33t-29.5 89q0 39 14 84.5t39.5 84.5t61 65t77.5 26zM609 560h-41l-23 -71h-2q-3 18 -12 34t-23 29t-33.5 20.5t-43.5 7.5
q-52 0 -95 -27t-74.5 -70t-49 -96t-17.5 -105q0 -30 9.5 -57.5t26 -48t40 -32.5t52.5 -12q41 0 75.5 18t58.5 53h2q1 -36 20.5 -53.5t45.5 -17.5q39 0 79.5 24t74 63.5t54.5 91.5t21 109q0 68 -26.5 125t-72 98.5t-107.5 64.5t-133 23q-75 0 -142 -29t-117.5 -79.5t-80 -118
t-29.5 -144.5q0 -78 28.5 -147t78.5 -120t118 -80.5t148 -29.5q48 0 95.5 13t89.5 37t76.5 58t57.5 77h-44q-23 -35 -53 -63t-65.5 -47.5t-75.5 -30.5t-81 -11q-63 0 -123 25t-107 69.5t-76 106.5t-29 136q0 70 26.5 132.5t71.5 110t105.5 75t129.5 27.5q55 0 109 -19.5
t96 -55.5t68 -86.5t26 -113.5q0 -42 -15.5 -87t-40.5 -82t-57.5 -60.5t-66.5 -23.5q-16 0 -27.5 9.5t-11.5 24.5q0 11 5.5 27.5t10.5 32.5z" />
    <glyph glyph-name="A" unicode="A" horiz-adv-x="593" 
d="M275 714l-287 -714h47l91 229h342l90 -229h47l-282 714h-48zM140 267l159 404h2l153 -404h-314z" />
    <glyph glyph-name="B" unicode="B" horiz-adv-x="630" 
d="M107 352h242q35 0 71.5 -6.5t66 -23.5t48.5 -46.5t19 -75.5q0 -80 -55 -121t-150 -41h-242v314zM63 0h286q56 0 102 13t78.5 38.5t50.5 62.5t18 86q0 54 -22.5 88.5t-51 54t-54.5 26.5t-33 6l-2 2q31 4 56.5 17.5t44 33.5t28.5 46t10 55q0 34 -11.5 67.5t-37.5 59.5
t-69 42t-107 16h-286v-714zM107 676h242q36 0 68.5 -7t57.5 -23.5t40 -43t15 -65.5q0 -66 -45.5 -106.5t-135.5 -40.5h-242v286z" />
    <glyph glyph-name="C" unicode="C" horiz-adv-x="704" 
d="M663 501q0 2 -4 20.5t-14.5 44t-30.5 54.5t-51.5 53.5t-77.5 41t-109 16.5q-80 0 -143.5 -29t-107 -79.5t-66.5 -119t-23 -146.5t23 -146.5t66.5 -119t107 -79.5t143.5 -29q59 0 111 22t91.5 61.5t65 93.5t31.5 118h-44q-3 -50 -23.5 -96.5t-54.5 -82t-79.5 -57
t-97.5 -21.5q-70 0 -125 27t-93 72.5t-58 106.5t-20 130t20 130t58 106.5t93 72.5t125 27q45 0 85.5 -13t73.5 -38t55 -60.5t29 -80.5h44z" />
    <glyph glyph-name="D" unicode="D" horiz-adv-x="667" 
d="M107 676h183q26 0 58.5 -3.5t65 -14.5t63 -31.5t54 -56t38 -87.5t14.5 -125q0 -93 -25.5 -154.5t-66.5 -98t-91.5 -52t-100.5 -15.5h-192v638zM63 0h232q86 0 148.5 27.5t103.5 75.5t60.5 113.5t19.5 141.5q0 68 -15.5 132t-53.5 114t-101.5 80t-159.5 30h-234v-714z" />
    <glyph glyph-name="E" unicode="E" horiz-adv-x="560" 
d="M107 38v314h410v38h-410v286h436v38h-480v-714h485v38h-441z" />
    <glyph glyph-name="F" unicode="F" horiz-adv-x="514" 
d="M471 352v38h-364v286h404v38h-448v-714h44v352h364z" />
    <glyph glyph-name="G" unicode="G" horiz-adv-x="741" 
d="M382 350v-38h263q3 -66 -15 -119.5t-53.5 -91.5t-86.5 -59t-115 -21q-74 0 -129 26.5t-91.5 71.5t-55 105.5t-18.5 128.5q0 67 19 128.5t56 108.5t92 75t127 28q98 0 163.5 -53.5t90.5 -146.5h42q-9 56 -36 100t-66.5 75t-89.5 47t-105 16q-81 0 -143.5 -30.5
t-105.5 -82.5t-65.5 -120.5t-22.5 -144.5q0 -77 22 -144.5t65 -117.5t105.5 -79t143.5 -29q47 0 90.5 12t79 33.5t61.5 53t39 70.5h2v-152h38v350h-301z" />
    <glyph glyph-name="H" unicode="H" horiz-adv-x="670" 
d="M563 352v-352h44v714h-44v-324h-456v324h-44v-714h44v352h456z" />
    <glyph glyph-name="I" unicode="I" horiz-adv-x="170" 
d="M63 0h44v714h-44v-714z" />
    <glyph glyph-name="J" unicode="J" horiz-adv-x="481" 
d="M20 227q0 -40 4.5 -83t24 -79t60.5 -59t113 -23q50 0 83.5 12t55.5 31.5t33.5 44.5t17 51.5t6 52.5t0.5 47v492h-44v-477q0 -37 -1.5 -75.5t-15.5 -69.5t-46 -51t-94 -20q-53 0 -84.5 17.5t-47.5 46t-20 65.5t-1 77h-44z" />
    <glyph glyph-name="K" unicode="K" horiz-adv-x="613" 
d="M63 0h44v252l148 135l323 -387h55l-346 417l326 297h-57l-449 -411v411h-44v-714z" />
    <glyph glyph-name="L" unicode="L" horiz-adv-x="500" 
d="M63 0h449v38h-405v676h-44v-714z" />
    <glyph glyph-name="M" unicode="M" horiz-adv-x="809" 
d="M63 0h44v660h2l275 -660h44l272 660h2v-660h44v714h-63l-276 -665h-2l-279 665h-63v-714z" />
    <glyph glyph-name="N" unicode="N" horiz-adv-x="678" 
d="M63 0h44v660h2l454 -660h52v714h-44v-655h-2l-451 655h-55v-714z" />
    <glyph glyph-name="O" unicode="O" horiz-adv-x="741" 
d="M710 357q0 78 -23 146.5t-66.5 119t-106.5 79.5t-143 29t-143.5 -29t-107 -79.5t-66.5 -119t-23 -146.5t23 -146.5t66.5 -119t107 -79.5t143.5 -29t143 29t106.5 79.5t66.5 119t23 146.5zM75 357q0 69 20 130t58 106.5t93 72.5t125 27t124.5 -27t92.5 -72.5t58 -106.5
t20 -130t-20 -130t-58 -106.5t-92.5 -72.5t-124.5 -27t-125 27t-93 72.5t-58 106.5t-20 130z" />
    <glyph glyph-name="P" unicode="P" horiz-adv-x="591" 
d="M107 676h257q54 0 86.5 -17.5t50.5 -43t24 -53t6 -47.5q0 -28 -9 -56t-29 -51t-53.5 -37.5t-81.5 -14.5h-251v320zM63 0h44v318h244q107 0 165.5 51t58.5 145q0 64 -21 103.5t-52.5 61t-68 28.5t-66.5 7h-304v-714z" />
    <glyph glyph-name="Q" unicode="Q" horiz-adv-x="741" 
d="M453 182l-23 -31l108 -77q-34 -26 -75.5 -39.5t-91.5 -13.5q-70 0 -125 27t-93 72.5t-58 106.5t-20 130t20 130t58 106.5t93 72.5t125 27t124.5 -27t92.5 -72.5t58 -106.5t20 -130q0 -77 -25 -144t-73 -114zM691 -37l23 31l-111 80q52 50 79.5 122.5t27.5 160.5
q0 78 -23 146.5t-66.5 119t-106.5 79.5t-143 29t-143.5 -29t-107 -79.5t-66.5 -119t-23 -146.5t23 -146.5t66.5 -119t107 -79.5t143.5 -29q60 0 110.5 16.5t91.5 48.5z" />
    <glyph glyph-name="R" unicode="R" horiz-adv-x="630" 
d="M107 363v313h254q36 0 69 -8t58 -26t40 -46.5t15 -68.5q0 -43 -14 -74t-38 -51t-57.5 -29.5t-72.5 -9.5h-254zM63 0h44v325h254q47 0 78 -10t49.5 -27t28 -39.5t12.5 -48.5t2.5 -53.5t0 -54t3.5 -50.5t13 -42h49q-11 14 -15 35.5t-5 47t-1 53.5t-3 56t-10 53.5t-22.5 46
t-41 34.5t-65.5 19v2q72 12 112.5 61.5t40.5 121.5q0 52 -17.5 87t-48.5 56.5t-72 31t-88 9.5h-298v-714z" />
    <glyph glyph-name="S" unicode="S" horiz-adv-x="630" 
d="M573 510q-3 59 -25 101t-58.5 68.5t-85 39t-104.5 12.5q-42 0 -85 -10.5t-77.5 -33t-56 -59t-21.5 -87.5t21 -83.5t55 -53t78 -32.5t89 -21q46 -9 89.5 -19.5t78 -28t55.5 -46t21 -73.5q0 -47 -20.5 -78t-51 -50t-67 -27t-68.5 -8q-53 0 -101 11.5t-84 37.5t-55.5 66.5
t-16.5 99.5h-44q-1 -69 22.5 -117t64.5 -78.5t96 -44t118 -13.5q41 0 85.5 10.5t81 34.5t60.5 62t24 94q0 53 -21 87t-55.5 55.5t-78 34t-89.5 21.5q-45 9 -89 19t-78 26.5t-55 43.5t-21 70q0 44 19 73.5t48.5 47t64 24.5t64.5 7q49 0 90.5 -11.5t71.5 -34.5t47.5 -57
t19.5 -80h44z" />
    <glyph glyph-name="T" unicode="T" 
d="M237 676v-676h44v676h252v38h-547v-38h251z" />
    <glyph glyph-name="U" unicode="U" horiz-adv-x="672" 
d="M63 714v-428q0 -24 2 -55.5t11 -65t26 -66.5t46.5 -58.5t74.5 -41.5t108 -16q80 0 133.5 23.5t85.5 64.5t45.5 96t13.5 119v428h-44v-428q0 -61 -12 -110t-39.5 -83.5t-72 -53t-110.5 -18.5q-52 0 -88.5 13.5t-61.5 36t-39.5 51t-22 58t-10 57.5t-2.5 49v428h-44z" />
    <glyph glyph-name="V" unicode="V" horiz-adv-x="556" 
d="M32 714h-46l266 -714h51l267 714h-44l-247 -676h-2z" />
    <glyph glyph-name="W" unicode="W" horiz-adv-x="889" 
d="M200 0h49l193 676h2l196 -676h50l205 714h-47l-183 -667h-2l-192 667h-55l-189 -667h-2l-186 667h-45z" />
    <glyph glyph-name="X" unicode="X" horiz-adv-x="556" 
d="M251 367l-268 -367h52l243 334l242 -334h53l-266 367l252 347h-50l-231 -314l-226 314h-51z" />
    <glyph glyph-name="Y" unicode="Y" horiz-adv-x="574" 
d="M287 336l-258 378h-50l285 -415v-299h44v299l287 415h-49z" />
    <glyph glyph-name="Z" unicode="Z" horiz-adv-x="537" 
d="M28 676h453l-482 -638v-38h539v38h-493l484 638v38h-501v-38z" />
    <glyph glyph-name="bracketleft" unicode="[" horiz-adv-x="241" 
d="M231 698v33h-137v-915h137v33h-99v849h99z" />
    <glyph glyph-name="backslash" unicode="\" horiz-adv-x="333" 
d="M346 -17l-318 748h-41l318 -748h41z" />
    <glyph glyph-name="bracketright" unicode="]" horiz-adv-x="241" 
d="M10 -151v-33h137v915h-137v-33h99v-849h-99z" />
    <glyph glyph-name="asciicircum" unicode="^" horiz-adv-x="600" 
d="M561 237l-234 453h-52l-236 -453h42l220 420l218 -420h42z" />
    <glyph glyph-name="underscore" unicode="_" horiz-adv-x="500" 
d="M500 -125v50h-500v-50h500z" />
    <glyph glyph-name="grave" unicode="`" horiz-adv-x="167" 
d="M141 591l-120 140h-51l134 -140h37z" />
    <glyph glyph-name="a" unicode="a" horiz-adv-x="500" 
d="M397 196q0 -10 -5.5 -38.5t-25.5 -59t-58 -54t-103 -23.5q-68 0 -101.5 32.5t-33.5 79.5q0 58 36.5 84.5t104.5 34.5q28 4 56 6t53.5 5t45.5 9.5t31 19.5v-96zM435 392q0 40 -15.5 66t-41 41t-57.5 21t-66 6q-91 0 -141.5 -42.5t-54.5 -127.5h38q4 67 46.5 102t111.5 35
q44 0 72 -10t43.5 -25t21.5 -33t6 -33q0 -32 -4 -50.5t-21 -30t-52.5 -17t-99.5 -9.5q-32 -3 -65.5 -10t-61 -23.5t-45 -45t-17.5 -73.5q0 -41 13 -68.5t36.5 -44.5t55 -24.5t67.5 -7.5q37 0 68 9t55.5 25t41.5 36.5t26 43.5h2v-27q0 -16 2.5 -29.5t9.5 -23.5t20.5 -16
t36.5 -6q8 0 15.5 1t15.5 3v32q-18 -3 -28 -3q-13 0 -20 5.5t-10 14.5t-3.5 20t-0.5 22v297z" />
    <glyph glyph-name="b" unicode="b" horiz-adv-x="556" 
d="M300 21q-53 0 -90 21t-60.5 55.5t-34.5 79.5t-11 92q0 48 12 89t36 71t61 47t87 17q46 0 80.5 -19t58 -50.5t35 -71.5t11.5 -83q0 -44 -10 -88.5t-32 -80t-57 -57.5t-86 -22zM65 0h38v115h2q3 -10 15 -31t35 -42.5t58.5 -37.5t86.5 -16q27 0 65 9.5t73 39t60 85t25 147.5
q0 54 -13.5 100.5t-41.5 81.5t-69.5 55t-98.5 20q-31 0 -61.5 -7.5t-56.5 -23t-46 -38t-31 -52.5h-2v309h-38v-714z" />
    <glyph glyph-name="c" unicode="c" 
d="M481 355q-4 44 -22 76t-46.5 53t-65 31.5t-78.5 10.5q-57 0 -101 -21t-74 -57t-45.5 -84t-15.5 -102t13.5 -103.5t42 -87.5t73 -60.5t107.5 -22.5q42 0 78.5 13t65 37.5t48 60.5t25.5 82h-38q-5 -35 -20 -64.5t-38.5 -50.5t-54 -33t-66.5 -12q-50 0 -87 18t-62 50.5
t-37 76.5t-12 96q0 44 13 85.5t38 74t62 52t85 19.5q35 0 65.5 -9t53.5 -26t37.5 -43t17.5 -60h38z" />
    <glyph glyph-name="d" unicode="d" horiz-adv-x="556" 
d="M262 21q-50 0 -86 19.5t-59.5 52.5t-35 75.5t-11.5 87.5q0 46 10.5 89t34 76t59.5 52.5t87 19.5q49 0 85.5 -20t59.5 -53.5t34.5 -76t11.5 -87.5q0 -44 -11.5 -86.5t-35 -75.5t-59 -53t-84.5 -20zM453 0h38v714h-38v-315h-2q-10 30 -29 54t-44.5 40t-55.5 24.5t-61 8.5
q-58 0 -101 -21t-71.5 -57t-42.5 -85.5t-14 -106.5q0 -53 13 -101.5t40 -85.5t69 -59t100 -22q69 0 117 30.5t80 91.5h2v-110z" />
    <glyph glyph-name="e" unicode="e" 
d="M486 252q3 55 -9.5 105t-40.5 87.5t-72 59.5t-104 22q-58 0 -101 -23.5t-71.5 -62.5t-42 -89t-12.5 -103q-1 -53 13.5 -100.5t43 -83t71.5 -56t99 -20.5q92 0 149.5 47.5t72.5 138.5h-38q-14 -72 -62.5 -112.5t-121.5 -40.5q-48 0 -83.5 19t-59.5 51t-35.5 74t-10.5 87
h415zM71 285q3 38 17 75.5t38 67t57.5 47.5t76.5 18q44 0 78.5 -17.5t58.5 -46t37 -66.5t14 -78h-377z" />
    <glyph glyph-name="f" unicode="f" horiz-adv-x="241" 
d="M92 481v-481h38v481h107v33h-107v103q0 43 21.5 57.5t53.5 14.5q20 0 45 -5v33q-25 5 -45 5q-23 0 -43.5 -6t-36 -18t-24.5 -31.5t-9 -46.5v-106h-92v-33h92z" />
    <glyph glyph-name="g" unicode="g" horiz-adv-x="537" 
d="M255 493q47 0 82 -18t58.5 -48.5t35 -70.5t11.5 -83q0 -44 -11.5 -83.5t-35 -70.5t-58.5 -49t-82 -18q-45 0 -79.5 17.5t-58 47.5t-35 70.5t-11.5 85.5q0 41 11.5 80.5t34 70.5t57 50t81.5 19zM443 514v-107h-2q-11 29 -30 51t-43.5 37t-53.5 23t-59 8q-54 0 -95.5 -20.5
t-69.5 -55t-42.5 -80.5t-14.5 -97q0 -54 13.5 -100t41 -80.5t69 -54t98.5 -19.5q66 0 112.5 30t73.5 87h2v-118q0 -9 -1 -25.5t-6.5 -36.5t-16.5 -41t-31.5 -38.5t-51.5 -28.5t-76 -11q-32 0 -60 7t-50.5 22.5t-36.5 39.5t-17 58h-38q2 -45 18.5 -75.5t43 -49t62.5 -27
t77 -8.5q55 -2 93.5 11t63 34.5t38 48t19.5 52t7 46.5t1 31v487h-38z" />
    <glyph glyph-name="h" unicode="h" 
d="M56 714v-714h38v278q0 47 12.5 86.5t36.5 68t58.5 44.5t77.5 16q52 0 81.5 -19t44 -45.5t17.5 -55t3 -48.5v-325h38v318q0 16 -1 37.5t-6 44.5t-16.5 45.5t-31.5 40.5t-51.5 29t-76.5 11q-30 0 -59 -8t-53.5 -24t-43 -38.5t-28.5 -51.5h-2v310h-38z" />
    <glyph glyph-name="i" unicode="i" horiz-adv-x="168" 
d="M103 0v514h-38v-514h38zM103 611v103h-38v-103h38z" />
    <glyph glyph-name="j" unicode="j" horiz-adv-x="168" 
d="M65 514v-566q0 -29 -4 -48.5t-13 -31t-23 -16t-34 -4.5q-8 0 -14 0.5t-11 1.5v-33q8 -1 16 -1h16q33 0 53.5 10.5t32 28t15.5 41t4 49.5v569h-38zM103 611v103h-38v-103h38z" />
    <glyph glyph-name="k" unicode="k" horiz-adv-x="463" 
d="M58 0h38v194l117 99l219 -293h52l-241 322l225 192h-55l-317 -273v473h-38v-714z" />
    <glyph glyph-name="l" unicode="l" horiz-adv-x="168" 
d="M65 714v-714h38v714h-38z" />
    <glyph glyph-name="m" unicode="m" horiz-adv-x="796" 
d="M57 0h38v304q0 49 15 85t39 59t53 34t56 11q12 0 32.5 -4t40 -18t34 -42.5t14.5 -76.5v-352h38v304q0 46 12 81.5t33.5 59.5t51 36t64.5 12q11 0 31.5 -3.5t41 -18t35.5 -42.5t15 -77v-352h38v351q0 45 -12 78t-33.5 54.5t-51 32t-64.5 10.5q-63 0 -101.5 -28t-61.5 -81
h-2q-4 20 -15 39.5t-30 35t-46 25t-64 9.5q-29 0 -55.5 -9t-48 -25t-36.5 -37.5t-21 -45.5h-2v105h-38v-514z" />
    <glyph glyph-name="n" unicode="n" 
d="M56 0h38v278q0 47 12.5 86.5t36.5 68t58.5 44.5t77.5 16q52 0 81.5 -19t44 -45.5t17.5 -55t3 -48.5v-325h38v318q0 16 -1 37.5t-6 44.5t-16.5 45.5t-31.5 40.5t-51.5 29t-76.5 11q-30 0 -59 -8t-53.5 -24t-43 -38.5t-28.5 -51.5h-2v110h-38v-514z" />
    <glyph glyph-name="o" unicode="o" horiz-adv-x="537" 
d="M32 257q0 -55 15.5 -104t45.5 -85.5t74 -58t101 -21.5t101 21.5t74 58t45.5 85.5t15.5 104t-15.5 103.5t-45.5 85.5t-74 58.5t-101 21.5t-101 -21.5t-74 -58.5t-45.5 -85.5t-15.5 -103.5zM70 257q0 46 13 88.5t38 75.5t62 52.5t85 19.5t85 -19.5t62 -52.5t38 -75.5
t13 -88.5t-13 -88.5t-38 -75.5t-62 -52.5t-85 -19.5t-85 19.5t-62 52.5t-38 75.5t-13 88.5z" />
    <glyph glyph-name="p" unicode="p" horiz-adv-x="556" 
d="M292 21q-54 0 -90.5 19.5t-58 52t-30.5 75t-9 88.5t10 88.5t32.5 75.5t58.5 53t87 20q52 0 88.5 -20.5t59.5 -54t34 -76t11 -86.5q0 -48 -11.5 -90.5t-35 -74.5t-60 -51t-86.5 -19zM103 514h-38v-698h38v291h2q23 -63 73 -91t114 -28q59 0 102.5 20t72 55.5t42.5 84.5
t14 108q0 54 -14 103t-42.5 86t-72 59t-102.5 22q-42 0 -74.5 -13t-55.5 -32.5t-37 -42.5t-20 -42h-2v118z" />
    <glyph glyph-name="q" unicode="q" horiz-adv-x="556" 
d="M261 21q-51 0 -87 19.5t-59.5 52.5t-34 75.5t-10.5 89.5q0 45 11.5 87.5t35 75.5t59.5 52.5t86 19.5q49 0 84.5 -20t59 -53t35 -75.5t11.5 -86.5q0 -45 -11.5 -87.5t-34.5 -76t-59.5 -53.5t-85.5 -20zM453 -184h38v698h-38v-110h-2q-32 61 -80 91.5t-117 30.5
q-58 0 -100 -22t-69 -59t-40 -85.5t-13 -101.5q0 -57 14 -106.5t42.5 -85.5t71.5 -57t101 -21q31 0 61 8.5t55.5 24.5t44.5 40t29 54h2v-299z" />
    <glyph glyph-name="r" unicode="r" horiz-adv-x="278" 
d="M94 514h-38v-514h38v281q1 29 5 50t11 38t17.5 31t24.5 29q35 34 73.5 44t68.5 6v38q-35 1 -67.5 -7.5t-58.5 -24.5t-45 -38t-26 -47h-3v114z" />
    <glyph glyph-name="s" unicode="s" horiz-adv-x="481" 
d="M36 171q1 -45 17 -79t44 -57.5t65.5 -35t81.5 -11.5q34 0 69.5 6.5t64.5 23t48 43.5t19 69q0 40 -14 66t-38.5 42.5t-58 26t-71.5 16.5q-31 7 -61.5 14t-55 18.5t-39.5 30.5t-15 50q0 27 13.5 46t34.5 31t47.5 17t52.5 5q32 0 60 -7.5t48 -23t32 -40.5t12 -60h38
q0 44 -14.5 75t-40 51t-60 29t-75.5 9q-33 0 -66 -6.5t-59.5 -21.5t-43.5 -40.5t-17 -63.5q0 -39 15 -64.5t40 -41t57 -24.5t65 -16t64.5 -14t56.5 -19t40 -32t15 -53t-16 -54.5t-40.5 -33.5t-53 -16.5t-53.5 -4.5q-35 0 -65 10t-52.5 29.5t-36.5 47t-16 63.5h-38z" />
    <glyph glyph-name="t" unicode="t" horiz-adv-x="259" 
d="M245 514h-112v160h-38v-160h-95v-33h95v-359q-2 -44 10.5 -69t33.5 -37.5t48.5 -15t56.5 -0.5v33q-27 -1 -47.5 1.5t-35 11.5t-21.5 27t-7 49v359h112v33z" />
    <glyph glyph-name="u" unicode="u" 
d="M463 514h-38v-278q0 -47 -12.5 -86.5t-36.5 -68t-58.5 -44.5t-77.5 -16q-53 0 -82 19t-43.5 45.5t-17.5 55t-3 48.5v325h-38v-318q0 -16 1 -37.5t6 -44.5t16.5 -45.5t31.5 -40.5t51.5 -29t76.5 -11q30 0 59 8t53.5 24t43 38.5t28.5 51.5h2v-110h38v514z" />
    <glyph glyph-name="v" unicode="v" horiz-adv-x="444" 
d="M446 514h-42l-174 -470h-2l-186 470h-44l207 -514h47z" />
    <glyph glyph-name="w" unicode="w" horiz-adv-x="704" 
d="M39 514h-41l163 -514h48l142 466h2l141 -466h47l165 514h-42l-144 -470h-2l-141 470h-51l-140 -470h-2z" />
    <glyph glyph-name="x" unicode="x" horiz-adv-x="444" 
d="M-6 0h48l180 241l176 -241h52l-203 270l186 244h-49l-162 -215l-161 215h-53l188 -244z" />
    <glyph glyph-name="y" unicode="y" horiz-adv-x="444" 
d="M209 3q-18 -51 -30 -80.5t-23 -40.5q-20 -20 -43 -26.5t-64 -6.5v-33q44 0 72 3.5t48 19.5q17 13 30.5 40.5t29.5 65.5l220 569h-43l-176 -469l-191 469h-45z" />
    <glyph glyph-name="z" unicode="z" horiz-adv-x="426" 
d="M55 33l346 445v36h-365v-33h318l-345 -445v-36h408v33h-362z" />
    <glyph glyph-name="braceleft" unicode="{" horiz-adv-x="333" 
d="M293 731h-50q-42 0 -65 -25t-23 -93v-159q0 -30 -3 -59t-11 -51.5t-22 -36.5t-36 -15v-38q22 -1 36 -15t22 -36.5t11 -51.5t3 -59v-158q0 -68 23 -93t65 -25h50v33h-48q-31 0 -41.5 23t-10.5 80v157q0 50 -9 80.5t-21 48.5t-23.5 25.5t-16.5 12.5q5 3 16.5 9.5t23.5 24
t21 48t9 80.5v157q0 57 10.5 80t41.5 23h48v33z" />
    <glyph glyph-name="bar" unicode="|" horiz-adv-x="222" 
d="M92 -214h38v1000h-38v-1000z" />
    <glyph glyph-name="braceright" unicode="}" horiz-adv-x="333" 
d="M40 -184h50q42 0 65 25t23 93v158q0 30 3 59t11 51.5t22 36.5t36 15v38q-22 1 -36 15t-22 36.5t-11 51.5t-3 59v159q0 68 -23 93t-65 25h-50v-33h48q31 0 41.5 -23t10.5 -80v-157q0 -50 9 -80.5t21 -48t23.5 -24t16.5 -9.5q-5 -5 -16.5 -12.5t-23.5 -25.5t-21 -48.5
t-9 -80.5v-157q0 -57 -10.5 -80t-41.5 -23h-48v-33z" />
    <glyph glyph-name="asciitilde" unicode="~" horiz-adv-x="600" 
d="M500 312q-6 -12 -16 -25t-22 -24.5t-25.5 -18.5t-28.5 -7q-32 0 -56.5 13t-45.5 23q-34 15 -57.5 23.5t-53.5 8.5q-46 0 -72.5 -22.5t-49.5 -60.5l29 -30q5 12 13 25t19.5 24.5t28 18.5t38.5 7q10 0 22.5 -3t25 -7.5t24.5 -10t20 -9.5q34 -17 60 -27.5t54 -10.5
q22 0 40 7.5t32.5 20t26.5 27.5t22 30z" />
    <glyph glyph-name="quotesinglbase" horiz-adv-x="204" 
d="M125 103h-51v-103h21q0 -10 -1 -24t-5 -27.5t-10.5 -25t-17.5 -16.5v-33q37 14 50.5 50t13.5 76v103z" />
    <glyph glyph-name="quotesinglbase" unicode="&#x201a;" horiz-adv-x="204" 
d="M125 103h-51v-103h21q0 -10 -1 -24t-5 -27.5t-10.5 -25t-17.5 -16.5v-33q37 14 50.5 50t13.5 76v103z" />
    <glyph glyph-name="quotedblbase" horiz-adv-x="315" 
d="M251 103h-51v-103h21q0 -10 -1 -24t-5 -27.5t-10.5 -25t-17.5 -16.5v-33q37 14 50.5 50t13.5 76v103zM125 103h-51v-103h21q0 -10 -1 -24t-5 -27.5t-10.5 -25t-17.5 -16.5v-33q37 14 50.5 50t13.5 76v103z" />
    <glyph glyph-name="quotedblbase" unicode="&#x201e;" horiz-adv-x="315" 
d="M251 103h-51v-103h21q0 -10 -1 -24t-5 -27.5t-10.5 -25t-17.5 -16.5v-33q37 14 50.5 50t13.5 76v103zM125 103h-51v-103h21q0 -10 -1 -24t-5 -27.5t-10.5 -25t-17.5 -16.5v-33q37 14 50.5 50t13.5 76v103z" />
    <glyph glyph-name="ellipsis" unicode="&#x85;" horiz-adv-x="1000" 
d="M141 0h51v103h-51v-103zM474 0h51v103h-51v-103zM807 0h51v103h-51v-103z" />
    <glyph glyph-name="ellipsis" unicode="&#x2026;" horiz-adv-x="1000" 
d="M141 0h51v103h-51v-103zM474 0h51v103h-51v-103zM807 0h51v103h-51v-103z" />
    <glyph glyph-name="dagger" horiz-adv-x="556" 
d="M54 514v-33h205v-627h38v627h205v33h-205v200h-38v-200h-205z" />
    <glyph glyph-name="dagger" unicode="&#x2020;" horiz-adv-x="556" 
d="M54 514v-33h205v-627h38v627h205v33h-205v200h-38v-200h-205z" />
    <glyph glyph-name="daggerdbl" horiz-adv-x="556" 
d="M259 714v-200h-205v-33h205v-394h-205v-33h205v-200h38v200h205v33h-205v394h205v33h-205v200h-38z" />
    <glyph glyph-name="daggerdbl" unicode="&#x2021;" horiz-adv-x="556" 
d="M259 714v-200h-205v-33h205v-394h-205v-33h205v-200h38v200h205v33h-205v394h205v33h-205v200h-38z" />
    <glyph glyph-name="perthousand" horiz-adv-x="1074" 
d="M527 -12q36 0 64.5 12.5t47.5 35t29 54t10 68.5q0 36 -10 66.5t-29.5 53t-47.5 35.5t-64 13q-35 0 -63 -13t-48 -35.5t-31 -53t-11 -66.5q0 -76 38 -123t115 -47zM525 21q-31 0 -52.5 10.5t-35 29t-19.5 43.5t-6 54q0 58 28 96.5t85 38.5q28 0 49.5 -11t36 -29.5t22 -43
t7.5 -51.5q0 -29 -7.5 -54t-22 -43.5t-36 -29t-49.5 -10.5zM882 -12q36 0 64.5 12.5t48 35t29.5 54t10 68.5q0 36 -10.5 66.5t-30 53t-47.5 35.5t-64 13q-35 0 -63 -13t-47.5 -35.5t-30.5 -53t-11 -66.5q0 -76 37.5 -123t114.5 -47zM882 21q-31 0 -52.5 10.5t-35 29
t-20 43.5t-6.5 54q0 58 28.5 96.5t85.5 38.5q28 0 49 -11t35.5 -29.5t22 -43t7.5 -51.5q0 -29 -7.5 -54t-21.5 -43.5t-35.5 -29t-49.5 -10.5zM193 702q-35 0 -63 -12.5t-48 -35t-31 -53t-11 -66.5q0 -76 38 -123.5t115 -47.5q36 0 64.5 13t47.5 35.5t29 54t10 68.5
q0 36 -10 66.5t-29.5 53t-47.5 35t-64 12.5zM192 669q28 0 49 -10.5t35.5 -29t22 -43t7.5 -51.5q0 -29 -7.5 -54.5t-21.5 -44t-35.5 -29t-49.5 -10.5q-31 0 -52.5 10.5t-35 29.5t-20 44t-6.5 54q0 58 28.5 96t85.5 38zM105 -24h40l465 738h-40z" />
    <glyph glyph-name="perthousand" unicode="&#x2030;" horiz-adv-x="1074" 
d="M527 -12q36 0 64.5 12.5t47.5 35t29 54t10 68.5q0 36 -10 66.5t-29.5 53t-47.5 35.5t-64 13q-35 0 -63 -13t-48 -35.5t-31 -53t-11 -66.5q0 -76 38 -123t115 -47zM525 21q-31 0 -52.5 10.5t-35 29t-19.5 43.5t-6 54q0 58 28 96.5t85 38.5q28 0 49.5 -11t36 -29.5t22 -43
t7.5 -51.5q0 -29 -7.5 -54t-22 -43.5t-36 -29t-49.5 -10.5zM882 -12q36 0 64.5 12.5t48 35t29.5 54t10 68.5q0 36 -10.5 66.5t-30 53t-47.5 35.5t-64 13q-35 0 -63 -13t-47.5 -35.5t-30.5 -53t-11 -66.5q0 -76 37.5 -123t114.5 -47zM882 21q-31 0 -52.5 10.5t-35 29
t-20 43.5t-6.5 54q0 58 28.5 96.5t85.5 38.5q28 0 49 -11t35.5 -29.5t22 -43t7.5 -51.5q0 -29 -7.5 -54t-21.5 -43.5t-35.5 -29t-49.5 -10.5zM193 702q-35 0 -63 -12.5t-48 -35t-31 -53t-11 -66.5q0 -76 38 -123.5t115 -47.5q36 0 64.5 13t47.5 35.5t29 54t10 68.5
q0 36 -10 66.5t-29.5 53t-47.5 35t-64 12.5zM192 669q28 0 49 -10.5t35.5 -29t22 -43t7.5 -51.5q0 -29 -7.5 -54.5t-21.5 -44t-35.5 -29t-49.5 -10.5q-31 0 -52.5 10.5t-35 29.5t-20 44t-6.5 54q0 58 28.5 96t85.5 38zM105 -24h40l465 738h-40z" />
    <glyph glyph-name="Scaron" horiz-adv-x="630" 
d="M573 510q-3 59 -25 101t-58.5 68.5t-85 39t-104.5 12.5q-42 0 -85 -10.5t-77.5 -33t-56 -59t-21.5 -87.5t21 -83.5t55 -53t78 -32.5t89 -21q46 -9 89.5 -19.5t78 -28t55.5 -46t21 -73.5q0 -47 -20.5 -78t-51 -50t-67 -27t-68.5 -8q-53 0 -101 11.5t-84 37.5t-55.5 66.5
t-16.5 99.5h-44q-1 -69 22.5 -117t64.5 -78.5t96 -44t118 -13.5q41 0 85.5 10.5t81 34.5t60.5 62t24 94q0 53 -21 87t-55.5 55.5t-78 34t-89.5 21.5q-45 9 -89 19t-78 26.5t-55 43.5t-21 70q0 44 19 73.5t48.5 47t64 24.5t64.5 7q49 0 90.5 -11.5t71.5 -34.5t47.5 -57
t19.5 -80h44zM324 764l116 140h-38l-98 -115l-97 115h-38l115 -140h40z" />
    <glyph glyph-name="Scaron" unicode="&#x160;" horiz-adv-x="630" 
d="M573 510q-3 59 -25 101t-58.5 68.5t-85 39t-104.5 12.5q-42 0 -85 -10.5t-77.5 -33t-56 -59t-21.5 -87.5t21 -83.5t55 -53t78 -32.5t89 -21q46 -9 89.5 -19.5t78 -28t55.5 -46t21 -73.5q0 -47 -20.5 -78t-51 -50t-67 -27t-68.5 -8q-53 0 -101 11.5t-84 37.5t-55.5 66.5
t-16.5 99.5h-44q-1 -69 22.5 -117t64.5 -78.5t96 -44t118 -13.5q41 0 85.5 10.5t81 34.5t60.5 62t24 94q0 53 -21 87t-55.5 55.5t-78 34t-89.5 21.5q-45 9 -89 19t-78 26.5t-55 43.5t-21 70q0 44 19 73.5t48.5 47t64 24.5t64.5 7q49 0 90.5 -11.5t71.5 -34.5t47.5 -57
t19.5 -80h44zM324 764l116 140h-38l-98 -115l-97 115h-38l115 -140h40z" />
    <glyph glyph-name="guilsinglleft" horiz-adv-x="259" 
d="M181 121v49l-85 102l85 100v51l-114 -131v-40z" />
    <glyph glyph-name="guilsinglleft" unicode="&#x2039;" horiz-adv-x="259" 
d="M181 121v49l-85 102l85 100v51l-114 -131v-40z" />
    <glyph glyph-name="Sacute" horiz-adv-x="630" 
d="M573 510q-3 59 -25 101t-58.5 68.5t-85 39t-104.5 12.5q-42 0 -85 -10.5t-77.5 -33t-56 -59t-21.5 -87.5t21 -83.5t55 -53t78 -32.5t89 -21q46 -9 89.5 -19.5t78 -28t55.5 -46t21 -73.5q0 -47 -20.5 -78t-51 -50t-67 -27t-68.5 -8q-53 0 -101 11.5t-84 37.5t-55.5 66.5
t-16.5 99.5h-44q-1 -69 22.5 -117t64.5 -78.5t96 -44t118 -13.5q41 0 85.5 10.5t81 34.5t60.5 62t24 94q0 53 -21 87t-55.5 55.5t-78 34t-89.5 21.5q-45 9 -89 19t-78 26.5t-55 43.5t-21 70q0 44 19 73.5t48.5 47t64 24.5t64.5 7q49 0 90.5 -11.5t71.5 -34.5t47.5 -57
t19.5 -80h44zM258 764h37l134 140h-51z" />
    <glyph glyph-name="Sacute" unicode="&#x15a;" horiz-adv-x="630" 
d="M573 510q-3 59 -25 101t-58.5 68.5t-85 39t-104.5 12.5q-42 0 -85 -10.5t-77.5 -33t-56 -59t-21.5 -87.5t21 -83.5t55 -53t78 -32.5t89 -21q46 -9 89.5 -19.5t78 -28t55.5 -46t21 -73.5q0 -47 -20.5 -78t-51 -50t-67 -27t-68.5 -8q-53 0 -101 11.5t-84 37.5t-55.5 66.5
t-16.5 99.5h-44q-1 -69 22.5 -117t64.5 -78.5t96 -44t118 -13.5q41 0 85.5 10.5t81 34.5t60.5 62t24 94q0 53 -21 87t-55.5 55.5t-78 34t-89.5 21.5q-45 9 -89 19t-78 26.5t-55 43.5t-21 70q0 44 19 73.5t48.5 47t64 24.5t64.5 7q49 0 90.5 -11.5t71.5 -34.5t47.5 -57
t19.5 -80h44zM258 764h37l134 140h-51z" />
    <glyph glyph-name="Tcaron" 
d="M237 676v-676h44v676h252v38h-547v-38h251zM278 764l116 140h-38l-98 -115l-97 115h-38l115 -140h40z" />
    <glyph glyph-name="Tcaron" unicode="&#x164;" 
d="M237 676v-676h44v676h252v38h-547v-38h251zM278 764l116 140h-38l-98 -115l-97 115h-38l115 -140h40z" />
    <glyph glyph-name="Zcaron" horiz-adv-x="537" 
d="M28 676h453l-482 -638v-38h539v38h-493l484 638v38h-501v-38zM289 764l116 140h-38l-98 -115l-97 115h-38l115 -140h40z" />
    <glyph glyph-name="Zcaron" unicode="&#x17d;" horiz-adv-x="537" 
d="M28 676h453l-482 -638v-38h539v38h-493l484 638v38h-501v-38zM289 764l116 140h-38l-98 -115l-97 115h-38l115 -140h40z" />
    <glyph glyph-name="Zacute" horiz-adv-x="537" 
d="M28 676h453l-482 -638v-38h539v38h-493l484 638v38h-501v-38zM221 764h37l134 140h-51z" />
    <glyph glyph-name="Zacute" unicode="&#x179;" horiz-adv-x="537" 
d="M28 676h453l-482 -638v-38h539v38h-493l484 638v38h-501v-38zM221 764h37l134 140h-51z" />
    <glyph glyph-name="quoteleft" horiz-adv-x="204" 
d="M143 714q-37 -14 -50.5 -50t-13.5 -76v-103h51v103h-21q0 10 1 24t5 27.5t10.5 25t17.5 16.5v33z" />
    <glyph glyph-name="quoteleft" unicode="&#x2018;" horiz-adv-x="204" 
d="M143 714q-37 -14 -50.5 -50t-13.5 -76v-103h51v103h-21q0 10 1 24t5 27.5t10.5 25t17.5 16.5v33z" />
    <glyph glyph-name="quoteright" horiz-adv-x="204" 
d="M125 714h-51v-103h21q0 -10 -1 -24t-5 -27.5t-10.5 -25t-17.5 -16.5v-33q37 14 50.5 50t13.5 76v103z" />
    <glyph glyph-name="quoteright" unicode="&#x2019;" horiz-adv-x="204" 
d="M125 714h-51v-103h21q0 -10 -1 -24t-5 -27.5t-10.5 -25t-17.5 -16.5v-33q37 14 50.5 50t13.5 76v103z" />
    <glyph glyph-name="quotedblleft" horiz-adv-x="315" 
d="M128 714q-37 -14 -50.5 -50t-13.5 -76v-103h51v103h-21q0 10 1 24t5 27.5t10.5 25t17.5 16.5v33zM254 714q-37 -14 -50.5 -50t-13.5 -76v-103h51v103h-21q0 10 1 24t5 27.5t10.5 25t17.5 16.5v33z" />
    <glyph glyph-name="quotedblleft" unicode="&#x201c;" horiz-adv-x="315" 
d="M128 714q-37 -14 -50.5 -50t-13.5 -76v-103h51v103h-21q0 10 1 24t5 27.5t10.5 25t17.5 16.5v33zM254 714q-37 -14 -50.5 -50t-13.5 -76v-103h51v103h-21q0 10 1 24t5 27.5t10.5 25t17.5 16.5v33z" />
    <glyph glyph-name="quotedblright" horiz-adv-x="315" 
d="M251 714h-51v-103h21q0 -10 -1 -24t-5 -27.5t-10.5 -25t-17.5 -16.5v-33q37 14 50.5 50t13.5 76v103zM125 714h-51v-103h21q0 -10 -1 -24t-5 -27.5t-10.5 -25t-17.5 -16.5v-33q37 14 50.5 50t13.5 76v103z" />
    <glyph glyph-name="quotedblright" unicode="&#x201d;" horiz-adv-x="315" 
d="M251 714h-51v-103h21q0 -10 -1 -24t-5 -27.5t-10.5 -25t-17.5 -16.5v-33q37 14 50.5 50t13.5 76v103zM125 714h-51v-103h21q0 -10 -1 -24t-5 -27.5t-10.5 -25t-17.5 -16.5v-33q37 14 50.5 50t13.5 76v103z" />
    <glyph glyph-name="bullet" horiz-adv-x="500" 
d="M72 357q0 -37 14 -69.5t38 -57t56.5 -38.5t69.5 -14t69.5 14t57 38.5t38.5 57t14 69.5t-14 69.5t-38.5 56.5t-57 38t-69.5 14t-69.5 -14t-56.5 -38t-38 -56.5t-14 -69.5z" />
    <glyph glyph-name="bullet" unicode="&#x2022;" horiz-adv-x="500" 
d="M72 357q0 -37 14 -69.5t38 -57t56.5 -38.5t69.5 -14t69.5 14t57 38.5t38.5 57t14 69.5t-14 69.5t-38.5 56.5t-57 38t-69.5 14t-69.5 -14t-56.5 -38t-38 -56.5t-14 -69.5z" />
    <glyph glyph-name="endash" horiz-adv-x="500" 
d="M0 253h500v38h-500v-38z" />
    <glyph glyph-name="endash" unicode="&#x2013;" horiz-adv-x="500" 
d="M0 253h500v38h-500v-38z" />
    <glyph glyph-name="emdash" horiz-adv-x="1000" 
d="M130 253h740v38h-740v-38z" />
    <glyph glyph-name="emdash" unicode="&#x2014;" horiz-adv-x="1000" 
d="M130 253h740v38h-740v-38z" />
    <glyph glyph-name="trademark" horiz-adv-x="990" 
d="M404 714h-319v-33h144v-379h32v379h143v33zM542 714h-59v-412h32v379h3l167 -379h18l167 379h3v-379h32v412h-59l-152 -346z" />
    <glyph glyph-name="trademark" unicode="&#x2122;" horiz-adv-x="990" 
d="M404 714h-319v-33h144v-379h32v379h143v33zM542 714h-59v-412h32v379h3l167 -379h18l167 379h3v-379h32v412h-59l-152 -346z" />
    <glyph glyph-name="scaron" horiz-adv-x="481" 
d="M36 171q1 -45 17 -79t44 -57.5t65.5 -35t81.5 -11.5q34 0 69.5 6.5t64.5 23t48 43.5t19 69q0 40 -14 66t-38.5 42.5t-58 26t-71.5 16.5q-31 7 -61.5 14t-55 18.5t-39.5 30.5t-15 50q0 27 13.5 46t34.5 31t47.5 17t52.5 5q32 0 60 -7.5t48 -23t32 -40.5t12 -60h38
q0 44 -14.5 75t-40 51t-60 29t-75.5 9q-33 0 -66 -6.5t-59.5 -21.5t-43.5 -40.5t-17 -63.5q0 -39 15 -64.5t40 -41t57 -24.5t65 -16t64.5 -14t56.5 -19t40 -32t15 -53t-16 -54.5t-40.5 -33.5t-53 -16.5t-53.5 -4.5q-35 0 -65 10t-52.5 29.5t-36.5 47t-16 63.5h-38zM253 591
l116 140h-38l-98 -115l-97 115h-38l115 -140h40z" />
    <glyph glyph-name="scaron" unicode="&#x161;" horiz-adv-x="481" 
d="M36 171q1 -45 17 -79t44 -57.5t65.5 -35t81.5 -11.5q34 0 69.5 6.5t64.5 23t48 43.5t19 69q0 40 -14 66t-38.5 42.5t-58 26t-71.5 16.5q-31 7 -61.5 14t-55 18.5t-39.5 30.5t-15 50q0 27 13.5 46t34.5 31t47.5 17t52.5 5q32 0 60 -7.5t48 -23t32 -40.5t12 -60h38
q0 44 -14.5 75t-40 51t-60 29t-75.5 9q-33 0 -66 -6.5t-59.5 -21.5t-43.5 -40.5t-17 -63.5q0 -39 15 -64.5t40 -41t57 -24.5t65 -16t64.5 -14t56.5 -19t40 -32t15 -53t-16 -54.5t-40.5 -33.5t-53 -16.5t-53.5 -4.5q-35 0 -65 10t-52.5 29.5t-36.5 47t-16 63.5h-38zM253 591
l116 140h-38l-98 -115l-97 115h-38l115 -140h40z" />
    <glyph glyph-name="guilsinglright" horiz-adv-x="259" 
d="M78 121l114 131v40l-114 131v-51l85 -100l-85 -102v-49z" />
    <glyph glyph-name="guilsinglright" unicode="&#x203a;" horiz-adv-x="259" 
d="M78 121l114 131v40l-114 131v-51l85 -100l-85 -102v-49z" />
    <glyph glyph-name="sacute" horiz-adv-x="481" 
d="M36 171q1 -45 17 -79t44 -57.5t65.5 -35t81.5 -11.5q34 0 69.5 6.5t64.5 23t48 43.5t19 69q0 40 -14 66t-38.5 42.5t-58 26t-71.5 16.5q-31 7 -61.5 14t-55 18.5t-39.5 30.5t-15 50q0 27 13.5 46t34.5 31t47.5 17t52.5 5q32 0 60 -7.5t48 -23t32 -40.5t12 -60h38
q0 44 -14.5 75t-40 51t-60 29t-75.5 9q-33 0 -66 -6.5t-59.5 -21.5t-43.5 -40.5t-17 -63.5q0 -39 15 -64.5t40 -41t57 -24.5t65 -16t64.5 -14t56.5 -19t40 -32t15 -53t-16 -54.5t-40.5 -33.5t-53 -16.5t-53.5 -4.5q-35 0 -65 10t-52.5 29.5t-36.5 47t-16 63.5h-38zM187 591
h37l134 140h-51z" />
    <glyph glyph-name="sacute" unicode="&#x15b;" horiz-adv-x="481" 
d="M36 171q1 -45 17 -79t44 -57.5t65.5 -35t81.5 -11.5q34 0 69.5 6.5t64.5 23t48 43.5t19 69q0 40 -14 66t-38.5 42.5t-58 26t-71.5 16.5q-31 7 -61.5 14t-55 18.5t-39.5 30.5t-15 50q0 27 13.5 46t34.5 31t47.5 17t52.5 5q32 0 60 -7.5t48 -23t32 -40.5t12 -60h38
q0 44 -14.5 75t-40 51t-60 29t-75.5 9q-33 0 -66 -6.5t-59.5 -21.5t-43.5 -40.5t-17 -63.5q0 -39 15 -64.5t40 -41t57 -24.5t65 -16t64.5 -14t56.5 -19t40 -32t15 -53t-16 -54.5t-40.5 -33.5t-53 -16.5t-53.5 -4.5q-35 0 -65 10t-52.5 29.5t-36.5 47t-16 63.5h-38zM187 591
h37l134 140h-51z" />
    <glyph glyph-name="tcaron" horiz-adv-x="259" 
d="M245 514h-112v160h-38v-160h-95v-33h95v-359q-2 -44 10.5 -69t33.5 -37.5t48.5 -15t56.5 -0.5v33q-27 -1 -47.5 1.5t-35 11.5t-21.5 27t-7 49v359h112v33zM183 714v-84h20q0 -8 -1 -19t-5 -22t-10.5 -20t-18.5 -12v-23q34 11 46.5 40t12.5 66v74h-44z" />
    <glyph glyph-name="tcaron" unicode="&#x165;" horiz-adv-x="259" 
d="M245 514h-112v160h-38v-160h-95v-33h95v-359q-2 -44 10.5 -69t33.5 -37.5t48.5 -15t56.5 -0.5v33q-27 -1 -47.5 1.5t-35 11.5t-21.5 27t-7 49v359h112v33zM183 714v-84h20q0 -8 -1 -19t-5 -22t-10.5 -20t-18.5 -12v-23q34 11 46.5 40t12.5 66v74h-44z" />
    <glyph glyph-name="zcaron" horiz-adv-x="426" 
d="M55 33l346 445v36h-365v-33h318l-345 -445v-36h408v33h-362zM233 591l116 140h-38l-98 -115l-97 115h-38l115 -140h40z" />
    <glyph glyph-name="zcaron" unicode="&#x17e;" horiz-adv-x="426" 
d="M55 33l346 445v36h-365v-33h318l-345 -445v-36h408v33h-362zM233 591l116 140h-38l-98 -115l-97 115h-38l115 -140h40z" />
    <glyph glyph-name="zacute" horiz-adv-x="426" 
d="M55 33l346 445v36h-365v-33h318l-345 -445v-36h408v33h-362zM164 591h37l134 140h-51z" />
    <glyph glyph-name="zacute" unicode="&#x17a;" horiz-adv-x="426" 
d="M55 33l346 445v36h-365v-33h318l-345 -445v-36h408v33h-362zM164 591h37l134 140h-51z" />
    <glyph glyph-name="caron" unicode="&#xa1;" horiz-adv-x="167" 
d="M97 591l116 140h-38l-98 -115l-97 115h-38l115 -140h40z" />
    <glyph glyph-name="caron" unicode="&#x2c7;" horiz-adv-x="167" 
d="M97 591l116 140h-38l-98 -115l-97 115h-38l115 -140h40z" />
    <glyph glyph-name="breve" unicode="&#xa2;" horiz-adv-x="167" 
d="M186 721q-6 -38 -34 -63.5t-65 -23.5q-15 -2 -31 2t-30.5 14.5t-26.5 28t-18 42.5h-33q7 -57 45.5 -88.5t94.5 -31.5q25 0 47.5 9.5t40 26t29 38.5t14.5 46h-33z" />
    <glyph glyph-name="breve" unicode="&#x2d8;" horiz-adv-x="167" 
d="M186 721q-6 -38 -34 -63.5t-65 -23.5q-15 -2 -31 2t-30.5 14.5t-26.5 28t-18 42.5h-33q7 -57 45.5 -88.5t94.5 -31.5q25 0 47.5 9.5t40 26t29 38.5t14.5 46h-33z" />
    <glyph glyph-name="Lslash" unicode="&#xa3;" horiz-adv-x="500" 
d="M63 714v-409l-85 -51v-38l85 53v-269h449v38h-405v258l235 142v36l-235 -143v383h-44z" />
    <glyph glyph-name="Lslash" unicode="&#x141;" horiz-adv-x="500" 
d="M63 714v-409l-85 -51v-38l85 53v-269h449v38h-405v258l235 142v36l-235 -143v383h-44z" />
    <glyph glyph-name="currency" unicode="&#xa4;" horiz-adv-x="556" 
d="M519 131l-54 54q31 34 46 75.5t15 84.5t-15 84.5t-46 76.5l55 54l-27 27l-54 -55q-35 31 -77 46t-85 15q-43 -1 -84 -16t-76 -44l-56 56l-27 -27l57 -56q-31 -35 -46 -76.5t-15 -84.5q1 -43 16 -84.5t45 -76.5l-56 -55l27 -27l55 56q35 -31 76 -46t84 -15t85 15t77 46
l53 -54zM278 135q-41 0 -78 16.5t-65 45t-44.5 66.5t-16.5 82q0 43 16.5 81.5t44.5 67t65 45t78 16.5t78 -16.5t65 -45t44.5 -67t16.5 -81.5q0 -44 -16.5 -82t-44.5 -66.5t-65 -45t-78 -16.5z" />
    <glyph glyph-name="Aogonek" unicode="&#xa5;" horiz-adv-x="593" 
d="M140 267l159 404h2l153 -404h-314zM-12 0h47l91 229h342l90 -229h10q-35 -20 -56.5 -39.5t-33 -37.5t-15 -32.5t-3.5 -22.5q0 -27 10 -42.5t24.5 -23t29 -9t23.5 -1.5q34 0 57 19.5t34 45.5l-25 8q-13 -22 -27 -31t-35 -9q-16 0 -31.5 12t-15.5 31q0 16 3.5 30.5
t13.5 29.5t27.5 32t44.5 40h12l-282 714h-48z" />
    <glyph glyph-name="Aogonek" unicode="&#x104;" horiz-adv-x="593" 
d="M140 267l159 404h2l153 -404h-314zM-12 0h47l91 229h342l90 -229h10q-35 -20 -56.5 -39.5t-33 -37.5t-15 -32.5t-3.5 -22.5q0 -27 10 -42.5t24.5 -23t29 -9t23.5 -1.5q34 0 57 19.5t34 45.5l-25 8q-13 -22 -27 -31t-35 -9q-16 0 -31.5 12t-15.5 31q0 16 3.5 30.5
t13.5 29.5t27.5 32t44.5 40h12l-282 714h-48z" />
    <glyph glyph-name="brokenbar" unicode="&#xa6;" horiz-adv-x="222" 
d="M92 -89h38v250h-38v-250zM92 411h38v250h-38v-250z" />
    <glyph glyph-name="section" unicode="&#xa7;" horiz-adv-x="556" 
d="M339 359q21 -12 43 -26.5t40.5 -32.5t30.5 -39.5t12 -47.5q0 -24 -10 -44t-25 -34q-8 -6 -18 -12.5t-19.5 -12t-17.5 -8t-12 -1.5q-41 26 -82 51t-83 50q-18 11 -37 23.5t-35 29t-26 36.5t-10 46q0 21 8.5 38.5t22.5 31.5t31 24.5t35 17.5zM449 536q-1 89 -44 142
t-130 53q-32 1 -61.5 -8.5t-53 -28t-37.5 -44.5t-14 -57q-2 -9 0 -24.5t8 -33t17.5 -35t28.5 -29.5q-22 -8 -42 -21t-35.5 -30t-24.5 -38t-9 -45q-2 -37 11.5 -65t38.5 -51.5t58 -44t71 -42.5q33 -18 65.5 -36t58 -39t41 -46.5t15.5 -58.5q0 -55 -35.5 -80t-95.5 -25
q-36 0 -62.5 12.5t-44 34.5t-26.5 51t-10 62h-38q0 -42 12 -77.5t35.5 -61t57 -40t77.5 -14.5q34 0 64.5 7.5t53.5 24t36.5 42.5t13.5 64q0 43 -13.5 69t-43.5 54q48 13 79.5 45.5t31.5 90.5q0 40 -15.5 70t-41 53t-57.5 41.5t-65 35.5t-64.5 34.5t-56.5 38.5t-40.5 47
t-15.5 60q0 24 12 44t30.5 33.5t41 21t44.5 6.5q33 0 59 -14t43.5 -36.5t26 -52t7.5 -59.5h38z" />
    <glyph glyph-name="dieresis" unicode="&#xa8;" horiz-adv-x="167" 
d="M26 611v103h-44v-103h44zM184 611v103h-44v-103h44z" />
    <glyph glyph-name="copyright" unicode="&#xa9;" horiz-adv-x="800" 
d="M401 698q72 0 133.5 -26.5t106 -72t70 -107.5t25.5 -134q0 -71 -25.5 -133t-70.5 -108.5t-106 -73.5t-133 -27t-133.5 26.5t-106.5 73t-71 109t-26 133.5q0 72 25.5 134t70.5 108t107 72t134 26zM599 438q-5 37 -22 66t-42.5 49t-58 30t-68.5 10q-52 0 -93 -17.5
t-70 -48.5t-44.5 -74.5t-15.5 -94.5t16 -94.5t45.5 -75.5t71.5 -50t93 -18q36 0 68 11.5t57.5 32.5t41.5 51t21 66h-38q-14 -57 -51.5 -92.5t-98.5 -35.5q-44 0 -78.5 16.5t-59 44.5t-37.5 65.5t-13 79.5q0 43 12.5 80t36.5 64t58.5 42t78.5 15q58 0 99.5 -32.5t52.5 -89.5
h38zM400 731q-78 0 -146 -29.5t-118.5 -80t-80 -118.5t-29.5 -146t29.5 -146t80 -118.5t118.5 -80t146 -29.5t146 29.5t118.5 80t80 118.5t29.5 146t-29.5 146t-80 118.5t-118.5 80t-146 29.5z" />
    <glyph glyph-name="Scedilla" unicode="&#xaa;" horiz-adv-x="630" 
d="M39 236q-1 -64 19 -110t56 -76t84.5 -46t104.5 -19l-44 -60l16 -13q11 5 24 8.5t29 3.5q7 0 15.5 -2.5t16 -8.5t12.5 -14.5t5 -20.5q0 -27 -20.5 -37t-42.5 -10q-26 0 -44.5 6t-35.5 12l-11 -24q13 -7 35.5 -14t54.5 -7q45 0 73.5 17t28.5 57q0 38 -23 55.5t-52 17.5
q-12 0 -21 -3t-16 -6l-2 2l33 39h6q41 0 85.5 10.5t81 34.5t60.5 62t24 94q0 53 -21 87t-55.5 55.5t-78 34t-89.5 21.5q-45 9 -89 19t-78 26.5t-55 43.5t-21 70q0 44 19 73.5t48.5 47t64 24.5t64.5 7q49 0 90.5 -11.5t71.5 -34.5t47.5 -57t19.5 -80h44q-3 59 -25 101
t-58.5 68.5t-85 39t-104.5 12.5q-42 0 -85 -10.5t-77.5 -33t-56 -59t-21.5 -87.5t21 -83.5t55 -53t78 -32.5t89 -21q46 -9 89.5 -19.5t78 -28t55.5 -46t21 -73.5q0 -47 -20.5 -78t-51 -50t-67 -27t-68.5 -8q-53 0 -101 11.5t-84 37.5t-55.5 66.5t-16.5 99.5h-44z" />
    <glyph glyph-name="Scedilla" unicode="&#xf6c1;" horiz-adv-x="630" 
d="M39 236q-1 -64 19 -110t56 -76t84.5 -46t104.5 -19l-44 -60l16 -13q11 5 24 8.5t29 3.5q7 0 15.5 -2.5t16 -8.5t12.5 -14.5t5 -20.5q0 -27 -20.5 -37t-42.5 -10q-26 0 -44.5 6t-35.5 12l-11 -24q13 -7 35.5 -14t54.5 -7q45 0 73.5 17t28.5 57q0 38 -23 55.5t-52 17.5
q-12 0 -21 -3t-16 -6l-2 2l33 39h6q41 0 85.5 10.5t81 34.5t60.5 62t24 94q0 53 -21 87t-55.5 55.5t-78 34t-89.5 21.5q-45 9 -89 19t-78 26.5t-55 43.5t-21 70q0 44 19 73.5t48.5 47t64 24.5t64.5 7q49 0 90.5 -11.5t71.5 -34.5t47.5 -57t19.5 -80h44q-3 59 -25 101
t-58.5 68.5t-85 39t-104.5 12.5q-42 0 -85 -10.5t-77.5 -33t-56 -59t-21.5 -87.5t21 -83.5t55 -53t78 -32.5t89 -21q46 -9 89.5 -19.5t78 -28t55.5 -46t21 -73.5q0 -47 -20.5 -78t-51 -50t-67 -27t-68.5 -8q-53 0 -101 11.5t-84 37.5t-55.5 66.5t-16.5 99.5h-44z" />
    <glyph glyph-name="Scedilla" unicode="&#x15e;" horiz-adv-x="630" 
d="M39 236q-1 -64 19 -110t56 -76t84.5 -46t104.5 -19l-44 -60l16 -13q11 5 24 8.5t29 3.5q7 0 15.5 -2.5t16 -8.5t12.5 -14.5t5 -20.5q0 -27 -20.5 -37t-42.5 -10q-26 0 -44.5 6t-35.5 12l-11 -24q13 -7 35.5 -14t54.5 -7q45 0 73.5 17t28.5 57q0 38 -23 55.5t-52 17.5
q-12 0 -21 -3t-16 -6l-2 2l33 39h6q41 0 85.5 10.5t81 34.5t60.5 62t24 94q0 53 -21 87t-55.5 55.5t-78 34t-89.5 21.5q-45 9 -89 19t-78 26.5t-55 43.5t-21 70q0 44 19 73.5t48.5 47t64 24.5t64.5 7q49 0 90.5 -11.5t71.5 -34.5t47.5 -57t19.5 -80h44q-3 59 -25 101
t-58.5 68.5t-85 39t-104.5 12.5q-42 0 -85 -10.5t-77.5 -33t-56 -59t-21.5 -87.5t21 -83.5t55 -53t78 -32.5t89 -21q46 -9 89.5 -19.5t78 -28t55.5 -46t21 -73.5q0 -47 -20.5 -78t-51 -50t-67 -27t-68.5 -8q-53 0 -101 11.5t-84 37.5t-55.5 66.5t-16.5 99.5h-44z" />
    <glyph glyph-name="guillemotleft" unicode="&#xab;" horiz-adv-x="389" 
d="M181 121v49l-85 102l85 100v51l-114 -131v-40zM309 121v49l-85 102l85 100v51l-114 -131v-40z" />
    <glyph glyph-name="registered" unicode="&#xae;" horiz-adv-x="800" 
d="M332 434h19v102h58l66 -102h21l-66 101q24 4 40.5 18t16.5 41q0 30 -17 45.5t-55 15.5h-83v-221zM351 638h61q20 0 38 -9t18 -35q0 -14 -6 -22.5t-16 -13t-22.5 -5.5t-25.5 -1h-47v86zM401 715q36 0 66.5 -13t53 -36t35 -54t12.5 -67t-12.5 -67t-35 -54t-53 -36.5
t-66.5 -13.5t-67 13.5t-53.5 36.5t-35.5 54t-13 66q0 36 13 67.5t35.5 54.5t53.5 36t67 13zM400 731q-39 0 -73 -14.5t-59.5 -40t-40 -59.5t-14.5 -73t14.5 -73t40 -59.5t59.5 -40t73 -14.5t73 14.5t59.5 40t40 59.5t14.5 73t-14.5 73t-40 59.5t-59.5 40t-73 14.5z" />
    <glyph glyph-name="Zdotaccent" unicode="&#xaf;" horiz-adv-x="537" 
d="M28 676h453l-482 -638v-38h539v38h-493l484 638v38h-501v-38zM290 784v103h-44v-103h44z" />
    <glyph glyph-name="Zdotaccent" unicode="&#x17b;" horiz-adv-x="537" 
d="M28 676h453l-482 -638v-38h539v38h-493l484 638v38h-501v-38zM290 784v103h-44v-103h44z" />
    <glyph glyph-name="degree" unicode="&#xb0;" horiz-adv-x="400" 
d="M200 669q22 0 41.5 -9t33.5 -24t22 -35t8 -42q0 -23 -8 -43t-22 -35t-33.5 -23.5t-41.5 -8.5q-23 0 -42 8.5t-33 23.5t-22 35t-8 43q0 22 8 42t22 35t33 24t42 9zM200 416q30 0 56 11t45.5 30.5t30.5 45.5t11 56t-11 56t-30.5 45.5t-45.5 30.5t-56 11t-56 -11
t-45.5 -30.5t-30.5 -45.5t-11 -56t11 -56t30.5 -45.5t45.5 -30.5t56 -11z" />
    <glyph glyph-name="plusminus" unicode="&#xb1;" horiz-adv-x="600" 
d="M281 315h-233v-38h233v-189h38v189h233v38h-233v189h-38v-189zM48 0h504v38h-504v-38z" />
    <glyph glyph-name="ogonek" unicode="&#xb2;" horiz-adv-x="167" 
d="M112 1q-36 -20 -57.5 -40t-33.5 -38t-15.5 -32.5t-3.5 -22.5q0 -27 10 -42.5t24.5 -23t29 -9t23.5 -1.5q34 0 57 19.5t34 45.5l-25 8q-13 -22 -27 -31t-35 -9q-16 0 -31.5 12t-15.5 31q0 16 3.5 30.5t13.5 29.5t27.5 32.5t45.5 40.5h-24z" />
    <glyph glyph-name="ogonek" unicode="&#x2db;" horiz-adv-x="167" 
d="M112 1q-36 -20 -57.5 -40t-33.5 -38t-15.5 -32.5t-3.5 -22.5q0 -27 10 -42.5t24.5 -23t29 -9t23.5 -1.5q34 0 57 19.5t34 45.5l-25 8q-13 -22 -27 -31t-35 -9q-16 0 -31.5 12t-15.5 31q0 16 3.5 30.5t13.5 29.5t27.5 32.5t45.5 40.5h-24z" />
    <glyph glyph-name="lslash" unicode="&#xb3;" horiz-adv-x="168" 
d="M65 334l-65 -51v-33l65 51v-301h38v331l65 51v33l-65 -51v350h-38v-380z" />
    <glyph glyph-name="lslash" unicode="&#x142;" horiz-adv-x="168" 
d="M65 334l-65 -51v-33l65 51v-301h38v331l65 51v33l-65 -51v350h-38v-380z" />
    <glyph glyph-name="acute" unicode="&#xb4;" horiz-adv-x="167" 
d="M26 591h37l134 140h-51z" />
    <glyph glyph-name="mu" unicode="&#xb5;" 
d="M463 514h-38v-278q0 -47 -12.5 -86.5t-36.5 -68t-58.5 -44.5t-77.5 -16q-53 0 -82 19t-43.5 45.5t-17.5 55t-3 48.5v325h-38v-698h38v228h2q25 -32 63.5 -44t79.5 -12q30 0 59 8t53.5 24t43 38.5t28.5 51.5h2v-110h38v514z" />
    <glyph glyph-name="mu" unicode="&#x3bc;" 
d="M463 514h-38v-278q0 -47 -12.5 -86.5t-36.5 -68t-58.5 -44.5t-77.5 -16q-53 0 -82 19t-43.5 45.5t-17.5 55t-3 48.5v325h-38v-698h38v228h2q25 -32 63.5 -44t79.5 -12q30 0 59 8t53.5 24t43 38.5t28.5 51.5h2v-110h38v514z" />
    <glyph glyph-name="paragraph" unicode="&#xb6;" horiz-adv-x="600" 
d="M273 -146h38v827h157v-827h38v860h-217q-106 0 -164.5 -49.5t-58.5 -146.5q0 -39 16 -74.5t43.5 -62t65.5 -42t82 -15.5v-470z" />
    <glyph glyph-name="periodcentered" unicode="&#xb7;" horiz-adv-x="278" 
d="M85 317q0 -21 16 -38t38 -17t38.5 16.5t16.5 38.5t-17 38t-38 16t-37.5 -16.5t-16.5 -37.5z" />
    <glyph glyph-name="periodcentered" unicode="&#x22c5;" horiz-adv-x="278" 
d="M85 317q0 -21 16 -38t38 -17t38.5 16.5t16.5 38.5t-17 38t-38 16t-37.5 -16.5t-16.5 -37.5z" />
    <glyph glyph-name="cedilla" unicode="&#xb8;" horiz-adv-x="167" 
d="M83 1l-56 -76l16 -13q11 5 24 8.5t29 3.5q7 0 15.5 -2.5t16 -8.5t12.5 -14.5t5 -20.5q0 -27 -20.5 -37t-42.5 -10q-26 0 -44.5 6t-35.5 12l-11 -24q13 -7 35.5 -14t54.5 -7q45 0 73.5 17t28.5 57q0 38 -23 55.5t-52 17.5q-12 0 -21 -3t-16 -6l-2 2l48 57h-34z" />
    <glyph glyph-name="aogonek" unicode="&#xb9;" horiz-adv-x="500" 
d="M397 196q0 -10 -5.5 -38.5t-25.5 -59t-58 -54t-103 -23.5q-68 0 -101.5 32.5t-33.5 79.5q0 58 36.5 84.5t104.5 34.5q28 4 56 6t53.5 5t45.5 9.5t31 19.5v-96zM435 392q0 40 -15.5 66t-41 41t-57.5 21t-66 6q-91 0 -141.5 -42.5t-54.5 -127.5h38q4 67 46.5 102t111.5 35
q44 0 72 -10t43.5 -25t21.5 -33t6 -33q0 -32 -4 -50.5t-21 -30t-52.5 -17t-99.5 -9.5q-32 -3 -65.5 -10t-61 -23.5t-45 -45t-17.5 -73.5q0 -41 13 -68.5t36.5 -44.5t55 -24.5t67.5 -7.5q37 0 68 9t55.5 25t41.5 36.5t26 43.5h2v-27q0 -26 7.5 -45t33.5 -26
q-36 -21 -57.5 -41.5t-33 -39t-15 -33t-3.5 -22.5q0 -27 10 -42.5t24.5 -23t29 -9t23.5 -1.5q34 0 57 19.5t34 45.5l-25 8q-13 -22 -27 -31t-35 -9q-16 0 -31.5 12t-15.5 31q0 16 3.5 30t13 29t26.5 32.5t44 40.5h6q8 0 15.5 1t15.5 3v32q-18 -3 -28 -3q-13 0 -20 5.5
t-10 14.5t-3.5 20t-0.5 22v297z" />
    <glyph glyph-name="aogonek" unicode="&#x105;" horiz-adv-x="500" 
d="M397 196q0 -10 -5.5 -38.5t-25.5 -59t-58 -54t-103 -23.5q-68 0 -101.5 32.5t-33.5 79.5q0 58 36.5 84.5t104.5 34.5q28 4 56 6t53.5 5t45.5 9.5t31 19.5v-96zM435 392q0 40 -15.5 66t-41 41t-57.5 21t-66 6q-91 0 -141.5 -42.5t-54.5 -127.5h38q4 67 46.5 102t111.5 35
q44 0 72 -10t43.5 -25t21.5 -33t6 -33q0 -32 -4 -50.5t-21 -30t-52.5 -17t-99.5 -9.5q-32 -3 -65.5 -10t-61 -23.5t-45 -45t-17.5 -73.5q0 -41 13 -68.5t36.5 -44.5t55 -24.5t67.5 -7.5q37 0 68 9t55.5 25t41.5 36.5t26 43.5h2v-27q0 -26 7.5 -45t33.5 -26
q-36 -21 -57.5 -41.5t-33 -39t-15 -33t-3.5 -22.5q0 -27 10 -42.5t24.5 -23t29 -9t23.5 -1.5q34 0 57 19.5t34 45.5l-25 8q-13 -22 -27 -31t-35 -9q-16 0 -31.5 12t-15.5 31q0 16 3.5 30t13 29t26.5 32.5t44 40.5h6q8 0 15.5 1t15.5 3v32q-18 -3 -28 -3q-13 0 -20 5.5
t-10 14.5t-3.5 20t-0.5 22v297z" />
    <glyph glyph-name="scedilla" unicode="&#xba;" horiz-adv-x="481" 
d="M36 171q1 -42 15.5 -75t39.5 -56t59 -35.5t75 -15.5l-47 -64l16 -13q11 5 24 8.5t29 3.5q7 0 15.5 -2.5t16 -8.5t12.5 -14.5t5 -20.5q0 -27 -20.5 -37t-42.5 -10q-26 0 -44.5 6t-35.5 12l-11 -24q13 -7 35.5 -14t54.5 -7q45 0 73.5 17t28.5 57q0 38 -23 55.5t-52 17.5
q-12 0 -21 -3t-16 -6l-2 2l38 45q33 1 66 8t60 23.5t44 43.5t17 66q0 40 -14 66t-38.5 42.5t-58 26t-71.5 16.5q-31 7 -61.5 14t-55 18.5t-39.5 30.5t-15 50q0 27 13.5 46t34.5 31t47.5 17t52.5 5q32 0 60 -7.5t48 -23t32 -40.5t12 -60h38q0 44 -14.5 75t-40 51t-60 29
t-75.5 9q-33 0 -66 -6.5t-59.5 -21.5t-43.5 -40.5t-17 -63.5q0 -39 15 -64.5t40 -41t57 -24.5t65 -16t64.5 -14t56.5 -19t40 -32t15 -53t-16 -54.5t-40.5 -33.5t-53 -16.5t-53.5 -4.5q-35 0 -65 10t-52.5 29.5t-36.5 47t-16 63.5h-38z" />
    <glyph glyph-name="scedilla" unicode="&#xf6c2;" horiz-adv-x="481" 
d="M36 171q1 -42 15.5 -75t39.5 -56t59 -35.5t75 -15.5l-47 -64l16 -13q11 5 24 8.5t29 3.5q7 0 15.5 -2.5t16 -8.5t12.5 -14.5t5 -20.5q0 -27 -20.5 -37t-42.5 -10q-26 0 -44.5 6t-35.5 12l-11 -24q13 -7 35.5 -14t54.5 -7q45 0 73.5 17t28.5 57q0 38 -23 55.5t-52 17.5
q-12 0 -21 -3t-16 -6l-2 2l38 45q33 1 66 8t60 23.5t44 43.5t17 66q0 40 -14 66t-38.5 42.5t-58 26t-71.5 16.5q-31 7 -61.5 14t-55 18.5t-39.5 30.5t-15 50q0 27 13.5 46t34.5 31t47.5 17t52.5 5q32 0 60 -7.5t48 -23t32 -40.5t12 -60h38q0 44 -14.5 75t-40 51t-60 29
t-75.5 9q-33 0 -66 -6.5t-59.5 -21.5t-43.5 -40.5t-17 -63.5q0 -39 15 -64.5t40 -41t57 -24.5t65 -16t64.5 -14t56.5 -19t40 -32t15 -53t-16 -54.5t-40.5 -33.5t-53 -16.5t-53.5 -4.5q-35 0 -65 10t-52.5 29.5t-36.5 47t-16 63.5h-38z" />
    <glyph glyph-name="scedilla" unicode="&#x15f;" horiz-adv-x="481" 
d="M36 171q1 -42 15.5 -75t39.5 -56t59 -35.5t75 -15.5l-47 -64l16 -13q11 5 24 8.5t29 3.5q7 0 15.5 -2.5t16 -8.5t12.5 -14.5t5 -20.5q0 -27 -20.5 -37t-42.5 -10q-26 0 -44.5 6t-35.5 12l-11 -24q13 -7 35.5 -14t54.5 -7q45 0 73.5 17t28.5 57q0 38 -23 55.5t-52 17.5
q-12 0 -21 -3t-16 -6l-2 2l38 45q33 1 66 8t60 23.5t44 43.5t17 66q0 40 -14 66t-38.5 42.5t-58 26t-71.5 16.5q-31 7 -61.5 14t-55 18.5t-39.5 30.5t-15 50q0 27 13.5 46t34.5 31t47.5 17t52.5 5q32 0 60 -7.5t48 -23t32 -40.5t12 -60h38q0 44 -14.5 75t-40 51t-60 29
t-75.5 9q-33 0 -66 -6.5t-59.5 -21.5t-43.5 -40.5t-17 -63.5q0 -39 15 -64.5t40 -41t57 -24.5t65 -16t64.5 -14t56.5 -19t40 -32t15 -53t-16 -54.5t-40.5 -33.5t-53 -16.5t-53.5 -4.5q-35 0 -65 10t-52.5 29.5t-36.5 47t-16 63.5h-38z" />
    <glyph glyph-name="guillemotright" unicode="&#xbb;" horiz-adv-x="389" 
d="M80 121l114 131v40l-114 131v-51l85 -100l-85 -102v-49zM208 121l114 131v40l-114 131v-51l85 -100l-85 -102v-49z" />
    <glyph glyph-name="Lcaron" unicode="&#xbc;" horiz-adv-x="500" 
d="M63 0h449v38h-405v676h-44v-714zM212 714v-93h20q0 -9 -1 -21.5t-5 -24.5t-10.5 -22t-18.5 -14v-25q34 11 46.5 43.5t12.5 74.5v82h-44z" />
    <glyph glyph-name="Lcaron" unicode="&#x13d;" horiz-adv-x="500" 
d="M63 0h449v38h-405v676h-44v-714zM212 714v-93h20q0 -9 -1 -21.5t-5 -24.5t-10.5 -22t-18.5 -14v-25q34 11 46.5 43.5t12.5 74.5v82h-44z" />
    <glyph glyph-name="hungarumlaut" unicode="&#xbd;" horiz-adv-x="167" 
d="M-19 591l134 140h-51l-120 -140h37zM139 591l134 140h-51l-120 -140h37z" />
    <glyph glyph-name="hungarumlaut" unicode="&#x2dd;" horiz-adv-x="167" 
d="M-19 591l134 140h-51l-120 -140h37zM139 591l134 140h-51l-120 -140h37z" />
    <glyph glyph-name="lcaron" unicode="&#xbe;" horiz-adv-x="185" 
d="M65 0h38v714h-38v-714zM153 714v-93h20q0 -9 -1 -21.5t-5 -24.5t-10.5 -22t-18.5 -14v-25q34 11 46.5 43.5t12.5 74.5v82h-44z" />
    <glyph glyph-name="lcaron" unicode="&#x13e;" horiz-adv-x="185" 
d="M65 0h38v714h-38v-714zM153 714v-93h20q0 -9 -1 -21.5t-5 -24.5t-10.5 -22t-18.5 -14v-25q34 11 46.5 43.5t12.5 74.5v82h-44z" />
    <glyph glyph-name="zdotaccent" unicode="&#xbf;" horiz-adv-x="426" 
d="M55 33l346 445v36h-365v-33h318l-345 -445v-36h408v33h-362zM243 611v103h-44v-103h44z" />
    <glyph glyph-name="zdotaccent" unicode="&#x17c;" horiz-adv-x="426" 
d="M55 33l346 445v36h-365v-33h318l-345 -445v-36h408v33h-362zM243 611v103h-44v-103h44z" />
    <glyph glyph-name="Racute" unicode="&#xc0;" horiz-adv-x="630" 
d="M107 363v313h254q36 0 69 -8t58 -26t40 -46.5t15 -68.5q0 -43 -14 -74t-38 -51t-57.5 -29.5t-72.5 -9.5h-254zM63 0h44v325h254q47 0 78 -10t49.5 -27t28 -39.5t12.5 -48.5t2.5 -53.5t0 -54t3.5 -50.5t13 -42h49q-11 14 -15 35.5t-5 47t-1 53.5t-3 56t-10 53.5t-22.5 46
t-41 34.5t-65.5 19v2q72 12 112.5 61.5t40.5 121.5q0 52 -17.5 87t-48.5 56.5t-72 31t-88 9.5h-298v-714zM258 764h37l134 140h-51z" />
    <glyph glyph-name="Racute" unicode="&#x154;" horiz-adv-x="630" 
d="M107 363v313h254q36 0 69 -8t58 -26t40 -46.5t15 -68.5q0 -43 -14 -74t-38 -51t-57.5 -29.5t-72.5 -9.5h-254zM63 0h44v325h254q47 0 78 -10t49.5 -27t28 -39.5t12.5 -48.5t2.5 -53.5t0 -54t3.5 -50.5t13 -42h49q-11 14 -15 35.5t-5 47t-1 53.5t-3 56t-10 53.5t-22.5 46
t-41 34.5t-65.5 19v2q72 12 112.5 61.5t40.5 121.5q0 52 -17.5 87t-48.5 56.5t-72 31t-88 9.5h-298v-714zM258 764h37l134 140h-51z" />
    <glyph glyph-name="Aacute" unicode="&#xc1;" horiz-adv-x="593" 
d="M275 714l-287 -714h47l91 229h342l90 -229h47l-282 714h-48zM140 267l159 404h2l153 -404h-314zM289 764h37l134 140h-51z" />
    <glyph glyph-name="Acircumflex" unicode="&#xc2;" horiz-adv-x="593" 
d="M275 714l-287 -714h47l91 229h342l90 -229h47l-282 714h-48zM140 267l159 404h2l153 -404h-314zM276 904l-115 -140h38l97 115l98 -115h38l-116 140h-40z" />
    <glyph glyph-name="Abreve" unicode="&#xc3;" horiz-adv-x="593" 
d="M275 714l-287 -714h47l91 229h342l90 -229h47l-282 714h-48zM140 267l159 404h2l153 -404h-314zM399 894q-6 -38 -34 -63.5t-65 -23.5q-15 -2 -31 2t-30.5 14.5t-26.5 28t-18 42.5h-33q7 -57 45.5 -88.5t94.5 -31.5q25 0 47.5 9.5t40 26t29 38.5t14.5 46h-33z" />
    <glyph glyph-name="Abreve" unicode="&#x102;" horiz-adv-x="593" 
d="M275 714l-287 -714h47l91 229h342l90 -229h47l-282 714h-48zM140 267l159 404h2l153 -404h-314zM399 894q-6 -38 -34 -63.5t-65 -23.5q-15 -2 -31 2t-30.5 14.5t-26.5 28t-18 42.5h-33q7 -57 45.5 -88.5t94.5 -31.5q25 0 47.5 9.5t40 26t29 38.5t14.5 46h-33z" />
    <glyph glyph-name="Adieresis" unicode="&#xc4;" horiz-adv-x="593" 
d="M275 714l-287 -714h47l91 229h342l90 -229h47l-282 714h-48zM140 267l159 404h2l153 -404h-314zM239 784v103h-44v-103h44zM397 784v103h-44v-103h44z" />
    <glyph glyph-name="Lacute" unicode="&#xc5;" horiz-adv-x="500" 
d="M63 0h449v38h-405v676h-44v-714zM65 764h37l134 140h-51z" />
    <glyph glyph-name="Lacute" unicode="&#x139;" horiz-adv-x="500" 
d="M63 0h449v38h-405v676h-44v-714zM65 764h37l134 140h-51z" />
    <glyph glyph-name="Cacute" unicode="&#xc6;" horiz-adv-x="704" 
d="M663 501q0 2 -4 20.5t-14.5 44t-30.5 54.5t-51.5 53.5t-77.5 41t-109 16.5q-80 0 -143.5 -29t-107 -79.5t-66.5 -119t-23 -146.5t23 -146.5t66.5 -119t107 -79.5t143.5 -29q59 0 111 22t91.5 61.5t65 93.5t31.5 118h-44q-3 -50 -23.5 -96.5t-54.5 -82t-79.5 -57
t-97.5 -21.5q-70 0 -125 27t-93 72.5t-58 106.5t-20 130t20 130t58 106.5t93 72.5t125 27q45 0 85.5 -13t73.5 -38t55 -60.5t29 -80.5h44zM325 764h37l134 140h-51z" />
    <glyph glyph-name="Cacute" unicode="&#x106;" horiz-adv-x="704" 
d="M663 501q0 2 -4 20.5t-14.5 44t-30.5 54.5t-51.5 53.5t-77.5 41t-109 16.5q-80 0 -143.5 -29t-107 -79.5t-66.5 -119t-23 -146.5t23 -146.5t66.5 -119t107 -79.5t143.5 -29q59 0 111 22t91.5 61.5t65 93.5t31.5 118h-44q-3 -50 -23.5 -96.5t-54.5 -82t-79.5 -57
t-97.5 -21.5q-70 0 -125 27t-93 72.5t-58 106.5t-20 130t20 130t58 106.5t93 72.5t125 27q45 0 85.5 -13t73.5 -38t55 -60.5t29 -80.5h44zM325 764h37l134 140h-51z" />
    <glyph glyph-name="Ccedilla" unicode="&#xc7;" horiz-adv-x="704" 
d="M663 501q0 2 -4 20.5t-14.5 44t-30.5 54.5t-51.5 53.5t-77.5 41t-109 16.5q-80 0 -143.5 -29t-107 -79.5t-66.5 -119t-23 -146.5q0 -74 20.5 -139t59.5 -114.5t95.5 -81t128.5 -37.5l-44 -60l16 -13q11 5 24 8.5t29 3.5q7 0 15.5 -2.5t16 -8.5t12.5 -14.5t5 -20.5
q0 -27 -20.5 -37t-42.5 -10q-26 0 -44.5 6t-35.5 12l-11 -24q13 -7 35.5 -14t54.5 -7q45 0 73.5 17t28.5 57q0 38 -23 55.5t-52 17.5q-12 0 -21 -3t-16 -6l-2 2l33 39h5q59 0 111 22t91.5 61.5t65 93.5t31.5 118h-44q-3 -50 -23.5 -96.5t-54.5 -82t-79.5 -57t-97.5 -21.5
q-70 0 -125 27t-93 72.5t-58 106.5t-20 130t20 130t58 106.5t93 72.5t125 27q45 0 85.5 -13t73.5 -38t55 -60.5t29 -80.5h44z" />
    <glyph glyph-name="Ccaron" unicode="&#xc8;" horiz-adv-x="704" 
d="M663 501q0 2 -4 20.5t-14.5 44t-30.5 54.5t-51.5 53.5t-77.5 41t-109 16.5q-80 0 -143.5 -29t-107 -79.5t-66.5 -119t-23 -146.5t23 -146.5t66.5 -119t107 -79.5t143.5 -29q59 0 111 22t91.5 61.5t65 93.5t31.5 118h-44q-3 -50 -23.5 -96.5t-54.5 -82t-79.5 -57
t-97.5 -21.5q-70 0 -125 27t-93 72.5t-58 106.5t-20 130t20 130t58 106.5t93 72.5t125 27q45 0 85.5 -13t73.5 -38t55 -60.5t29 -80.5h44zM396 764l116 140h-38l-98 -115l-97 115h-38l115 -140h40z" />
    <glyph glyph-name="Ccaron" unicode="&#x10c;" horiz-adv-x="704" 
d="M663 501q0 2 -4 20.5t-14.5 44t-30.5 54.5t-51.5 53.5t-77.5 41t-109 16.5q-80 0 -143.5 -29t-107 -79.5t-66.5 -119t-23 -146.5t23 -146.5t66.5 -119t107 -79.5t143.5 -29q59 0 111 22t91.5 61.5t65 93.5t31.5 118h-44q-3 -50 -23.5 -96.5t-54.5 -82t-79.5 -57
t-97.5 -21.5q-70 0 -125 27t-93 72.5t-58 106.5t-20 130t20 130t58 106.5t93 72.5t125 27q45 0 85.5 -13t73.5 -38t55 -60.5t29 -80.5h44zM396 764l116 140h-38l-98 -115l-97 115h-38l115 -140h40z" />
    <glyph glyph-name="Eacute" unicode="&#xc9;" horiz-adv-x="560" 
d="M107 38v314h410v38h-410v286h436v38h-480v-714h485v38h-441zM230 764h37l134 140h-51z" />
    <glyph glyph-name="Eogonek" unicode="&#xca;" horiz-adv-x="560" 
d="M63 0h460q-35 -20 -56.5 -39.5t-33 -37.5t-15 -32.5t-3.5 -22.5q0 -27 10 -42.5t24.5 -23t29 -9t23.5 -1.5q34 0 57 19.5t34 45.5l-25 8q-13 -22 -27 -31t-35 -9q-16 0 -31.5 12t-15.5 31q0 16 3.5 30.5t13.5 29.5t27.5 32t44.5 40v38h-441v314h410v38h-410v286h436v38
h-480v-714z" />
    <glyph glyph-name="Eogonek" unicode="&#x118;" horiz-adv-x="560" 
d="M63 0h460q-35 -20 -56.5 -39.5t-33 -37.5t-15 -32.5t-3.5 -22.5q0 -27 10 -42.5t24.5 -23t29 -9t23.5 -1.5q34 0 57 19.5t34 45.5l-25 8q-13 -22 -27 -31t-35 -9q-16 0 -31.5 12t-15.5 31q0 16 3.5 30.5t13.5 29.5t27.5 32t44.5 40v38h-441v314h410v38h-410v286h436v38
h-480v-714z" />
    <glyph glyph-name="Edieresis" unicode="&#xcb;" horiz-adv-x="560" 
d="M107 38v314h410v38h-410v286h436v38h-480v-714h485v38h-441zM246 784v103h-44v-103h44zM404 784v103h-44v-103h44z" />
    <glyph glyph-name="Ecaron" unicode="&#xcc;" horiz-adv-x="560" 
d="M107 38v314h410v38h-410v286h436v38h-480v-714h485v38h-441zM324 764l116 140h-38l-98 -115l-97 115h-38l115 -140h40z" />
    <glyph glyph-name="Ecaron" unicode="&#x11a;" horiz-adv-x="560" 
d="M107 38v314h410v38h-410v286h436v38h-480v-714h485v38h-441zM324 764l116 140h-38l-98 -115l-97 115h-38l115 -140h40z" />
    <glyph glyph-name="Iacute" unicode="&#xcd;" horiz-adv-x="170" 
d="M63 0h44v714h-44v-714zM26 764h37l134 140h-51z" />
    <glyph glyph-name="Icircumflex" unicode="&#xce;" horiz-adv-x="170" 
d="M63 0h44v714h-44v-714zM65 904l-115 -140h38l97 115l98 -115h38l-116 140h-40z" />
    <glyph glyph-name="Dcaron" unicode="&#xcf;" horiz-adv-x="667" 
d="M107 676h183q26 0 58.5 -3.5t65 -14.5t63 -31.5t54 -56t38 -87.5t14.5 -125q0 -93 -25.5 -154.5t-66.5 -98t-91.5 -52t-100.5 -15.5h-192v638zM63 0h232q86 0 148.5 27.5t103.5 75.5t60.5 113.5t19.5 141.5q0 68 -15.5 132t-53.5 114t-101.5 80t-159.5 30h-234v-714z
M325 764l116 140h-38l-98 -115l-97 115h-38l115 -140h40z" />
    <glyph glyph-name="Dcaron" unicode="&#x10e;" horiz-adv-x="667" 
d="M107 676h183q26 0 58.5 -3.5t65 -14.5t63 -31.5t54 -56t38 -87.5t14.5 -125q0 -93 -25.5 -154.5t-66.5 -98t-91.5 -52t-100.5 -15.5h-192v638zM63 0h232q86 0 148.5 27.5t103.5 75.5t60.5 113.5t19.5 141.5q0 68 -15.5 132t-53.5 114t-101.5 80t-159.5 30h-234v-714z
M325 764l116 140h-38l-98 -115l-97 115h-38l115 -140h40z" />
    <glyph glyph-name="Dcroat" unicode="&#xd0;" horiz-adv-x="667" 
d="M63 396h-68v-33h68v-363h232q86 0 148.5 27.5t103.5 75.5t60.5 113.5t19.5 141.5q0 68 -15.5 132t-53.5 114t-101.5 80t-159.5 30h-234v-318zM107 396v280h183q26 0 58.5 -3.5t65 -14.5t63 -31.5t54 -56t38 -87.5t14.5 -125q0 -93 -25.5 -154.5t-66.5 -98t-91.5 -52
t-100.5 -15.5h-192v325h264v33h-264z" />
    <glyph glyph-name="Dcroat" unicode="&#x110;" horiz-adv-x="667" 
d="M63 396h-68v-33h68v-363h232q86 0 148.5 27.5t103.5 75.5t60.5 113.5t19.5 141.5q0 68 -15.5 132t-53.5 114t-101.5 80t-159.5 30h-234v-318zM107 396v280h183q26 0 58.5 -3.5t65 -14.5t63 -31.5t54 -56t38 -87.5t14.5 -125q0 -93 -25.5 -154.5t-66.5 -98t-91.5 -52
t-100.5 -15.5h-192v325h264v33h-264z" />
    <glyph glyph-name="Nacute" unicode="&#xd1;" horiz-adv-x="678" 
d="M63 0h44v660h2l454 -660h52v714h-44v-655h-2l-451 655h-55v-714zM282 764h37l134 140h-51z" />
    <glyph glyph-name="Nacute" unicode="&#x143;" horiz-adv-x="678" 
d="M63 0h44v660h2l454 -660h52v714h-44v-655h-2l-451 655h-55v-714zM282 764h37l134 140h-51z" />
    <glyph glyph-name="Ncaron" unicode="&#xd2;" horiz-adv-x="678" 
d="M63 0h44v660h2l454 -660h52v714h-44v-655h-2l-451 655h-55v-714zM363 764l116 140h-38l-98 -115l-97 115h-38l115 -140h40z" />
    <glyph glyph-name="Ncaron" unicode="&#x147;" horiz-adv-x="678" 
d="M63 0h44v660h2l454 -660h52v714h-44v-655h-2l-451 655h-55v-714zM363 764l116 140h-38l-98 -115l-97 115h-38l115 -140h40z" />
    <glyph glyph-name="Oacute" unicode="&#xd3;" horiz-adv-x="741" 
d="M710 357q0 78 -23 146.5t-66.5 119t-106.5 79.5t-143 29t-143.5 -29t-107 -79.5t-66.5 -119t-23 -146.5t23 -146.5t66.5 -119t107 -79.5t143.5 -29t143 29t106.5 79.5t66.5 119t23 146.5zM75 357q0 69 20 130t58 106.5t93 72.5t125 27t124.5 -27t92.5 -72.5t58 -106.5
t20 -130t-20 -130t-58 -106.5t-92.5 -72.5t-124.5 -27t-125 27t-93 72.5t-58 106.5t-20 130zM278 764h37l134 140h-51z" />
    <glyph glyph-name="Ocircumflex" unicode="&#xd4;" horiz-adv-x="741" 
d="M710 357q0 78 -23 146.5t-66.5 119t-106.5 79.5t-143 29t-143.5 -29t-107 -79.5t-66.5 -119t-23 -146.5t23 -146.5t66.5 -119t107 -79.5t143.5 -29t143 29t106.5 79.5t66.5 119t23 146.5zM75 357q0 69 20 130t58 106.5t93 72.5t125 27t124.5 -27t92.5 -72.5t58 -106.5
t20 -130t-20 -130t-58 -106.5t-92.5 -72.5t-124.5 -27t-125 27t-93 72.5t-58 106.5t-20 130zM350 904l-115 -140h38l97 115l98 -115h38l-116 140h-40z" />
    <glyph glyph-name="Ohungarumlaut" unicode="&#xd5;" horiz-adv-x="741" 
d="M710 357q0 78 -23 146.5t-66.5 119t-106.5 79.5t-143 29t-143.5 -29t-107 -79.5t-66.5 -119t-23 -146.5t23 -146.5t66.5 -119t107 -79.5t143.5 -29t143 29t106.5 79.5t66.5 119t23 146.5zM75 357q0 69 20 130t58 106.5t93 72.5t125 27t124.5 -27t92.5 -72.5t58 -106.5
t20 -130t-20 -130t-58 -106.5t-92.5 -72.5t-124.5 -27t-125 27t-93 72.5t-58 106.5t-20 130zM288 764l134 140h-51l-120 -140h37zM446 764l134 140h-51l-120 -140h37z" />
    <glyph glyph-name="Ohungarumlaut" unicode="&#x150;" horiz-adv-x="741" 
d="M710 357q0 78 -23 146.5t-66.5 119t-106.5 79.5t-143 29t-143.5 -29t-107 -79.5t-66.5 -119t-23 -146.5t23 -146.5t66.5 -119t107 -79.5t143.5 -29t143 29t106.5 79.5t66.5 119t23 146.5zM75 357q0 69 20 130t58 106.5t93 72.5t125 27t124.5 -27t92.5 -72.5t58 -106.5
t20 -130t-20 -130t-58 -106.5t-92.5 -72.5t-124.5 -27t-125 27t-93 72.5t-58 106.5t-20 130zM288 764l134 140h-51l-120 -140h37zM446 764l134 140h-51l-120 -140h37z" />
    <glyph glyph-name="Odieresis" unicode="&#xd6;" horiz-adv-x="741" 
d="M710 357q0 78 -23 146.5t-66.5 119t-106.5 79.5t-143 29t-143.5 -29t-107 -79.5t-66.5 -119t-23 -146.5t23 -146.5t66.5 -119t107 -79.5t143.5 -29t143 29t106.5 79.5t66.5 119t23 146.5zM75 357q0 69 20 130t58 106.5t93 72.5t125 27t124.5 -27t92.5 -72.5t58 -106.5
t20 -130t-20 -130t-58 -106.5t-92.5 -72.5t-124.5 -27t-125 27t-93 72.5t-58 106.5t-20 130zM313 784v103h-44v-103h44zM471 784v103h-44v-103h44z" />
    <glyph glyph-name="multiply" unicode="&#xd7;" horiz-adv-x="600" 
d="M79 58l26 -27l195 195l194 -195l27 27l-194 194l194 195l-27 27l-194 -195l-195 195l-26 -27l194 -195z" />
    <glyph glyph-name="Rcaron" unicode="&#xd8;" horiz-adv-x="630" 
d="M107 363v313h254q36 0 69 -8t58 -26t40 -46.5t15 -68.5q0 -43 -14 -74t-38 -51t-57.5 -29.5t-72.5 -9.5h-254zM63 0h44v325h254q47 0 78 -10t49.5 -27t28 -39.5t12.5 -48.5t2.5 -53.5t0 -54t3.5 -50.5t13 -42h49q-11 14 -15 35.5t-5 47t-1 53.5t-3 56t-10 53.5t-22.5 46
t-41 34.5t-65.5 19v2q72 12 112.5 61.5t40.5 121.5q0 52 -17.5 87t-48.5 56.5t-72 31t-88 9.5h-298v-714zM327 764l116 140h-38l-98 -115l-97 115h-38l115 -140h40z" />
    <glyph glyph-name="Rcaron" unicode="&#x158;" horiz-adv-x="630" 
d="M107 363v313h254q36 0 69 -8t58 -26t40 -46.5t15 -68.5q0 -43 -14 -74t-38 -51t-57.5 -29.5t-72.5 -9.5h-254zM63 0h44v325h254q47 0 78 -10t49.5 -27t28 -39.5t12.5 -48.5t2.5 -53.5t0 -54t3.5 -50.5t13 -42h49q-11 14 -15 35.5t-5 47t-1 53.5t-3 56t-10 53.5t-22.5 46
t-41 34.5t-65.5 19v2q72 12 112.5 61.5t40.5 121.5q0 52 -17.5 87t-48.5 56.5t-72 31t-88 9.5h-298v-714zM327 764l116 140h-38l-98 -115l-97 115h-38l115 -140h40z" />
    <glyph glyph-name="Uring" unicode="&#xd9;" horiz-adv-x="672" 
d="M63 714v-428q0 -24 2 -55.5t11 -65t26 -66.5t46.5 -58.5t74.5 -41.5t108 -16q80 0 133.5 23.5t85.5 64.5t45.5 96t13.5 119v428h-44v-428q0 -61 -12 -110t-39.5 -83.5t-72 -53t-110.5 -18.5q-52 0 -88.5 13.5t-61.5 36t-39.5 51t-22 58t-10 57.5t-2.5 49v428h-44z
M237 836q0 -42 28.5 -70.5t70.5 -28.5t70.5 28.5t28.5 70.5t-28.5 70.5t-70.5 28.5t-70.5 -28.5t-28.5 -70.5zM264 836q0 30 21 51t51 21t51 -21t21 -51t-21 -51t-51 -21t-51 21t-21 51z" />
    <glyph glyph-name="Uring" unicode="&#x16e;" horiz-adv-x="672" 
d="M63 714v-428q0 -24 2 -55.5t11 -65t26 -66.5t46.5 -58.5t74.5 -41.5t108 -16q80 0 133.5 23.5t85.5 64.5t45.5 96t13.5 119v428h-44v-428q0 -61 -12 -110t-39.5 -83.5t-72 -53t-110.5 -18.5q-52 0 -88.5 13.5t-61.5 36t-39.5 51t-22 58t-10 57.5t-2.5 49v428h-44z
M237 836q0 -42 28.5 -70.5t70.5 -28.5t70.5 28.5t28.5 70.5t-28.5 70.5t-70.5 28.5t-70.5 -28.5t-28.5 -70.5zM264 836q0 30 21 51t51 21t51 -21t21 -51t-21 -51t-51 -21t-51 21t-21 51z" />
    <glyph glyph-name="Uacute" unicode="&#xda;" horiz-adv-x="672" 
d="M63 714v-428q0 -24 2 -55.5t11 -65t26 -66.5t46.5 -58.5t74.5 -41.5t108 -16q80 0 133.5 23.5t85.5 64.5t45.5 96t13.5 119v428h-44v-428q0 -61 -12 -110t-39.5 -83.5t-72 -53t-110.5 -18.5q-52 0 -88.5 13.5t-61.5 36t-39.5 51t-22 58t-10 57.5t-2.5 49v428h-44z
M244 764h37l134 140h-51z" />
    <glyph glyph-name="Uhungarumlaut" unicode="&#xdb;" horiz-adv-x="672" 
d="M63 714v-428q0 -24 2 -55.5t11 -65t26 -66.5t46.5 -58.5t74.5 -41.5t108 -16q80 0 133.5 23.5t85.5 64.5t45.5 96t13.5 119v428h-44v-428q0 -61 -12 -110t-39.5 -83.5t-72 -53t-110.5 -18.5q-52 0 -88.5 13.5t-61.5 36t-39.5 51t-22 58t-10 57.5t-2.5 49v428h-44z
M244 764l134 140h-51l-120 -140h37zM402 764l134 140h-51l-120 -140h37z" />
    <glyph glyph-name="Uhungarumlaut" unicode="&#x170;" horiz-adv-x="672" 
d="M63 714v-428q0 -24 2 -55.5t11 -65t26 -66.5t46.5 -58.5t74.5 -41.5t108 -16q80 0 133.5 23.5t85.5 64.5t45.5 96t13.5 119v428h-44v-428q0 -61 -12 -110t-39.5 -83.5t-72 -53t-110.5 -18.5q-52 0 -88.5 13.5t-61.5 36t-39.5 51t-22 58t-10 57.5t-2.5 49v428h-44z
M244 764l134 140h-51l-120 -140h37zM402 764l134 140h-51l-120 -140h37z" />
    <glyph glyph-name="Udieresis" unicode="&#xdc;" horiz-adv-x="672" 
d="M63 714v-428q0 -24 2 -55.5t11 -65t26 -66.5t46.5 -58.5t74.5 -41.5t108 -16q80 0 133.5 23.5t85.5 64.5t45.5 96t13.5 119v428h-44v-428q0 -61 -12 -110t-39.5 -83.5t-72 -53t-110.5 -18.5q-52 0 -88.5 13.5t-61.5 36t-39.5 51t-22 58t-10 57.5t-2.5 49v428h-44z
M279 784v103h-44v-103h44zM437 784v103h-44v-103h44z" />
    <glyph glyph-name="Yacute" unicode="&#xdd;" horiz-adv-x="574" 
d="M287 336l-258 378h-50l285 -415v-299h44v299l287 415h-49zM204 764h37l134 140h-51z" />
    <glyph glyph-name="Tcommaaccent" unicode="&#xde;" 
d="M237 676v-676h44v676h252v38h-547v-38h251zM237 -40v-93h20q0 -9 -1 -21.5t-5 -24.5t-10.5 -22t-18.5 -14v-25q34 11 46.5 43.5t12.5 74.5v82h-44z" />
    <glyph glyph-name="Tcommaaccent" unicode="&#x162;" 
d="M237 676v-676h44v676h252v38h-547v-38h251zM237 -40v-93h20q0 -9 -1 -21.5t-5 -24.5t-10.5 -22t-18.5 -14v-25q34 11 46.5 43.5t12.5 74.5v82h-44z" />
    <glyph glyph-name="germandbls" unicode="&#xdf;" horiz-adv-x="500" 
d="M207 379q46 0 86 -7t69 -26t46 -51t17 -81q0 -62 -20 -98t-48.5 -54.5t-59 -23.5t-52.5 -5h-38v-33h55q23 0 57 6t66 28t55 64.5t23 115.5q0 78 -38 128t-116 59v2q62 14 90.5 54.5t28.5 102.5q0 42 -14.5 73t-40 52t-60 31t-73.5 10q-93 0 -137.5 -49t-44.5 -140v-537
h38v537q0 72 34 114t110 42q31 0 58 -8.5t47.5 -25t32.5 -41.5t12 -58q0 -40 -15 -68t-40.5 -46t-58.5 -26t-69 -8v-33z" />
    <glyph glyph-name="racute" unicode="&#xe0;" horiz-adv-x="278" 
d="M94 514h-38v-514h38v281q1 29 5 50t11 38t17.5 31t24.5 29q35 34 73.5 44t68.5 6v38q-35 1 -67.5 -7.5t-58.5 -24.5t-45 -38t-26 -47h-3v114zM90 591h37l134 140h-51z" />
    <glyph glyph-name="racute" unicode="&#x155;" horiz-adv-x="278" 
d="M94 514h-38v-514h38v281q1 29 5 50t11 38t17.5 31t24.5 29q35 34 73.5 44t68.5 6v38q-35 1 -67.5 -7.5t-58.5 -24.5t-45 -38t-26 -47h-3v114zM90 591h37l134 140h-51z" />
    <glyph glyph-name="aacute" unicode="&#xe1;" horiz-adv-x="500" 
d="M188 591h37l134 140h-51zM397 196q0 -10 -5.5 -38.5t-25.5 -59t-58 -54t-103 -23.5q-68 0 -101.5 32.5t-33.5 79.5q0 58 36.5 84.5t104.5 34.5q28 4 56 6t53.5 5t45.5 9.5t31 19.5v-96zM435 392q0 40 -15.5 66t-41 41t-57.5 21t-66 6q-91 0 -141.5 -42.5t-54.5 -127.5h38
q4 67 46.5 102t111.5 35q44 0 72 -10t43.5 -25t21.5 -33t6 -33q0 -32 -4 -50.5t-21 -30t-52.5 -17t-99.5 -9.5q-32 -3 -65.5 -10t-61 -23.5t-45 -45t-17.5 -73.5q0 -41 13 -68.5t36.5 -44.5t55 -24.5t67.5 -7.5q37 0 68 9t55.5 25t41.5 36.5t26 43.5h2v-27q0 -16 2.5 -29.5
t9.5 -23.5t20.5 -16t36.5 -6q8 0 15.5 1t15.5 3v32q-18 -3 -28 -3q-13 0 -20 5.5t-10 14.5t-3.5 20t-0.5 22v297z" />
    <glyph glyph-name="acircumflex" unicode="&#xe2;" horiz-adv-x="500" 
d="M225 731l-115 -140h38l97 115l98 -115h38l-116 140h-40zM397 196q0 -10 -5.5 -38.5t-25.5 -59t-58 -54t-103 -23.5q-68 0 -101.5 32.5t-33.5 79.5q0 58 36.5 84.5t104.5 34.5q28 4 56 6t53.5 5t45.5 9.5t31 19.5v-96zM435 392q0 40 -15.5 66t-41 41t-57.5 21t-66 6
q-91 0 -141.5 -42.5t-54.5 -127.5h38q4 67 46.5 102t111.5 35q44 0 72 -10t43.5 -25t21.5 -33t6 -33q0 -32 -4 -50.5t-21 -30t-52.5 -17t-99.5 -9.5q-32 -3 -65.5 -10t-61 -23.5t-45 -45t-17.5 -73.5q0 -41 13 -68.5t36.5 -44.5t55 -24.5t67.5 -7.5q37 0 68 9t55.5 25
t41.5 36.5t26 43.5h2v-27q0 -16 2.5 -29.5t9.5 -23.5t20.5 -16t36.5 -6q8 0 15.5 1t15.5 3v32q-18 -3 -28 -3q-13 0 -20 5.5t-10 14.5t-3.5 20t-0.5 22v297z" />
    <glyph glyph-name="abreve" unicode="&#xe3;" horiz-adv-x="500" 
d="M397 196q0 -10 -5.5 -38.5t-25.5 -59t-58 -54t-103 -23.5q-68 0 -101.5 32.5t-33.5 79.5q0 58 36.5 84.5t104.5 34.5q28 4 56 6t53.5 5t45.5 9.5t31 19.5v-96zM435 392q0 40 -15.5 66t-41 41t-57.5 21t-66 6q-91 0 -141.5 -42.5t-54.5 -127.5h38q4 67 46.5 102t111.5 35
q44 0 72 -10t43.5 -25t21.5 -33t6 -33q0 -32 -4 -50.5t-21 -30t-52.5 -17t-99.5 -9.5q-32 -3 -65.5 -10t-61 -23.5t-45 -45t-17.5 -73.5q0 -41 13 -68.5t36.5 -44.5t55 -24.5t67.5 -7.5q37 0 68 9t55.5 25t41.5 36.5t26 43.5h2v-27q0 -16 2.5 -29.5t9.5 -23.5t20.5 -16
t36.5 -6q8 0 15.5 1t15.5 3v32q-18 -3 -28 -3q-13 0 -20 5.5t-10 14.5t-3.5 20t-0.5 22v297zM353 721q-6 -38 -34 -63.5t-65 -23.5q-15 -2 -31 2t-30.5 14.5t-26.5 28t-18 42.5h-33q7 -57 45.5 -88.5t94.5 -31.5q25 0 47.5 9.5t40 26t29 38.5t14.5 46h-33z" />
    <glyph glyph-name="abreve" unicode="&#x103;" horiz-adv-x="500" 
d="M397 196q0 -10 -5.5 -38.5t-25.5 -59t-58 -54t-103 -23.5q-68 0 -101.5 32.5t-33.5 79.5q0 58 36.5 84.5t104.5 34.5q28 4 56 6t53.5 5t45.5 9.5t31 19.5v-96zM435 392q0 40 -15.5 66t-41 41t-57.5 21t-66 6q-91 0 -141.5 -42.5t-54.5 -127.5h38q4 67 46.5 102t111.5 35
q44 0 72 -10t43.5 -25t21.5 -33t6 -33q0 -32 -4 -50.5t-21 -30t-52.5 -17t-99.5 -9.5q-32 -3 -65.5 -10t-61 -23.5t-45 -45t-17.5 -73.5q0 -41 13 -68.5t36.5 -44.5t55 -24.5t67.5 -7.5q37 0 68 9t55.5 25t41.5 36.5t26 43.5h2v-27q0 -16 2.5 -29.5t9.5 -23.5t20.5 -16
t36.5 -6q8 0 15.5 1t15.5 3v32q-18 -3 -28 -3q-13 0 -20 5.5t-10 14.5t-3.5 20t-0.5 22v297zM353 721q-6 -38 -34 -63.5t-65 -23.5q-15 -2 -31 2t-30.5 14.5t-26.5 28t-18 42.5h-33q7 -57 45.5 -88.5t94.5 -31.5q25 0 47.5 9.5t40 26t29 38.5t14.5 46h-33z" />
    <glyph glyph-name="adieresis" unicode="&#xe4;" horiz-adv-x="500" 
d="M397 196q0 -10 -5.5 -38.5t-25.5 -59t-58 -54t-103 -23.5q-68 0 -101.5 32.5t-33.5 79.5q0 58 36.5 84.5t104.5 34.5q28 4 56 6t53.5 5t45.5 9.5t31 19.5v-96zM435 392q0 40 -15.5 66t-41 41t-57.5 21t-66 6q-91 0 -141.5 -42.5t-54.5 -127.5h38q4 67 46.5 102t111.5 35
q44 0 72 -10t43.5 -25t21.5 -33t6 -33q0 -32 -4 -50.5t-21 -30t-52.5 -17t-99.5 -9.5q-32 -3 -65.5 -10t-61 -23.5t-45 -45t-17.5 -73.5q0 -41 13 -68.5t36.5 -44.5t55 -24.5t67.5 -7.5q37 0 68 9t55.5 25t41.5 36.5t26 43.5h2v-27q0 -16 2.5 -29.5t9.5 -23.5t20.5 -16
t36.5 -6q8 0 15.5 1t15.5 3v32q-18 -3 -28 -3q-13 0 -20 5.5t-10 14.5t-3.5 20t-0.5 22v297zM201 611v103h-44v-103h44zM353 611v103h-44v-103h44z" />
    <glyph glyph-name="lacute" unicode="&#xe5;" horiz-adv-x="168" 
d="M65 714v-714h38v714h-38zM57 764h37l134 140h-51z" />
    <glyph glyph-name="lacute" unicode="&#x13a;" horiz-adv-x="168" 
d="M65 714v-714h38v714h-38zM57 764h37l134 140h-51z" />
    <glyph glyph-name="cacute" unicode="&#xe6;" 
d="M481 355q-4 44 -22 76t-46.5 53t-65 31.5t-78.5 10.5q-57 0 -101 -21t-74 -57t-45.5 -84t-15.5 -102t13.5 -103.5t42 -87.5t73 -60.5t107.5 -22.5q42 0 78.5 13t65 37.5t48 60.5t25.5 82h-38q-5 -35 -20 -64.5t-38.5 -50.5t-54 -33t-66.5 -12q-50 0 -87 18t-62 50.5
t-37 76.5t-12 96q0 44 13 85.5t38 74t62 52t85 19.5q35 0 65.5 -9t53.5 -26t37.5 -43t17.5 -60h38zM212 591h37l134 140h-51z" />
    <glyph glyph-name="cacute" unicode="&#x107;" 
d="M481 355q-4 44 -22 76t-46.5 53t-65 31.5t-78.5 10.5q-57 0 -101 -21t-74 -57t-45.5 -84t-15.5 -102t13.5 -103.5t42 -87.5t73 -60.5t107.5 -22.5q42 0 78.5 13t65 37.5t48 60.5t25.5 82h-38q-5 -35 -20 -64.5t-38.5 -50.5t-54 -33t-66.5 -12q-50 0 -87 18t-62 50.5
t-37 76.5t-12 96q0 44 13 85.5t38 74t62 52t85 19.5q35 0 65.5 -9t53.5 -26t37.5 -43t17.5 -60h38zM212 591h37l134 140h-51z" />
    <glyph glyph-name="ccedilla" unicode="&#xe7;" 
d="M481 355q-4 44 -22 76t-46.5 53t-65 31.5t-78.5 10.5q-57 0 -101 -21t-74 -57t-45.5 -84t-15.5 -102q0 -52 12.5 -99.5t39 -85t67.5 -61.5t99 -27l-48 -64l16 -13q11 5 24 8.5t29 3.5q7 0 15.5 -2.5t16 -8.5t12.5 -14.5t5 -20.5q0 -27 -20.5 -37t-42.5 -10q-26 0 -44.5 6
t-35.5 12l-11 -24q13 -7 35.5 -14t54.5 -7q45 0 73.5 17t28.5 57q0 38 -23 55.5t-52 17.5q-12 0 -21 -3t-16 -6l-2 2l39 45q79 5 134.5 54.5t67.5 137.5h-38q-5 -35 -20 -64.5t-38.5 -50.5t-54 -33t-66.5 -12q-50 0 -87 18t-62 50.5t-37 76.5t-12 96q0 44 13 85.5t38 74
t62 52t85 19.5q35 0 65.5 -9t53.5 -26t37.5 -43t17.5 -60h38z" />
    <glyph glyph-name="ccaron" unicode="&#xe8;" 
d="M481 355q-4 44 -22 76t-46.5 53t-65 31.5t-78.5 10.5q-57 0 -101 -21t-74 -57t-45.5 -84t-15.5 -102t13.5 -103.5t42 -87.5t73 -60.5t107.5 -22.5q42 0 78.5 13t65 37.5t48 60.5t25.5 82h-38q-5 -35 -20 -64.5t-38.5 -50.5t-54 -33t-66.5 -12q-50 0 -87 18t-62 50.5
t-37 76.5t-12 96q0 44 13 85.5t38 74t62 52t85 19.5q35 0 65.5 -9t53.5 -26t37.5 -43t17.5 -60h38zM288 591l116 140h-38l-98 -115l-97 115h-38l115 -140h40z" />
    <glyph glyph-name="ccaron" unicode="&#x10d;" 
d="M481 355q-4 44 -22 76t-46.5 53t-65 31.5t-78.5 10.5q-57 0 -101 -21t-74 -57t-45.5 -84t-15.5 -102t13.5 -103.5t42 -87.5t73 -60.5t107.5 -22.5q42 0 78.5 13t65 37.5t48 60.5t25.5 82h-38q-5 -35 -20 -64.5t-38.5 -50.5t-54 -33t-66.5 -12q-50 0 -87 18t-62 50.5
t-37 76.5t-12 96q0 44 13 85.5t38 74t62 52t85 19.5q35 0 65.5 -9t53.5 -26t37.5 -43t17.5 -60h38zM288 591l116 140h-38l-98 -115l-97 115h-38l115 -140h40z" />
    <glyph glyph-name="eacute" unicode="&#xe9;" 
d="M486 252q3 55 -9.5 105t-40.5 87.5t-72 59.5t-104 22q-58 0 -101 -23.5t-71.5 -62.5t-42 -89t-12.5 -103q-1 -53 13.5 -100.5t43 -83t71.5 -56t99 -20.5q92 0 149.5 47.5t72.5 138.5h-38q-14 -72 -62.5 -112.5t-121.5 -40.5q-48 0 -83.5 19t-59.5 51t-35.5 74t-10.5 87
h415zM71 285q3 38 17 75.5t38 67t57.5 47.5t76.5 18q44 0 78.5 -17.5t58.5 -46t37 -66.5t14 -78h-377zM188 591h37l134 140h-51z" />
    <glyph glyph-name="eogonek" unicode="&#xea;" 
d="M71 285q3 38 17 75.5t38 67t57.5 47.5t76.5 18q44 0 78.5 -17.5t58.5 -46t37 -66.5t14 -78h-377zM486 252q3 55 -9.5 105t-40.5 87.5t-72 59.5t-104 22q-58 0 -101 -23.5t-71.5 -62.5t-42 -89t-12.5 -103q-1 -53 13.5 -100.5t43 -83t71.5 -56t99 -20.5h15t14 1t13.5 2
t14.5 3q-33 -20 -52.5 -39t-30 -35.5t-13.5 -30t-3 -21.5q0 -27 10 -42.5t24.5 -23t29 -9t23.5 -1.5q34 0 57 19.5t34 45.5l-25 8q-13 -22 -27 -31t-35 -9q-16 0 -31.5 12t-15.5 31q0 16 5 33t17.5 34.5t33.5 36t53 38.5q22 14 40.5 29t32.5 34.5t23.5 44t14.5 56.5h-38
q-14 -72 -62.5 -112.5t-121.5 -40.5q-48 0 -83.5 19t-59.5 51t-35.5 74t-10.5 87h415z" />
    <glyph glyph-name="eogonek" unicode="&#x119;" 
d="M71 285q3 38 17 75.5t38 67t57.5 47.5t76.5 18q44 0 78.5 -17.5t58.5 -46t37 -66.5t14 -78h-377zM486 252q3 55 -9.5 105t-40.5 87.5t-72 59.5t-104 22q-58 0 -101 -23.5t-71.5 -62.5t-42 -89t-12.5 -103q-1 -53 13.5 -100.5t43 -83t71.5 -56t99 -20.5h15t14 1t13.5 2
t14.5 3q-33 -20 -52.5 -39t-30 -35.5t-13.5 -30t-3 -21.5q0 -27 10 -42.5t24.5 -23t29 -9t23.5 -1.5q34 0 57 19.5t34 45.5l-25 8q-13 -22 -27 -31t-35 -9q-16 0 -31.5 12t-15.5 31q0 16 5 33t17.5 34.5t33.5 36t53 38.5q22 14 40.5 29t32.5 34.5t23.5 44t14.5 56.5h-38
q-14 -72 -62.5 -112.5t-121.5 -40.5q-48 0 -83.5 19t-59.5 51t-35.5 74t-10.5 87h415z" />
    <glyph glyph-name="edieresis" unicode="&#xeb;" 
d="M486 252q3 55 -9.5 105t-40.5 87.5t-72 59.5t-104 22q-58 0 -101 -23.5t-71.5 -62.5t-42 -89t-12.5 -103q-1 -53 13.5 -100.5t43 -83t71.5 -56t99 -20.5q92 0 149.5 47.5t72.5 138.5h-38q-14 -72 -62.5 -112.5t-121.5 -40.5q-48 0 -83.5 19t-59.5 51t-35.5 74t-10.5 87
h415zM71 285q3 38 17 75.5t38 67t57.5 47.5t76.5 18q44 0 78.5 -17.5t58.5 -46t37 -66.5t14 -78h-377zM202 611v103h-44v-103h44zM360 611v103h-44v-103h44z" />
    <glyph glyph-name="ecaron" unicode="&#xec;" 
d="M486 252q3 55 -9.5 105t-40.5 87.5t-72 59.5t-104 22q-58 0 -101 -23.5t-71.5 -62.5t-42 -89t-12.5 -103q-1 -53 13.5 -100.5t43 -83t71.5 -56t99 -20.5q92 0 149.5 47.5t72.5 138.5h-38q-14 -72 -62.5 -112.5t-121.5 -40.5q-48 0 -83.5 19t-59.5 51t-35.5 74t-10.5 87
h415zM71 285q3 38 17 75.5t38 67t57.5 47.5t76.5 18q44 0 78.5 -17.5t58.5 -46t37 -66.5t14 -78h-377zM280 591l116 140h-38l-98 -115l-97 115h-38l115 -140h40z" />
    <glyph glyph-name="ecaron" unicode="&#x11b;" 
d="M486 252q3 55 -9.5 105t-40.5 87.5t-72 59.5t-104 22q-58 0 -101 -23.5t-71.5 -62.5t-42 -89t-12.5 -103q-1 -53 13.5 -100.5t43 -83t71.5 -56t99 -20.5q92 0 149.5 47.5t72.5 138.5h-38q-14 -72 -62.5 -112.5t-121.5 -40.5q-48 0 -83.5 19t-59.5 51t-35.5 74t-10.5 87
h415zM71 285q3 38 17 75.5t38 67t57.5 47.5t76.5 18q44 0 78.5 -17.5t58.5 -46t37 -66.5t14 -78h-377zM280 591l116 140h-38l-98 -115l-97 115h-38l115 -140h40z" />
    <glyph glyph-name="iacute" unicode="&#xed;" horiz-adv-x="168" 
d="M103 0v514h-38v-514h38zM57 591h37l134 140h-51z" />
    <glyph glyph-name="icircumflex" unicode="&#xee;" horiz-adv-x="168" 
d="M103 0v514h-38v-514h38zM63 731l-115 -140h38l97 115l98 -115h38l-116 140h-40z" />
    <glyph glyph-name="dcaron" unicode="&#xef;" horiz-adv-x="574" 
d="M541 714v-93h20q0 -9 -1 -21.5t-5 -24.5t-10.5 -22t-18.5 -14v-25q34 11 46.5 43.5t12.5 74.5v82h-44zM262 21q-50 0 -86 19.5t-59.5 52.5t-35 75.5t-11.5 87.5q0 46 10.5 89t34 76t59.5 52.5t87 19.5q49 0 85.5 -20t59.5 -53.5t34.5 -76t11.5 -87.5q0 -44 -11.5 -86.5
t-35 -75.5t-59 -53t-84.5 -20zM453 0h38v714h-38v-315h-2q-10 30 -29 54t-44.5 40t-55.5 24.5t-61 8.5q-58 0 -101 -21t-71.5 -57t-42.5 -85.5t-14 -106.5q0 -53 13 -101.5t40 -85.5t69 -59t100 -22q69 0 117 30.5t80 91.5h2v-110z" />
    <glyph glyph-name="dcaron" unicode="&#x10f;" horiz-adv-x="574" 
d="M541 714v-93h20q0 -9 -1 -21.5t-5 -24.5t-10.5 -22t-18.5 -14v-25q34 11 46.5 43.5t12.5 74.5v82h-44zM262 21q-50 0 -86 19.5t-59.5 52.5t-35 75.5t-11.5 87.5q0 46 10.5 89t34 76t59.5 52.5t87 19.5q49 0 85.5 -20t59.5 -53.5t34.5 -76t11.5 -87.5q0 -44 -11.5 -86.5
t-35 -75.5t-59 -53t-84.5 -20zM453 0h38v714h-38v-315h-2q-10 30 -29 54t-44.5 40t-55.5 24.5t-61 8.5q-58 0 -101 -21t-71.5 -57t-42.5 -85.5t-14 -106.5q0 -53 13 -101.5t40 -85.5t69 -59t100 -22q69 0 117 30.5t80 91.5h2v-110z" />
    <glyph glyph-name="dcroat" unicode="&#xf0;" horiz-adv-x="556" 
d="M262 21q-50 0 -86 19.5t-59.5 52.5t-35 75.5t-11.5 87.5q0 46 10.5 89t34 76t59.5 52.5t87 19.5q49 0 85.5 -20t59.5 -53.5t34.5 -76t11.5 -87.5q0 -44 -11.5 -86.5t-35 -75.5t-59 -53t-84.5 -20zM453 0h38v607h57v33h-57v74h-38v-74h-149v-33h149v-208h-2q-10 30 -29 54
t-44.5 40t-55.5 24.5t-61 8.5q-58 0 -101 -21t-71.5 -57t-42.5 -85.5t-14 -106.5q0 -53 13 -101.5t40 -85.5t69 -59t100 -22q69 0 117 30.5t80 91.5h2v-110z" />
    <glyph glyph-name="dcroat" unicode="&#x111;" horiz-adv-x="556" 
d="M262 21q-50 0 -86 19.5t-59.5 52.5t-35 75.5t-11.5 87.5q0 46 10.5 89t34 76t59.5 52.5t87 19.5q49 0 85.5 -20t59.5 -53.5t34.5 -76t11.5 -87.5q0 -44 -11.5 -86.5t-35 -75.5t-59 -53t-84.5 -20zM453 0h38v607h57v33h-57v74h-38v-74h-149v-33h149v-208h-2q-10 30 -29 54
t-44.5 40t-55.5 24.5t-61 8.5q-58 0 -101 -21t-71.5 -57t-42.5 -85.5t-14 -106.5q0 -53 13 -101.5t40 -85.5t69 -59t100 -22q69 0 117 30.5t80 91.5h2v-110z" />
    <glyph glyph-name="nacute" unicode="&#xf1;" 
d="M56 0h38v278q0 47 12.5 86.5t36.5 68t58.5 44.5t77.5 16q52 0 81.5 -19t44 -45.5t17.5 -55t3 -48.5v-325h38v318q0 16 -1 37.5t-6 44.5t-16.5 45.5t-31.5 40.5t-51.5 29t-76.5 11q-30 0 -59 -8t-53.5 -24t-43 -38.5t-28.5 -51.5h-2v110h-38v-514zM207 591h37l134 140h-51
z" />
    <glyph glyph-name="nacute" unicode="&#x144;" 
d="M56 0h38v278q0 47 12.5 86.5t36.5 68t58.5 44.5t77.5 16q52 0 81.5 -19t44 -45.5t17.5 -55t3 -48.5v-325h38v318q0 16 -1 37.5t-6 44.5t-16.5 45.5t-31.5 40.5t-51.5 29t-76.5 11q-30 0 -59 -8t-53.5 -24t-43 -38.5t-28.5 -51.5h-2v110h-38v-514zM207 591h37l134 140h-51
z" />
    <glyph glyph-name="ncaron" unicode="&#xf2;" 
d="M56 0h38v278q0 47 12.5 86.5t36.5 68t58.5 44.5t77.5 16q52 0 81.5 -19t44 -45.5t17.5 -55t3 -48.5v-325h38v318q0 16 -1 37.5t-6 44.5t-16.5 45.5t-31.5 40.5t-51.5 29t-76.5 11q-30 0 -59 -8t-53.5 -24t-43 -38.5t-28.5 -51.5h-2v110h-38v-514zM278 591l116 140h-38
l-98 -115l-97 115h-38l115 -140h40z" />
    <glyph glyph-name="ncaron" unicode="&#x148;" 
d="M56 0h38v278q0 47 12.5 86.5t36.5 68t58.5 44.5t77.5 16q52 0 81.5 -19t44 -45.5t17.5 -55t3 -48.5v-325h38v318q0 16 -1 37.5t-6 44.5t-16.5 45.5t-31.5 40.5t-51.5 29t-76.5 11q-30 0 -59 -8t-53.5 -24t-43 -38.5t-28.5 -51.5h-2v110h-38v-514zM278 591l116 140h-38
l-98 -115l-97 115h-38l115 -140h40z" />
    <glyph glyph-name="oacute" unicode="&#xf3;" horiz-adv-x="537" 
d="M32 257q0 -55 15.5 -104t45.5 -85.5t74 -58t101 -21.5t101 21.5t74 58t45.5 85.5t15.5 104t-15.5 103.5t-45.5 85.5t-74 58.5t-101 21.5t-101 -21.5t-74 -58.5t-45.5 -85.5t-15.5 -103.5zM70 257q0 46 13 88.5t38 75.5t62 52.5t85 19.5t85 -19.5t62 -52.5t38 -75.5
t13 -88.5t-13 -88.5t-38 -75.5t-62 -52.5t-85 -19.5t-85 19.5t-62 52.5t-38 75.5t-13 88.5zM204 591h37l134 140h-51z" />
    <glyph glyph-name="ocircumflex" unicode="&#xf4;" horiz-adv-x="537" 
d="M32 257q0 -55 15.5 -104t45.5 -85.5t74 -58t101 -21.5t101 21.5t74 58t45.5 85.5t15.5 104t-15.5 103.5t-45.5 85.5t-74 58.5t-101 21.5t-101 -21.5t-74 -58.5t-45.5 -85.5t-15.5 -103.5zM70 257q0 46 13 88.5t38 75.5t62 52.5t85 19.5t85 -19.5t62 -52.5t38 -75.5
t13 -88.5t-13 -88.5t-38 -75.5t-62 -52.5t-85 -19.5t-85 19.5t-62 52.5t-38 75.5t-13 88.5zM248 731l-115 -140h38l97 115l98 -115h38l-116 140h-40z" />
    <glyph glyph-name="ohungarumlaut" unicode="&#xf5;" horiz-adv-x="537" 
d="M32 257q0 -55 15.5 -104t45.5 -85.5t74 -58t101 -21.5t101 21.5t74 58t45.5 85.5t15.5 104t-15.5 103.5t-45.5 85.5t-74 58.5t-101 21.5t-101 -21.5t-74 -58.5t-45.5 -85.5t-15.5 -103.5zM70 257q0 46 13 88.5t38 75.5t62 52.5t85 19.5t85 -19.5t62 -52.5t38 -75.5
t13 -88.5t-13 -88.5t-38 -75.5t-62 -52.5t-85 -19.5t-85 19.5t-62 52.5t-38 75.5t-13 88.5zM181 591l134 140h-51l-120 -140h37zM339 591l134 140h-51l-120 -140h37z" />
    <glyph glyph-name="ohungarumlaut" unicode="&#x151;" horiz-adv-x="537" 
d="M32 257q0 -55 15.5 -104t45.5 -85.5t74 -58t101 -21.5t101 21.5t74 58t45.5 85.5t15.5 104t-15.5 103.5t-45.5 85.5t-74 58.5t-101 21.5t-101 -21.5t-74 -58.5t-45.5 -85.5t-15.5 -103.5zM70 257q0 46 13 88.5t38 75.5t62 52.5t85 19.5t85 -19.5t62 -52.5t38 -75.5
t13 -88.5t-13 -88.5t-38 -75.5t-62 -52.5t-85 -19.5t-85 19.5t-62 52.5t-38 75.5t-13 88.5zM181 591l134 140h-51l-120 -140h37zM339 591l134 140h-51l-120 -140h37z" />
    <glyph glyph-name="odieresis" unicode="&#xf6;" horiz-adv-x="537" 
d="M32 257q0 -55 15.5 -104t45.5 -85.5t74 -58t101 -21.5t101 21.5t74 58t45.5 85.5t15.5 104t-15.5 103.5t-45.5 85.5t-74 58.5t-101 21.5t-101 -21.5t-74 -58.5t-45.5 -85.5t-15.5 -103.5zM70 257q0 46 13 88.5t38 75.5t62 52.5t85 19.5t85 -19.5t62 -52.5t38 -75.5
t13 -88.5t-13 -88.5t-38 -75.5t-62 -52.5t-85 -19.5t-85 19.5t-62 52.5t-38 75.5t-13 88.5zM211 611v103h-44v-103h44zM369 611v103h-44v-103h44z" />
    <glyph glyph-name="divide" unicode="&#xf7;" horiz-adv-x="600" 
d="M552 233v38h-504v-38h504zM250 452q0 -21 15 -36t36 -15t36.5 15t15.5 36q0 22 -15.5 37t-36.5 15t-36 -15t-15 -37zM250 51q0 -21 15 -36t36 -15t36.5 15t15.5 36q0 22 -15.5 37t-36.5 15t-36 -15t-15 -37z" />
    <glyph glyph-name="rcaron" unicode="&#xf8;" horiz-adv-x="278" 
d="M94 514h-38v-514h38v281q1 29 5 50t11 38t17.5 31t24.5 29q35 34 73.5 44t68.5 6v38q-35 1 -67.5 -7.5t-58.5 -24.5t-45 -38t-26 -47h-3v114zM173 591l116 140h-38l-98 -115l-97 115h-38l115 -140h40z" />
    <glyph glyph-name="rcaron" unicode="&#x159;" horiz-adv-x="278" 
d="M94 514h-38v-514h38v281q1 29 5 50t11 38t17.5 31t24.5 29q35 34 73.5 44t68.5 6v38q-35 1 -67.5 -7.5t-58.5 -24.5t-45 -38t-26 -47h-3v114zM173 591l116 140h-38l-98 -115l-97 115h-38l115 -140h40z" />
    <glyph glyph-name="uring" unicode="&#xf9;" 
d="M463 514h-38v-278q0 -47 -12.5 -86.5t-36.5 -68t-58.5 -44.5t-77.5 -16q-53 0 -82 19t-43.5 45.5t-17.5 55t-3 48.5v325h-38v-318q0 -16 1 -37.5t6 -44.5t16.5 -45.5t31.5 -40.5t51.5 -29t76.5 -11q30 0 59 8t53.5 24t43 38.5t28.5 51.5h2v-110h38v514zM161 663
q0 -42 28.5 -70.5t70.5 -28.5t70.5 28.5t28.5 70.5t-28.5 70.5t-70.5 28.5t-70.5 -28.5t-28.5 -70.5zM188 663q0 30 21 51t51 21t51 -21t21 -51t-21 -51t-51 -21t-51 21t-21 51z" />
    <glyph glyph-name="uring" unicode="&#x16f;" 
d="M463 514h-38v-278q0 -47 -12.5 -86.5t-36.5 -68t-58.5 -44.5t-77.5 -16q-53 0 -82 19t-43.5 45.5t-17.5 55t-3 48.5v325h-38v-318q0 -16 1 -37.5t6 -44.5t16.5 -45.5t31.5 -40.5t51.5 -29t76.5 -11q30 0 59 8t53.5 24t43 38.5t28.5 51.5h2v-110h38v514zM161 663
q0 -42 28.5 -70.5t70.5 -28.5t70.5 28.5t28.5 70.5t-28.5 70.5t-70.5 28.5t-70.5 -28.5t-28.5 -70.5zM188 663q0 30 21 51t51 21t51 -21t21 -51t-21 -51t-51 -21t-51 21t-21 51z" />
    <glyph glyph-name="uacute" unicode="&#xfa;" 
d="M463 514h-38v-278q0 -47 -12.5 -86.5t-36.5 -68t-58.5 -44.5t-77.5 -16q-53 0 -82 19t-43.5 45.5t-17.5 55t-3 48.5v325h-38v-318q0 -16 1 -37.5t6 -44.5t16.5 -45.5t31.5 -40.5t51.5 -29t76.5 -11q30 0 59 8t53.5 24t43 38.5t28.5 51.5h2v-110h38v514zM192 591h37
l134 140h-51z" />
    <glyph glyph-name="uhungarumlaut" unicode="&#xfb;" 
d="M463 514h-38v-278q0 -47 -12.5 -86.5t-36.5 -68t-58.5 -44.5t-77.5 -16q-53 0 -82 19t-43.5 45.5t-17.5 55t-3 48.5v325h-38v-318q0 -16 1 -37.5t6 -44.5t16.5 -45.5t31.5 -40.5t51.5 -29t76.5 -11q30 0 59 8t53.5 24t43 38.5t28.5 51.5h2v-110h38v514zM177 591l134 140
h-51l-120 -140h37zM335 591l134 140h-51l-120 -140h37z" />
    <glyph glyph-name="uhungarumlaut" unicode="&#x171;" 
d="M463 514h-38v-278q0 -47 -12.5 -86.5t-36.5 -68t-58.5 -44.5t-77.5 -16q-53 0 -82 19t-43.5 45.5t-17.5 55t-3 48.5v325h-38v-318q0 -16 1 -37.5t6 -44.5t16.5 -45.5t31.5 -40.5t51.5 -29t76.5 -11q30 0 59 8t53.5 24t43 38.5t28.5 51.5h2v-110h38v514zM177 591l134 140
h-51l-120 -140h37zM335 591l134 140h-51l-120 -140h37z" />
    <glyph glyph-name="udieresis" unicode="&#xfc;" 
d="M463 514h-38v-278q0 -47 -12.5 -86.5t-36.5 -68t-58.5 -44.5t-77.5 -16q-53 0 -82 19t-43.5 45.5t-17.5 55t-3 48.5v325h-38v-318q0 -16 1 -37.5t6 -44.5t16.5 -45.5t31.5 -40.5t51.5 -29t76.5 -11q30 0 59 8t53.5 24t43 38.5t28.5 51.5h2v-110h38v514zM202 611v103h-44
v-103h44zM360 611v103h-44v-103h44z" />
    <glyph glyph-name="yacute" unicode="&#xfd;" horiz-adv-x="444" 
d="M209 3q-18 -51 -30 -80.5t-23 -40.5q-20 -20 -43 -26.5t-64 -6.5v-33q44 0 72 3.5t48 19.5q17 13 31 40.5t29 65.5l220 569h-43l-176 -469l-191 469h-45zM170 591h37l134 140h-51z" />
    <glyph glyph-name="tcommaaccent" unicode="&#xfe;" horiz-adv-x="259" 
d="M245 514h-112v160h-38v-160h-95v-33h95v-359q-2 -44 10.5 -69t33.5 -37.5t48.5 -15t56.5 -0.5v33q-27 -1 -47.5 1.5t-35 11.5t-21.5 27t-7 49v359h112v33zM125 -40v-103h20q0 -10 -1 -24t-5 -27.5t-10.5 -24.5t-18.5 -16v-27q17 6 28.5 18.5t18 28.5t9.5 35t3 37v103h-44
z" />
    <glyph glyph-name="tcommaaccent" unicode="&#x163;" horiz-adv-x="259" 
d="M245 514h-112v160h-38v-160h-95v-33h95v-359q-2 -44 10.5 -69t33.5 -37.5t48.5 -15t56.5 -0.5v33q-27 -1 -47.5 1.5t-35 11.5t-21.5 27t-7 49v359h112v33zM125 -40v-103h20q0 -10 -1 -24t-5 -27.5t-10.5 -24.5t-18.5 -16v-27q17 6 28.5 18.5t18 28.5t9.5 35t3 37v103h-44
z" />
    <glyph glyph-name="dotaccent" unicode="&#xff;" horiz-adv-x="167" 
d="M105 611v103h-44v-103h44z" />
    <glyph glyph-name="dotaccent" unicode="&#x2d9;" horiz-adv-x="167" 
d="M105 611v103h-44v-103h44z" />
    <glyph glyph-name="Amacron" unicode="&#x100;" horiz-adv-x="593" 
d="M275 714l-287 -714h47l91 229h342l90 -229h47l-282 714h-48zM140 267l159 404h2l153 -404h-314zM418 820v33h-242v-33h242z" />
    <glyph glyph-name="amacron" unicode="&#x101;" horiz-adv-x="500" 
d="M372 647v33h-242v-33h242zM397 196q0 -10 -5.5 -38.5t-25.5 -59t-58 -54t-103 -23.5q-68 0 -101.5 32.5t-33.5 79.5q0 58 36.5 84.5t104.5 34.5q28 4 56 6t53.5 5t45.5 9.5t31 19.5v-96zM435 392q0 40 -15.5 66t-41 41t-57.5 21t-66 6q-91 0 -141.5 -42.5t-54.5 -127.5
h38q4 67 46.5 102t111.5 35q44 0 72 -10t43.5 -25t21.5 -33t6 -33q0 -32 -4 -50.5t-21 -30t-52.5 -17t-99.5 -9.5q-32 -3 -65.5 -10t-61 -23.5t-45 -45t-17.5 -73.5q0 -41 13 -68.5t36.5 -44.5t55 -24.5t67.5 -7.5q37 0 68 9t55.5 25t41.5 36.5t26 43.5h2v-27
q0 -16 2.5 -29.5t9.5 -23.5t20.5 -16t36.5 -6q8 0 15.5 1t15.5 3v32q-18 -3 -28 -3q-13 0 -20 5.5t-10 14.5t-3.5 20t-0.5 22v297z" />
    <glyph glyph-name="Emacron" unicode="&#x112;" horiz-adv-x="560" 
d="M107 38v314h410v38h-410v286h436v38h-480v-714h485v38h-441zM418 820v33h-242v-33h242z" />
    <glyph glyph-name="emacron" unicode="&#x113;" 
d="M486 252q3 55 -9.5 105t-40.5 87.5t-72 59.5t-104 22q-58 0 -101 -23.5t-71.5 -62.5t-42 -89t-12.5 -103q-1 -53 13.5 -100.5t43 -83t71.5 -56t99 -20.5q92 0 149.5 47.5t72.5 138.5h-38q-14 -72 -62.5 -112.5t-121.5 -40.5q-48 0 -83.5 19t-59.5 51t-35.5 74t-10.5 87
h415zM71 285q3 38 17 75.5t38 67t57.5 47.5t76.5 18q44 0 78.5 -17.5t58.5 -46t37 -66.5t14 -78h-377zM381 647v33h-242v-33h242z" />
    <glyph glyph-name="Edotaccent" unicode="&#x116;" horiz-adv-x="560" 
d="M107 38v314h410v38h-410v286h436v38h-480v-714h485v38h-441zM325 784v103h-44v-103h44z" />
    <glyph glyph-name="edotaccent" unicode="&#x117;" 
d="M486 252q3 55 -9.5 105t-40.5 87.5t-72 59.5t-104 22q-58 0 -101 -23.5t-71.5 -62.5t-42 -89t-12.5 -103q-1 -53 13.5 -100.5t43 -83t71.5 -56t99 -20.5q92 0 149.5 47.5t72.5 138.5h-38q-14 -72 -62.5 -112.5t-121.5 -40.5q-48 0 -83.5 19t-59.5 51t-35.5 74t-10.5 87
h415zM71 285q3 38 17 75.5t38 67t57.5 47.5t76.5 18q44 0 78.5 -17.5t58.5 -46t37 -66.5t14 -78h-377zM281 611v103h-44v-103h44z" />
    <glyph glyph-name="Gbreve" unicode="&#x11e;" horiz-adv-x="741" 
d="M382 350v-38h263q3 -66 -15 -119.5t-53.5 -91.5t-86.5 -59t-115 -21q-74 0 -129 26.5t-91.5 71.5t-55 105.5t-18.5 128.5q0 67 19 128.5t56 108.5t92 75t127 28q98 0 163.5 -53.5t90.5 -146.5h42q-9 56 -36 100t-66.5 75t-89.5 47t-105 16q-81 0 -143.5 -30.5
t-105.5 -82.5t-65.5 -120.5t-22.5 -144.5q0 -77 22 -144.5t65 -117.5t105.5 -79t143.5 -29q47 0 90.5 12t79 33.5t61.5 53t39 70.5h2v-152h38v350h-301zM473 894q-6 -38 -34 -63.5t-65 -23.5q-15 -2 -31 2t-30.5 14.5t-26.5 28t-18 42.5h-33q7 -57 45.5 -88.5t94.5 -31.5
q25 0 47.5 9.5t40 26t29 38.5t14.5 46h-33z" />
    <glyph glyph-name="gbreve" unicode="&#x11f;" horiz-adv-x="537" 
d="M255 493q47 0 82 -18t58.5 -48.5t35 -70.5t11.5 -83q0 -44 -11.5 -83.5t-35 -70.5t-58.5 -49t-82 -18q-45 0 -79.5 17.5t-58 47.5t-35 70.5t-11.5 85.5q0 41 11.5 80.5t34 70.5t57 50t81.5 19zM443 514v-107h-2q-11 29 -30 51t-43.5 37t-53.5 23t-59 8q-54 0 -95.5 -20.5
t-69.5 -55t-42.5 -80.5t-14.5 -97q0 -54 13.5 -100t41 -80.5t69 -54t98.5 -19.5q66 0 112.5 30t73.5 87h2v-118q0 -9 -1 -25.5t-6.5 -36.5t-16.5 -41t-31.5 -38.5t-51.5 -28.5t-76 -11q-32 0 -60 7t-50.5 22.5t-36.5 39.5t-17 58h-38q2 -45 18.5 -75.5t43 -49t62.5 -27
t77 -8.5q55 -2 93.5 11t63 34.5t38 48t19.5 52t7 46.5t1 31v487h-38zM371 721q-6 -38 -34 -63.5t-65 -23.5q-15 -2 -31 2t-30.5 14.5t-26.5 28t-18 42.5h-33q7 -57 45.5 -88.5t94.5 -31.5q25 0 47.5 9.5t40 26t29 38.5t14.5 46h-33z" />
    <glyph glyph-name="Gcommaaccent" unicode="&#x122;" horiz-adv-x="741" 
d="M382 350v-38h263q3 -66 -15 -119.5t-53.5 -91.5t-86.5 -59t-115 -21q-74 0 -129 26.5t-91.5 71.5t-55 105.5t-18.5 128.5q0 67 19 128.5t56 108.5t92 75t127 28q98 0 163.5 -53.5t90.5 -146.5h42q-9 56 -36 100t-66.5 75t-89.5 47t-105 16q-81 0 -143.5 -30.5
t-105.5 -82.5t-65.5 -120.5t-22.5 -144.5q0 -77 22 -144.5t65 -117.5t105.5 -79t143.5 -29q47 0 90.5 12t79 33.5t61.5 53t39 70.5h2v-152h38v350h-301zM349 -40v-93h20q0 -9 -1 -21.5t-5 -24.5t-10.5 -22t-18.5 -14v-25q34 11 46.5 43.5t12.5 74.5v82h-44z" />
    <glyph glyph-name="gcommaaccent" unicode="&#x123;" horiz-adv-x="537" 
d="M255 493q47 0 82 -18t58.5 -48.5t35 -70.5t11.5 -83q0 -44 -11.5 -83.5t-35 -70.5t-58.5 -49t-82 -18q-45 0 -79.5 17.5t-58 47.5t-35 70.5t-11.5 85.5q0 41 11.5 80.5t34 70.5t57 50t81.5 19zM443 514v-107h-2q-11 29 -30 51t-43.5 37t-53.5 23t-59 8q-54 0 -95.5 -20.5
t-69.5 -55t-42.5 -80.5t-14.5 -97q0 -54 13.5 -100t41 -80.5t69 -54t98.5 -19.5q66 0 112.5 30t73.5 87h2v-118q0 -9 -1 -25.5t-6.5 -36.5t-16.5 -41t-31.5 -38.5t-51.5 -28.5t-76 -11q-32 0 -60 7t-50.5 22.5t-36.5 39.5t-17 58h-38q2 -45 18.5 -75.5t43 -49t62.5 -27
t77 -8.5q55 -2 93.5 11t63 34.5t38 48t19.5 52t7 46.5t1 31v487h-38zM299 590v93h-20q0 9 1 21.5t5 24.5t10.5 22t18.5 14v25q-34 -11 -46.5 -43.5t-12.5 -74.5v-82h44z" />
    <glyph glyph-name="Imacron" unicode="&#x12a;" horiz-adv-x="170" 
d="M63 0h44v714h-44v-714zM207 820v33h-243v-33h243z" />
    <glyph glyph-name="imacron" unicode="&#x12b;" horiz-adv-x="168" 
d="M103 0v514h-38v-514h38zM168 647v33h-168v-33h168z" />
    <glyph glyph-name="Iogonek" unicode="&#x12e;" horiz-adv-x="170" 
d="M63 0h5l-55 -75l16 -13q11 5 24 8.5t29 3.5q7 0 15.5 -2.5t16 -8.5t12.5 -14.5t5 -20.5q0 -27 -20.5 -37t-42.5 -10q-26 0 -44.5 6t-35.5 12l-11 -24q13 -7 35.5 -14t54.5 -7q45 0 73.5 17t28.5 57q0 38 -23 55.5t-52 17.5q-12 0 -21 -3t-16 -6l-2 2l47 56h5v714h-44
v-714z" />
    <glyph glyph-name="iogonek" unicode="&#x12f;" horiz-adv-x="168" 
d="M103 611v103h-38v-103h38zM103 514h-38v-514h7q-35 -20 -56.5 -39.5t-33 -37.5t-15 -32.5t-3.5 -22.5q0 -27 10 -42.5t24.5 -23t29 -9t23.5 -1.5q34 0 57 19.5t34 45.5l-25 8q-13 -22 -27 -31t-35 -9q-16 0 -31.5 12t-15.5 31q0 16 3.5 30.5t13.5 29.5t27.5 32t44.5 40h6
v514z" />
    <glyph glyph-name="Idotaccent" unicode="&#x130;" horiz-adv-x="170" 
d="M63 0h44v714h-44v-714zM107 784v103h-44v-103h44z" />
    <glyph glyph-name="dotlessi" unicode="&#x131;" horiz-adv-x="168" 
d="M103 0v514h-38v-514h38z" />
    <glyph glyph-name="Kcommaaccent" unicode="&#x136;" horiz-adv-x="613" 
d="M63 0h44v252l148 135l323 -387h55l-346 417l326 297h-57l-449 -411v411h-44v-714zM293 -40v-93h20q0 -9 -1 -21.5t-5 -24.5t-10.5 -22t-18.5 -14v-25q34 11 46.5 43.5t12.5 74.5v82h-44z" />
    <glyph glyph-name="kcommaaccent" unicode="&#x137;" horiz-adv-x="463" 
d="M58 0h38v194l117 99l219 -293h52l-241 322l225 192h-55l-317 -273v473h-38v-714zM218 -40v-93h20q0 -9 -1 -21.5t-5 -24.5t-10.5 -22t-18.5 -14v-25q34 11 46.5 43.5t12.5 74.5v82h-44z" />
    <glyph glyph-name="Lcommaaccent" unicode="&#x13b;" horiz-adv-x="500" 
d="M63 0h449v38h-405v676h-44v-714zM236 -40v-93h20q0 -9 -1 -21.5t-5 -24.5t-10.5 -22t-18.5 -14v-25q34 11 46.5 43.5t12.5 74.5v82h-44z" />
    <glyph glyph-name="lcommaaccent" unicode="&#x13c;" horiz-adv-x="168" 
d="M65 714v-714h38v714h-38zM62 -40v-93h20q0 -9 -1 -21.5t-5 -24.5t-10.5 -22t-18.5 -14v-25q34 11 46.5 43.5t12.5 74.5v82h-44z" />
    <glyph glyph-name="Ncommaaccent" unicode="&#x145;" horiz-adv-x="678" 
d="M63 0h44v660h2l454 -660h52v714h-44v-655h-2l-451 655h-55v-714zM325 -40v-93h20q0 -9 -1 -21.5t-5 -24.5t-10.5 -22t-18.5 -14v-25q34 11 46.5 43.5t12.5 74.5v82h-44z" />
    <glyph glyph-name="ncommaaccent" unicode="&#x146;" 
d="M56 0h38v278q0 47 12.5 86.5t36.5 68t58.5 44.5t77.5 16q52 0 81.5 -19t44 -45.5t17.5 -55t3 -48.5v-325h38v318q0 16 -1 37.5t-6 44.5t-16.5 45.5t-31.5 40.5t-51.5 29t-76.5 11q-30 0 -59 -8t-53.5 -24t-43 -38.5t-28.5 -51.5h-2v110h-38v-514zM246 -40v-93h20
q0 -9 -1 -21.5t-5 -24.5t-10.5 -22t-18.5 -14v-25q34 11 46.5 43.5t12.5 74.5v82h-44z" />
    <glyph glyph-name="Omacron" unicode="&#x14c;" horiz-adv-x="741" 
d="M710 357q0 78 -23 146.5t-66.5 119t-106.5 79.5t-143 29t-143.5 -29t-107 -79.5t-66.5 -119t-23 -146.5t23 -146.5t66.5 -119t107 -79.5t143.5 -29t143 29t106.5 79.5t66.5 119t23 146.5zM75 357q0 69 20 130t58 106.5t93 72.5t125 27t124.5 -27t92.5 -72.5t58 -106.5
t20 -130t-20 -130t-58 -106.5t-92.5 -72.5t-124.5 -27t-125 27t-93 72.5t-58 106.5t-20 130zM492 820v33h-242v-33h242z" />
    <glyph glyph-name="omacron" unicode="&#x14d;" horiz-adv-x="537" 
d="M32 257q0 -55 15.5 -104t45.5 -85.5t74 -58t101 -21.5t101 21.5t74 58t45.5 85.5t15.5 104t-15.5 103.5t-45.5 85.5t-74 58.5t-101 21.5t-101 -21.5t-74 -58.5t-45.5 -85.5t-15.5 -103.5zM70 257q0 46 13 88.5t38 75.5t62 52.5t85 19.5t85 -19.5t62 -52.5t38 -75.5
t13 -88.5t-13 -88.5t-38 -75.5t-62 -52.5t-85 -19.5t-85 19.5t-62 52.5t-38 75.5t-13 88.5zM390 647v33h-242v-33h242z" />
    <glyph glyph-name="OE" unicode="&#x152;" horiz-adv-x="630" 
d="M573 510q-3 59 -25 101t-58.5 68.5t-85 39t-104.5 12.5q-42 0 -85 -10.5t-77.5 -33t-56 -59t-21.5 -87.5t21 -83.5t55 -53t78 -32.5t89 -21q46 -9 89.5 -19.5t78 -28t55.5 -46t21 -73.5q0 -47 -20.5 -78t-51 -50t-67 -27t-68.5 -8q-53 0 -101 11.5t-84 37.5t-55.5 66.5
t-16.5 99.5h-44q-1 -69 22.5 -117t64.5 -78.5t96 -44t118 -13.5q41 0 85.5 10.5t81 34.5t60.5 62t24 94q0 53 -21 87t-55.5 55.5t-78 34t-89.5 21.5q-45 9 -89 19t-78 26.5t-55 43.5t-21 70q0 44 19 73.5t48.5 47t64 24.5t64.5 7q49 0 90.5 -11.5t71.5 -34.5t47.5 -57
t19.5 -80h44zM258 764h37l134 140h-51z" />
    <glyph glyph-name="oe" unicode="&#x153;" horiz-adv-x="481" 
d="M36 171q1 -45 17 -79t44 -57.5t65.5 -35t81.5 -11.5q34 0 69.5 6.5t64.5 23t48 43.5t19 69q0 40 -14 66t-38.5 42.5t-58 26t-71.5 16.5q-31 7 -61.5 14t-55 18.5t-39.5 30.5t-15 50q0 27 13.5 46t34.5 31t47.5 17t52.5 5q32 0 60 -7.5t48 -23t32 -40.5t12 -60h38
q0 44 -14.5 75t-40 51t-60 29t-75.5 9q-33 0 -66 -6.5t-59.5 -21.5t-43.5 -40.5t-17 -63.5q0 -39 15 -64.5t40 -41t57 -24.5t65 -16t64.5 -14t56.5 -19t40 -32t15 -53t-16 -54.5t-40.5 -33.5t-53 -16.5t-53.5 -4.5q-35 0 -65 10t-52.5 29.5t-36.5 47t-16 63.5h-38zM187 591
h37l134 140h-51z" />
    <glyph glyph-name="Rcommaaccent" unicode="&#x156;" horiz-adv-x="630" 
d="M107 363v313h254q36 0 69 -8t58 -26t40 -46.5t15 -68.5q0 -43 -14 -74t-38 -51t-57.5 -29.5t-72.5 -9.5h-254zM63 0h44v325h254q47 0 78 -10t49.5 -27t28 -39.5t12.5 -48.5t2.5 -53.5t0 -54t3.5 -50.5t13 -42h49q-11 14 -15 35.5t-5 47t-1 53.5t-3 56t-10 53.5t-22.5 46
t-41 34.5t-65.5 19v2q72 12 112.5 61.5t40.5 121.5q0 52 -17.5 87t-48.5 56.5t-72 31t-88 9.5h-298v-714zM299 -40v-93h20q0 -9 -1 -21.5t-5 -24.5t-10.5 -22t-18.5 -14v-25q34 11 46.5 43.5t12.5 74.5v82h-44z" />
    <glyph glyph-name="rcommaaccent" unicode="&#x157;" horiz-adv-x="278" 
d="M94 514h-38v-514h38v281q1 29 5 50t11 38t17.5 31t24.5 29q35 34 73.5 44t68.5 6v38q-35 1 -67.5 -7.5t-58.5 -24.5t-45 -38t-26 -47h-3v114zM56 -40v-93h20q0 -9 -1 -21.5t-5 -24.5t-10.5 -22t-18.5 -14v-25q34 11 46.5 43.5t12.5 74.5v82h-44z" />
    <glyph glyph-name="Umacron" unicode="&#x16a;" horiz-adv-x="672" 
d="M63 714v-428q0 -24 2 -55.5t11 -65t26 -66.5t46.5 -58.5t74.5 -41.5t108 -16q80 0 133.5 23.5t85.5 64.5t45.5 96t13.5 119v428h-44v-428q0 -61 -12 -110t-39.5 -83.5t-72 -53t-110.5 -18.5q-52 0 -88.5 13.5t-61.5 36t-39.5 51t-22 58t-10 57.5t-2.5 49v428h-44z
M458 820v33h-242v-33h242z" />
    <glyph glyph-name="umacron" unicode="&#x16b;" 
d="M463 514h-38v-278q0 -47 -12.5 -86.5t-36.5 -68t-58.5 -44.5t-77.5 -16q-53 0 -82 19t-43.5 45.5t-17.5 55t-3 48.5v325h-38v-318q0 -16 1 -37.5t6 -44.5t16.5 -45.5t31.5 -40.5t51.5 -29t76.5 -11q30 0 59 8t53.5 24t43 38.5t28.5 51.5h2v-110h38v514zM381 647v33h-242
v-33h242z" />
    <glyph glyph-name="Uogonek" unicode="&#x172;" horiz-adv-x="672" 
d="M63 714v-428q0 -24 2 -55.5t11 -65t26 -66.5t46.5 -58.5t74.5 -41.5t108 -16q15 0 28.5 1t27.5 3q27 3 56 12q-34 -19 -55 -38.5t-32.5 -37t-15.5 -32t-4 -23.5q0 -27 10 -42.5t24.5 -23t29 -9t23.5 -1.5q34 0 57 19.5t34 45.5l-25 8q-13 -22 -27 -31t-35 -9
q-16 0 -31.5 12t-15.5 31q0 43 27.5 74.5t79.5 69.5q31 23 54 49.5t38 59.5t22.5 73.5t7.5 91.5v428h-44v-428q0 -61 -12 -110t-39.5 -83.5t-72 -53t-110.5 -18.5q-52 0 -88.5 13.5t-61.5 36t-39.5 51t-22 58t-10 57.5t-2.5 49v428h-44z" />
    <glyph glyph-name="uogonek" unicode="&#x173;" 
d="M463 514h-38v-278q0 -47 -12.5 -86.5t-36.5 -68t-58.5 -44.5t-77.5 -16q-53 0 -82 19t-43.5 45.5t-17.5 55t-3 48.5v325h-38v-318q0 -16 1 -37.5t6 -44.5t16.5 -45.5t31.5 -40.5t51.5 -29t76.5 -11q30 0 59 8t53.5 24t43 38.5t28.5 51.5h2v-110h5q-35 -20 -56.5 -39.5
t-33 -37.5t-15 -32.5t-3.5 -22.5q0 -27 10 -42.5t24.5 -23t29 -9t23.5 -1.5q34 0 57 19.5t34 45.5l-25 8q-13 -22 -27 -31t-35 -9q-16 0 -31.5 12t-15.5 31q0 16 3.5 30.5t13.5 29.5t27.5 32t44.5 40h8v514z" />
    <glyph glyph-name="Ydieresis" unicode="&#x178;" horiz-adv-x="426" 
d="M55 33l346 445v36h-365v-33h318l-345 -445v-36h408v33h-362zM164 591h37l134 140h-51z" />
    <glyph glyph-name="florin" unicode="&#x192;" horiz-adv-x="556" 
d="M5 -178q28 -6 53 -6q42 0 69.5 18.5t44 45.5t24.5 56.5t12 50.5l80 409h121l5 33h-120l32 164q11 55 39.5 77.5t65.5 22.5q22 0 54 -6l8 38q-17 4 -32 5t-29 1q-35 0 -60.5 -11t-43 -30t-28 -43t-15.5 -49l-33 -169h-111l-7 -33h112l-79 -404q-11 -61 -36.5 -99.5
t-68.5 -38.5q-13 0 -25 1.5t-25 3.5z" />
    <glyph glyph-name="circumflex" unicode="&#x2c6;" horiz-adv-x="167" 
d="M63 731l-115 -140h38l97 115l98 -115h38l-116 140h-40z" />
    <glyph glyph-name="macron" unicode="&#x2c9;" horiz-adv-x="167" 
d="M205 647v33h-242v-33h242z" />
    <glyph glyph-name="ring" unicode="&#x2da;" horiz-adv-x="167" 
d="M-16 640q0 -42 28.5 -70.5t70.5 -28.5t70.5 28.5t28.5 70.5t-28.5 70.5t-70.5 28.5t-70.5 -28.5t-28.5 -70.5zM11 640q0 30 21 51t51 21t51 -21t21 -51t-21 -51t-51 -21t-51 21t-21 51z" />
    <glyph glyph-name="tilde" unicode="&#x2dc;" horiz-adv-x="167" 
d="M-32 618q3 20 13.5 38.5t31.5 18.5q18 0 35.5 -8.5t34.5 -19.5q16 -10 33.5 -19.5t35.5 -9.5q20 0 33 8.5t22 20.5t14 28t7 33h-29q-2 -20 -13 -38.5t-32 -18.5q-16 0 -33 10t-35 20t-35.5 18.5t-34.5 8.5t-31 -7.5t-24 -20.5q-19 -27 -22 -62h29z" />
    <glyph glyph-name="Delta" unicode="&#x394;" horiz-adv-x="640" 
d="M336 714h-35l-287 -714h612zM316 668l256 -633h-507z" />
    <glyph glyph-name="partialdiff" unicode="&#x2202;" horiz-adv-x="463" 
d="M85 643q20 15 46.5 30t68.5 15q38 0 66 -14.5t47.5 -36t32 -46t18.5 -43.5q11 -33 16.5 -65t7.5 -60.5t1.5 -53.5t-1.5 -45q-39 54 -86.5 75.5t-89.5 21.5q-38 0 -71.5 -14t-59 -41t-40 -66.5t-14.5 -89.5q0 -46 14 -86.5t38.5 -70.5t58.5 -47.5t73 -17.5q9 0 26.5 2
t39 11.5t44.5 28.5t44 53q59 99 59 286q0 78 -13 137t-37 104q-5 9 -17 27t-33 37t-52 33t-73 14q-26 0 -47.5 -6t-38.5 -14.5t-29 -17t-19 -14.5zM384 284q-3 -52 -15.5 -100t-34.5 -85t-52.5 -59t-70.5 -22q-30 0 -56.5 14.5t-47 40t-32.5 60.5t-12 76q0 45 12.5 78.5
t33.5 56t48 34t56 11.5q54 0 97 -30.5t74 -74.5z" />
    <glyph glyph-name="summation" unicode="&#x2211;" horiz-adv-x="600" 
d="M546 786h-497v-33l324 -464l-338 -471v-32h523v35h-480l339 468l-322 462h451v35z" />
    <glyph glyph-name="minus" unicode="&#x2212;" horiz-adv-x="600" 
d="M552 233v38h-504v-38h504z" />
    <glyph glyph-name="fraction" unicode="&#x2215;" horiz-adv-x="167" 
d="M-169 -24h40l465 738h-40z" />
    <glyph glyph-name="radical" unicode="&#x221a;" horiz-adv-x="463" 
d="M467 782h-34l-202 -950l-173 360l-73 -36l13 -28l44 21l178 -366h32z" />
    <glyph glyph-name="notequal" unicode="&#x2260;" horiz-adv-x="600" 
d="M48 137h173l-69 -128l33 -18l78 146h289v38h-269l83 156h186v38h-166l66 123l-33 18l-75 -141h-296v-38h276l-83 -156h-193v-38z" />
    <glyph glyph-name="lessequal" unicode="&#x2264;" horiz-adv-x="600" 
d="M552 124l-471 173l471 175v42l-504 -191v-52l504 -183v36zM552 38h-504v-38h504v38z" />
    <glyph glyph-name="greaterequal" unicode="&#x2265;" horiz-adv-x="600" 
d="M48 88l504 183v52l-504 191v-42l471 -175l-471 -173v-36zM48 0h504v38h-504v-38z" />
    <glyph glyph-name="lozenge" unicode="&#x25ca;" horiz-adv-x="600" 
d="M315 747h-30l-169 -391l169 -391h30l169 391zM300 10l-147 346l147 346l147 -346z" />
    <glyph glyph-name=".361" unicode="&#xe000;" horiz-adv-x="1056" 
d="M573 127q0 -11 -9.5 -23t-22.5 -22.5t-27.5 -19.5t-24.5 -14q-29 -16 -61.5 -21.5t-64.5 -5.5q-74 0 -128 26.5t-89.5 72t-53 106t-17.5 128.5t19 129.5t56.5 108t93 74t128.5 27.5q79 0 144 -44q8 -5 18 -13t18.5 -17.5t14.5 -20t6 -20.5v-451zM617 676h422v38h-466v-66
q-38 41 -93.5 62t-111.5 21q-81 0 -144 -30.5t-106 -82t-65 -120t-22 -144.5q0 -78 21.5 -145.5t63.5 -118t103 -79t141 -28.5q79 0 132.5 25.5t78.5 57.5h2v-66h468v38h-424v314h378v38h-378v286z" />
    <glyph glyph-name=".362" unicode="&#xe001;" horiz-adv-x="889" 
d="M252 21q-48 0 -82.5 19t-56.5 50.5t-32.5 73t-10.5 86.5q0 42 9 85t30 78.5t56 57.5t88 22q49 0 82 -20.5t53.5 -54t29 -77.5t8.5 -91q0 -39 -7.5 -79.5t-27 -73.5t-53.5 -54.5t-86 -21.5zM857 252q3 53 -8 102.5t-37 87.5t-67.5 61t-99.5 23q-158 0 -199 -152h-2
q-16 72 -65.5 112t-124.5 40q-58 0 -100 -22.5t-69 -60.5t-40 -88t-13 -105q0 -51 11.5 -98t37.5 -83.5t67.5 -58.5t102.5 -22q78 0 125 38.5t67 112.5h2q14 -72 66.5 -111.5t133.5 -39.5q87 0 138.5 49.5t69.5 131.5h-38q-16 -66 -57.5 -107t-112.5 -41q-51 0 -86.5 19.5
t-57.5 51.5t-31 74t-6 86h393zM464 285q-1 40 10 77.5t33.5 66.5t57 46.5t80.5 17.5q43 0 76 -17.5t54.5 -46t32.5 -66.5t11 -78h-355z" />
    <glyph glyph-name=".363" unicode="&#xe002;" horiz-adv-x="574" 
d="M287 336l-258 378h-50l285 -415v-299h44v299l287 415h-49zM230 784v103h-44v-103h44zM388 784v103h-44v-103h44z" />
    <glyph glyph-name=".E003h" unicode="&#xe003;" horiz-adv-x="600" 
d="M514 108h38v261h-504v-38h466v-223z" />
    <glyph glyph-name="commaaccent" unicode="&#xf004;" horiz-adv-x="167" 
d="M69 -40v-93h20q0 -9 -1 -21.5t-5 -24.5t-10.5 -22t-18.5 -14v-25q34 11 46.5 43.5t12.5 74.5v82h-44z" />
    <glyph glyph-name="commaaccent" unicode="&#xf6c3;" horiz-adv-x="167" 
d="M69 -40v-93h20q0 -9 -1 -21.5t-5 -24.5t-10.5 -22t-18.5 -14v-25q34 11 46.5 43.5t12.5 74.5v82h-44z" />
    <glyph glyph-name="fi" unicode="&#xfb01;" horiz-adv-x="389" 
d="M0 481h92v-481h38v481h107v33h-107v103q0 43 21.5 57.5t53.5 14.5q20 0 45 -5v33q-25 5 -45 5q-23 0 -43.5 -6t-36 -18t-24.5 -31.5t-9 -46.5v-106h-92v-33zM286 611h38v103h-38v-103zM286 0h38v514h-38v-514z" />
    <glyph glyph-name="fl" unicode="&#xfb02;" horiz-adv-x="389" 
d="M0 481h92v-481h38v481h107v33h-107v103q0 43 21.5 57.5t53.5 14.5q20 0 45 -5v33q-25 5 -45 5q-23 0 -43.5 -6t-36 -18t-24.5 -31.5t-9 -46.5v-106h-92v-33zM286 0h38v714h-38v-714z" />
    <glyph glyph-name="logicalnot" horiz-adv-x="600" 
d="M514 108h38v261h-504v-38h466v-223z" />
    <glyph glyph-name="ordfeminine" horiz-adv-x="310" 
d="M250 498q0 -6 -3.5 -23.5t-16.5 -35.5t-38 -32t-67 -14q-38 0 -59 20t-21 49q0 32 23 47.5t65 20.5q16 2 34 3t34 3t29 6t20 12v-56zM61 596q3 38 29.5 58.5t67.5 20.5t67 -13.5t26 -39.5q0 -19 -2.5 -30.5t-14 -18t-34.5 -10t-64 -6.5q-21 -2 -43 -6t-39.5 -14.5
t-29 -28.5t-11.5 -46t8.5 -46.5t24 -29.5t36.5 -15.5t46 -4.5q50 0 82 20.5t41 47.5h2v-14q0 -19 8 -32t37 -13q5 0 10 0.5t10 1.5v27q-6 -2 -11 -2h-7q-14 0 -16 11.5t-2 25.5v178q0 25 -10 41.5t-27 26.5t-39 13.5t-45 3.5q-120 0 -132 -106h32z" />
    <glyph glyph-name="ugrave" 
d="M463 514h-38v-278q0 -47 -12.5 -86.5t-36.5 -68t-58.5 -44.5t-77.5 -16q-53 0 -82 19t-43.5 45.5t-17.5 55t-3 48.5v325h-38v-318q0 -16 1 -37.5t6 -44.5t16.5 -45.5t31.5 -40.5t51.5 -29t76.5 -11q30 0 59 8t53.5 24t43 38.5t28.5 51.5h2v-110h38v514zM317 591l-120 140
h-51l134 -140h37z" />
    <glyph glyph-name="atilde" horiz-adv-x="500" 
d="M397 196q0 -10 -5.5 -38.5t-25.5 -59t-58 -54t-103 -23.5q-68 0 -101.5 32.5t-33.5 79.5q0 58 36.5 84.5t104.5 34.5q28 4 56 6t53.5 5t45.5 9.5t31 19.5v-96zM435 392q0 40 -15.5 66t-41 41t-57.5 21t-66 6q-91 0 -141.5 -42.5t-54.5 -127.5h38q4 67 46.5 102t111.5 35
q44 0 72 -10t43.5 -25t21.5 -33t6 -33q0 -32 -4 -50.5t-21 -30t-52.5 -17t-99.5 -9.5q-32 -3 -65.5 -10t-61 -23.5t-45 -45t-17.5 -73.5q0 -41 13 -68.5t36.5 -44.5t55 -24.5t67.5 -7.5q37 0 68 9t55.5 25t41.5 36.5t26 43.5h2v-27q0 -16 2.5 -29.5t9.5 -23.5t20.5 -16
t36.5 -6q8 0 15.5 1t15.5 3v32q-18 -3 -28 -3q-13 0 -20 5.5t-10 14.5t-3.5 20t-0.5 22v297zM135 618q3 20 13.5 38.5t31.5 18.5q18 0 35.5 -8.5t34.5 -19.5q16 -10 33.5 -19.5t35.5 -9.5q20 0 33 8.5t22 20.5t14 28t7 33h-29q-2 -20 -13 -38.5t-32 -18.5q-16 0 -33 10
t-35 20t-35.5 18.5t-34.5 8.5t-31 -7.5t-24 -20.5q-19 -27 -22 -62h29z" />
    <glyph glyph-name="igrave" horiz-adv-x="168" 
d="M103 0v514h-38v-514h38zM111 591l-120 140h-51l134 -140h37z" />
    <glyph glyph-name="Idieresis" horiz-adv-x="170" 
d="M63 0h44v714h-44v-714zM28 784v103h-45v-103h45zM186 784v103h-44v-103h44z" />
    <glyph glyph-name="ydieresis" horiz-adv-x="444" 
d="M209 3q-18 -51 -30 -80.5t-23 -40.5q-20 -20 -43 -26.5t-64 -6.5v-33q44 0 72 3.5t48 19.5q17 13 30.5 40.5t29.5 65.5l220 569h-43l-176 -469l-191 469h-45zM165 611v103h-44v-103h44zM323 611v103h-44v-103h44z" />
    <glyph glyph-name="sterling" horiz-adv-x="556" 
d="M50 330h78q13 -20 21 -48t8 -58q0 -33 -10 -62t-25.5 -54.5t-36 -48t-41.5 -42.5l25 -34q31 19 56.5 31.5t63.5 12.5q25 0 48.5 -7t47.5 -15q25 -8 51 -15t57 -7q44 0 83 21t68 52l-22 33q-28 -26 -59.5 -47t-75.5 -21q-24 0 -46 6.5t-45 14.5q-23 9 -48 16t-56 7
q-26 0 -49 -10.5t-45 -25.5l-2 2q19 16 37 37.5t31.5 46t22 51.5t8.5 56q0 38 -6.5 65.5t-16.5 42.5h141v33h-160q-9 19 -20.5 39.5t-21.5 42t-16.5 45.5t-6.5 51q0 71 51 111.5t139 40.5q103 0 149 -53.5t47 -155.5h38q3 124 -57.5 185.5t-177.5 61.5q-45 0 -86 -12.5
t-72.5 -36.5t-50 -60t-18.5 -83q0 -48 18.5 -91.5t41.5 -84.5h-60v-33z" />
    <glyph glyph-name="ae" horiz-adv-x="889" 
d="M444 285q3 42 15.5 79.5t35.5 66t57 45.5t81 17q43 0 78 -17t59 -45.5t36.5 -66t11.5 -79.5h-374zM406 201q-1 -38 -16.5 -71t-42 -57t-60.5 -38t-71 -14q-27 0 -53 6t-47 19.5t-33.5 34t-12.5 50.5q0 33 11.5 55.5t31.5 36.5t46.5 21t55.5 9q32 3 63.5 4.5t57 5t44 9.5
t24.5 17h2v-88zM856 252q5 55 -7 104.5t-40.5 87t-72.5 60t-103 22.5q-70 0 -120.5 -32t-74.5 -99h-2q-3 39 -18.5 64t-40 40t-55.5 21t-66 6q-86 0 -141 -42t-61 -131h38q5 74 50 107t114 33q76 0 113 -29t37 -91q3 -37 -13.5 -54t-44 -24t-62 -7.5t-67.5 -4.5
q-30 -1 -62.5 -7.5t-60.5 -23t-46 -46t-18 -75.5q0 -38 15 -65t40.5 -44.5t59 -25.5t69.5 -8q74 0 129 40t80 109h2q18 -74 73.5 -111.5t132.5 -37.5q88 0 145.5 48.5t71.5 134.5h-38q-11 -73 -58.5 -111.5t-120.5 -38.5q-49 0 -86 18.5t-60.5 50t-34 73.5t-7.5 89h411z" />
    <glyph glyph-name="Aring" horiz-adv-x="593" 
d="M275 714l-287 -714h47l91 229h342l90 -229h47l-282 714h-48zM140 267l159 404h2l153 -404h-314zM197 836q0 -42 28.5 -70.5t70.5 -28.5t70.5 28.5t28.5 70.5t-28.5 70.5t-70.5 28.5t-70.5 -28.5t-28.5 -70.5zM224 836q0 30 21 51t51 21t51 -21t21 -51t-21 -51t-51 -21
t-51 21t-21 51z" />
    <glyph glyph-name="ecircumflex" 
d="M486 252q3 55 -9.5 105t-40.5 87.5t-72 59.5t-104 22q-58 0 -101 -23.5t-71.5 -62.5t-42 -89t-12.5 -103q-1 -53 13.5 -100.5t43 -83t71.5 -56t99 -20.5q92 0 149.5 47.5t72.5 138.5h-38q-14 -72 -62.5 -112.5t-121.5 -40.5q-48 0 -83.5 19t-59.5 51t-35.5 74t-10.5 87
h415zM71 285q3 38 17 75.5t38 67t57.5 47.5t76.5 18q44 0 78.5 -17.5t58.5 -46t37 -66.5t14 -78h-377zM239 731l-115 -140h38l97 115l98 -115h38l-116 140h-40z" />
    <glyph glyph-name="ucircumflex" 
d="M463 514h-38v-278q0 -47 -12.5 -86.5t-36.5 -68t-58.5 -44.5t-77.5 -16q-53 0 -82 19t-43.5 45.5t-17.5 55t-3 48.5v325h-38v-318q0 -16 1 -37.5t6 -44.5t16.5 -45.5t31.5 -40.5t51.5 -29t76.5 -11q30 0 59 8t53.5 24t43 38.5t28.5 51.5h2v-110h38v514zM239 731
l-115 -140h38l97 115l98 -115h38l-116 140h-40z" />
    <glyph glyph-name="Ecircumflex" horiz-adv-x="560" 
d="M107 38v314h410v38h-410v286h436v38h-480v-714h485v38h-441zM260 904l-115 -140h38l97 115l98 -115h38l-116 140h-40z" />
    <glyph glyph-name="aring" horiz-adv-x="500" 
d="M397 196q0 -10 -5.5 -38.5t-25.5 -59t-58 -54t-103 -23.5q-68 0 -101.5 32.5t-33.5 79.5q0 58 36.5 84.5t104.5 34.5q28 4 56 6t53.5 5t45.5 9.5t31 19.5v-96zM435 392q0 40 -15.5 66t-41 41t-57.5 21t-66 6q-91 0 -141.5 -42.5t-54.5 -127.5h38q4 67 46.5 102t111.5 35
q44 0 72 -10t43.5 -25t21.5 -33t6 -33q0 -32 -4 -50.5t-21 -30t-52.5 -17t-99.5 -9.5q-32 -3 -65.5 -10t-61 -23.5t-45 -45t-17.5 -73.5q0 -41 13 -68.5t36.5 -44.5t55 -24.5t67.5 -7.5q37 0 68 9t55.5 25t41.5 36.5t26 43.5h2v-27q0 -16 2.5 -29.5t9.5 -23.5t20.5 -16
t36.5 -6q8 0 15.5 1t15.5 3v32q-18 -3 -28 -3q-13 0 -20 5.5t-10 14.5t-3.5 20t-0.5 22v297zM151 640q0 -42 28.5 -70.5t70.5 -28.5t70.5 28.5t28.5 70.5t-28.5 70.5t-70.5 28.5t-70.5 -28.5t-28.5 -70.5zM178 640q0 30 21 51t51 21t51 -21t21 -51t-21 -51t-51 -21t-51 21
t-21 51z" />
    <glyph glyph-name="agrave" horiz-adv-x="500" 
d="M397 196q0 -10 -5.5 -38.5t-25.5 -59t-58 -54t-103 -23.5q-68 0 -101.5 32.5t-33.5 79.5q0 58 36.5 84.5t104.5 34.5q28 4 56 6t53.5 5t45.5 9.5t31 19.5v-96zM435 392q0 40 -15.5 66t-41 41t-57.5 21t-66 6q-91 0 -141.5 -42.5t-54.5 -127.5h38q4 67 46.5 102t111.5 35
q44 0 72 -10t43.5 -25t21.5 -33t6 -33q0 -32 -4 -50.5t-21 -30t-52.5 -17t-99.5 -9.5q-32 -3 -65.5 -10t-61 -23.5t-45 -45t-17.5 -73.5q0 -41 13 -68.5t36.5 -44.5t55 -24.5t67.5 -7.5q37 0 68 9t55.5 25t41.5 36.5t26 43.5h2v-27q0 -16 2.5 -29.5t9.5 -23.5t20.5 -16
t36.5 -6q8 0 15.5 1t15.5 3v32q-18 -3 -28 -3q-13 0 -20 5.5t-10 14.5t-3.5 20t-0.5 22v297zM308 591l-120 140h-51l134 -140h37z" />
    <glyph glyph-name="Ugrave" horiz-adv-x="672" 
d="M63 714v-428q0 -24 2 -55.5t11 -65t26 -66.5t46.5 -58.5t74.5 -41.5t108 -16q80 0 133.5 23.5t85.5 64.5t45.5 96t13.5 119v428h-44v-428q0 -61 -12 -110t-39.5 -83.5t-72 -53t-110.5 -18.5q-52 0 -88.5 13.5t-61.5 36t-39.5 51t-22 58t-10 57.5t-2.5 49v428h-44z
M394 764l-120 140h-51l134 -140h37z" />
    <glyph glyph-name="questiondown" 
d="M437 42q0 -43 -11.5 -79.5t-34 -63.5t-56.5 -42t-79 -15q-31 0 -60 8t-51.5 25.5t-36 44t-13.5 63.5q0 26 8.5 49t22.5 43t32 38.5t36 35.5t34 36.5t28 43.5t19 54.5t7 70.5h-38q0 -44 -9 -75.5t-23 -54.5t-31.5 -39.5t-34.5 -31.5q-17 -17 -33 -33.5t-28.5 -36t-20 -44
t-7.5 -56.5q0 -45 15.5 -79t42.5 -56t62.5 -33t75.5 -11q54 0 95.5 17t69.5 48.5t42.5 75.5t14.5 97h-38zM287 535h-51v-103h51v103z" />
    <glyph glyph-name="cent" horiz-adv-x="556" 
d="M272 21q-46 3 -80.5 22t-57 51t-34 75t-11.5 93q0 42 12 82.5t35 72t57 52.5t79 24v-472zM272 -118h32v106q39 3 73 17t60 38.5t43.5 59t23.5 78.5h-38q-5 -33 -18.5 -61t-34.5 -49t-48.5 -34t-60.5 -16v472q65 -5 108.5 -39.5t48.5 -98.5h38q-4 41 -20 72.5t-42 52.5
t-60 32.5t-73 13.5v89h-32v-89q-53 -3 -94.5 -25t-69.5 -58t-42.5 -82.5t-14.5 -98.5t12.5 -100.5t39.5 -86t68.5 -61t100.5 -26.5v-106z" />
    <glyph glyph-name="oslash" horiz-adv-x="537" 
d="M109 112q-20 30 -29.5 67.5t-9.5 77.5q0 46 13 88.5t38 75.5t62 52.5t85 19.5q46 0 81.5 -18t58.5 -47zM428 400q20 -31 29 -67.5t9 -75.5q0 -46 -13 -88.5t-38 -75.5t-62 -52.5t-85 -19.5q-45 0 -79.5 17t-59.5 46zM513 490l-24 23l-55 -58q-29 33 -70.5 52t-95.5 19
q-57 0 -101 -21.5t-74 -58.5t-45.5 -85.5t-15.5 -103.5q0 -50 12.5 -94t37.5 -79l-57 -61l24 -23l54 57q29 -32 70.5 -50.5t94.5 -18.5q57 0 101 21.5t74 58t45.5 85.5t15.5 104q0 49 -12.5 92.5t-36.5 78.5z" />
    <glyph glyph-name="Ograve" horiz-adv-x="741" 
d="M710 357q0 78 -23 146.5t-66.5 119t-106.5 79.5t-143 29t-143.5 -29t-107 -79.5t-66.5 -119t-23 -146.5t23 -146.5t66.5 -119t107 -79.5t143.5 -29t143 29t106.5 79.5t66.5 119t23 146.5zM75 357q0 69 20 130t58 106.5t93 72.5t125 27t124.5 -27t92.5 -72.5t58 -106.5
t20 -130t-20 -130t-58 -106.5t-92.5 -72.5t-124.5 -27t-125 27t-93 72.5t-58 106.5t-20 130zM428 764l-120 140h-51l134 -140h37z" />
    <glyph glyph-name="Otilde" horiz-adv-x="741" 
d="M710 357q0 78 -23 146.5t-66.5 119t-106.5 79.5t-143 29t-143.5 -29t-107 -79.5t-66.5 -119t-23 -146.5t23 -146.5t66.5 -119t107 -79.5t143.5 -29t143 29t106.5 79.5t66.5 119t23 146.5zM75 357q0 69 20 130t58 106.5t93 72.5t125 27t124.5 -27t92.5 -72.5t58 -106.5
t20 -130t-20 -130t-58 -106.5t-92.5 -72.5t-124.5 -27t-125 27t-93 72.5t-58 106.5t-20 130zM255 789q3 20 13.5 38.5t31.5 18.5q18 0 35.5 -8.5t34.5 -19.5q16 -10 33.5 -19.5t35.5 -9.5q20 0 33 8.5t22 20.5t14 28t7 33h-29q-2 -20 -13 -38.5t-32 -18.5q-16 0 -33 10
t-35 20t-35.5 18.5t-34.5 8.5t-31 -7.5t-24 -20.5q-19 -27 -22 -62h29z" />
    <glyph glyph-name="ntilde" 
d="M56 0h38v278q0 47 12.5 86.5t36.5 68t58.5 44.5t77.5 16q52 0 81.5 -19t44 -45.5t17.5 -55t3 -48.5v-325h38v318q0 16 -1 37.5t-6 44.5t-16.5 45.5t-31.5 40.5t-51.5 29t-76.5 11q-30 0 -59 -8t-53.5 -24t-43 -38.5t-28.5 -51.5h-2v110h-38v-514zM144 618q3 20 13.5 38.5
t31.5 18.5q18 0 35.5 -8.5t34.5 -19.5q16 -10 33.5 -19.5t35.5 -9.5q20 0 33 8.5t22 20.5t14 28t7 33h-29q-2 -20 -13 -38.5t-32 -18.5q-16 0 -33 10t-35 20t-35.5 18.5t-34.5 8.5t-31 -7.5t-24 -20.5q-19 -27 -22 -62h29z" />
    <glyph glyph-name="AE" horiz-adv-x="870" 
d="M-9 0h40l132 254h268v-254h424v38h-380v314h350v38h-350v286h379v38h-490zM431 292h-248l201 384h47v-384z" />
    <glyph glyph-name="Ucircumflex" horiz-adv-x="672" 
d="M63 714v-428q0 -24 2 -55.5t11 -65t26 -66.5t46.5 -58.5t74.5 -41.5t108 -16q80 0 133.5 23.5t85.5 64.5t45.5 96t13.5 119v428h-44v-428q0 -61 -12 -110t-39.5 -83.5t-72 -53t-110.5 -18.5q-52 0 -88.5 13.5t-61.5 36t-39.5 51t-22 58t-10 57.5t-2.5 49v428h-44z
M316 904l-115 -140h38l97 115l98 -115h38l-116 140h-40z" />
    <glyph glyph-name="ordmasculine" horiz-adv-x="334" 
d="M167 366q38 0 67.5 12.5t49.5 35t30.5 53.5t10.5 67t-10.5 66.5t-30.5 53t-49.5 35.5t-67.5 13t-67.5 -13t-49.5 -35.5t-30.5 -53t-10.5 -66.5t10.5 -67t30.5 -53.5t49.5 -35t67.5 -12.5zM167 393q-33 0 -56.5 11.5t-39 31t-23 45t-7.5 53.5t7.5 53.5t23 45t39 31
t56.5 11.5t56.5 -11.5t39 -31t23 -45t7.5 -53.5t-7.5 -53.5t-23 -45t-39 -31t-56.5 -11.5z" />
    <glyph glyph-name="Egrave" horiz-adv-x="560" 
d="M107 38v314h410v38h-410v286h436v38h-480v-714h485v38h-441zM338 764l-120 140h-51l134 -140h37z" />
    <glyph glyph-name="ograve" horiz-adv-x="537" 
d="M32 257q0 -55 15.5 -104t45.5 -85.5t74 -58t101 -21.5t101 21.5t74 58t45.5 85.5t15.5 104t-15.5 103.5t-45.5 85.5t-74 58.5t-101 21.5t-101 -21.5t-74 -58.5t-45.5 -85.5t-15.5 -103.5zM70 257q0 46 13 88.5t38 75.5t62 52.5t85 19.5t85 -19.5t62 -52.5t38 -75.5
t13 -88.5t-13 -88.5t-38 -75.5t-62 -52.5t-85 -19.5t-85 19.5t-62 52.5t-38 75.5t-13 88.5zM326 591l-120 140h-51l134 -140h37z" />
    <glyph glyph-name="egrave" 
d="M486 252q3 55 -9.5 105t-40.5 87.5t-72 59.5t-104 22q-58 0 -101 -23.5t-71.5 -62.5t-42 -89t-12.5 -103q-1 -53 13.5 -100.5t43 -83t71.5 -56t99 -20.5q92 0 149.5 47.5t72.5 138.5h-38q-14 -72 -62.5 -112.5t-121.5 -40.5q-48 0 -83.5 19t-59.5 51t-35.5 74t-10.5 87
h415zM71 285q3 38 17 75.5t38 67t57.5 47.5t76.5 18q44 0 78.5 -17.5t58.5 -46t37 -66.5t14 -78h-377zM317 591l-120 140h-51l134 -140h37z" />
    <glyph glyph-name="Igrave" horiz-adv-x="170" 
d="M63 0h44v714h-44v-714zM107 764l-120 140h-51l134 -140h37z" />
    <glyph glyph-name="Ntilde" horiz-adv-x="678" 
d="M63 0h44v660h2l454 -660h52v714h-44v-655h-2l-451 655h-55v-714zM224 764q3 20 13.5 38.5t31.5 18.5q18 0 35.5 -8.5t34.5 -19.5q16 -10 33.5 -19.5t35.5 -9.5q20 0 33 8.5t22 20.5t14 28t7 33h-29q-2 -20 -13 -38.5t-32 -18.5q-16 0 -33 10t-35 20t-35.5 18.5t-34.5 8.5
t-31 -7.5t-24 -20.5q-19 -27 -22 -62h29z" />
    <glyph glyph-name="Oslash" horiz-adv-x="741" 
d="M598 582q33 -45 50.5 -102.5t17.5 -122.5q0 -69 -20 -130t-58 -106.5t-92.5 -72.5t-124.5 -27q-65 0 -116.5 23t-89.5 64zM143 134q-34 45 -51 102t-17 121q0 69 20 130t58 106.5t93 72.5t125 27q64 0 115 -22.5t89 -61.5zM34 16l26 -24l76 84q43 -45 102 -69t133 -24
q80 0 143 29t106.5 79.5t66.5 119t23 146.5q0 76 -21 141.5t-62 115.5l70 76l-26 24l-68 -74q-43 43 -101.5 67t-130.5 24q-80 0 -143.5 -29t-107 -79.5t-66.5 -119t-23 -146.5q0 -75 21 -140t61 -115z" />
    <glyph glyph-name="idieresis" horiz-adv-x="168" 
d="M103 0v514h-38v-514h38zM27 611v103h-45v-103h45zM185 611v103h-44v-103h44z" />
    <glyph glyph-name="yen" horiz-adv-x="556" 
d="M-7 714l238 -372h-92v-33h120v-78h-120v-33h120v-198h38v198h120v33h-120v78h120v33h-92l238 372h-45l-239 -374l-238 374h-48z" />
    <glyph glyph-name="Atilde" horiz-adv-x="593" 
d="M275 714l-287 -714h47l91 229h342l90 -229h47l-282 714h-48zM140 267l159 404h2l153 -404h-314zM181 764q3 20 13.5 38.5t31.5 18.5q18 0 35.5 -8.5t34.5 -19.5q16 -10 33.5 -19.5t35.5 -9.5q20 0 33 8.5t22 20.5t14 28t7 33h-29q-2 -20 -13 -38.5t-32 -18.5
q-16 0 -33 10t-35 20t-35.5 18.5t-34.5 8.5t-31 -7.5t-24 -20.5q-19 -27 -22 -62h29z" />
    <glyph glyph-name="exclamdown" horiz-adv-x="259" 
d="M153 -184v241l-12 290h-24l-12 -290v-241h48zM104 535v-103h51v103h-51z" />
    <glyph glyph-name="Agrave" horiz-adv-x="593" 
d="M275 714l-287 -714h47l91 229h342l90 -229h47l-282 714h-48zM140 267l159 404h2l153 -404h-314zM323 764l-120 140h-51l134 -140h37z" />
    <glyph glyph-name="otilde" horiz-adv-x="537" 
d="M32 257q0 -55 15.5 -104t45.5 -85.5t74 -58t101 -21.5t101 21.5t74 58t45.5 85.5t15.5 104t-15.5 103.5t-45.5 85.5t-74 58.5t-101 21.5t-101 -21.5t-74 -58.5t-45.5 -85.5t-15.5 -103.5zM70 257q0 46 13 88.5t38 75.5t62 52.5t85 19.5t85 -19.5t62 -52.5t38 -75.5
t13 -88.5t-13 -88.5t-38 -75.5t-62 -52.5t-85 -19.5t-85 19.5t-62 52.5t-38 75.5t-13 88.5zM153 618q3 20 13.5 38.5t31.5 18.5q18 0 35.5 -8.5t34.5 -19.5q16 -10 33.5 -19.5t35.5 -9.5q20 0 33 8.5t22 20.5t14 28t7 33h-29q-2 -20 -13 -38.5t-32 -18.5q-16 0 -33 10
t-35 20t-35.5 18.5t-34.5 8.5t-31 -7.5t-24 -20.5q-19 -27 -22 -62h29z" />
    <glyph glyph-name="Scommaaccent" horiz-adv-x="630" 
d="M573 510q-3 59 -25 101t-58.5 68.5t-85 39t-104.5 12.5q-42 0 -85 -10.5t-77.5 -33t-56 -59t-21.5 -87.5t21 -83.5t55 -53t78 -32.5t89 -21q46 -9 89.5 -19.5t78 -28t55.5 -46t21 -73.5q0 -47 -20.5 -78t-51 -50t-67 -27t-68.5 -8q-53 0 -101 11.5t-84 37.5t-55.5 66.5
t-16.5 99.5h-44q-1 -69 22.5 -117t64.5 -78.5t96 -44t118 -13.5q41 0 85.5 10.5t81 34.5t60.5 62t24 94q0 53 -21 87t-55.5 55.5t-78 34t-89.5 21.5q-45 9 -89 19t-78 26.5t-55 43.5t-21 70q0 44 19 73.5t48.5 47t64 24.5t64.5 7q49 0 90.5 -11.5t71.5 -34.5t47.5 -57
t19.5 -80h44zM305 -40v-93h20q0 -9 -1 -21.5t-5 -24.5t-10.5 -22t-18.5 -14v-25q34 11 46.5 43.5t12.5 74.5v82h-44z" />
    <glyph glyph-name="scommaaccent" horiz-adv-x="481" 
d="M36 171q1 -45 17 -79t44 -57.5t65.5 -35t81.5 -11.5q34 0 69.5 6.5t64.5 23t48 43.5t19 69q0 40 -14 66t-38.5 42.5t-58 26t-71.5 16.5q-31 7 -61.5 14t-55 18.5t-39.5 30.5t-15 50q0 27 13.5 46t34.5 31t47.5 17t52.5 5q32 0 60 -7.5t48 -23t32 -40.5t12 -60h38
q0 44 -14.5 75t-40 51t-60 29t-75.5 9q-33 0 -66 -6.5t-59.5 -21.5t-43.5 -40.5t-17 -63.5q0 -39 15 -64.5t40 -41t57 -24.5t65 -16t64.5 -14t56.5 -19t40 -32t15 -53t-16 -54.5t-40.5 -33.5t-53 -16.5t-53.5 -4.5q-35 0 -65 10t-52.5 29.5t-36.5 47t-16 63.5h-38zM225 -40
v-93h20q0 -9 -1 -21.5t-5 -24.5t-10.5 -22t-18.5 -14v-25q34 11 46.5 43.5t12.5 74.5v82h-44z" />
    <glyph glyph-name="onehalf" horiz-adv-x="834" 
d="M121 -24h40l465 738h-40zM213 693h-29q-20 -29 -51.5 -48.5t-68.5 -24.5v-27q71 6 117 53v-371h32v418zM517 27q7 23 20 40t31 31.5t40 28t46 28.5t46.5 31.5t40.5 35.5t28.5 40.5t10.5 46.5q0 30 -11 52.5t-30.5 37t-45.5 21.5t-56 7q-39 0 -66 -11t-44 -31t-25.5 -47.5
t-10.5 -61.5h32q3 57 28.5 90.5t85.5 33.5q29 0 50 -8t34.5 -20.5t20 -29t6.5 -32.5q0 -24 -11 -44t-29.5 -37t-42 -32t-47.5 -30t-48 -31.5t-43 -36.5t-31 -44t-13 -55h300v27h-266z" />
    <glyph glyph-name="Thorn" horiz-adv-x="593" 
d="M63 0h44v198h244q107 0 165.5 51t58.5 146q0 64 -21 103t-52.5 60.5t-68 28.5t-66.5 7h-260v120h-44v-714zM107 556h257q54 0 86.5 -17.5t50.5 -42.5t24 -52.5t6 -47.5q0 -28 -9 -56.5t-29 -51.5t-53.5 -37.5t-81.5 -14.5h-251v320z" />
    <glyph glyph-name="Eth" horiz-adv-x="667" 
d="M63 396h-68v-33h68v-363h232q86 0 148.5 27.5t103.5 75.5t60.5 113.5t19.5 141.5q0 68 -15.5 132t-53.5 114t-101.5 80t-159.5 30h-234v-318zM107 396v280h183q26 0 58.5 -3.5t65 -14.5t63 -31.5t54 -56t38 -87.5t14.5 -125q0 -93 -25.5 -154.5t-66.5 -98t-91.5 -52
t-100.5 -15.5h-192v325h264v33h-264z" />
    <glyph glyph-name="threequarters" horiz-adv-x="834" 
d="M656 414l-200 -283v-27h215v-104h32v104h71v27h-71v283h-47zM198 -24h40l465 738h-40zM671 131h-179l177 250h2v-250zM33 415q-3 -74 40.5 -111.5t125.5 -37.5q31 0 59 7.5t49 23t33 39t12 55.5q0 42 -26 71t-72 34v2q40 5 64 31.5t24 63.5q0 30 -12 50.5t-32.5 33.5
t-46 19t-52.5 6q-75 0 -114.5 -38.5t-40.5 -104.5h32q2 51 31 83.5t87 32.5q19 0 40 -5t37.5 -15t27.5 -25.5t11 -36.5q0 -26 -12.5 -43t-33 -27t-45.5 -13t-49 -2v-27q28 2 55 -1.5t48 -14t34 -28.5t13 -46q0 -23 -10.5 -41.5t-28.5 -31t-40.5 -19t-46.5 -6.5
q-61 0 -96 32.5t-33 89.5h-32z" />
    <glyph glyph-name="eth" horiz-adv-x="537" 
d="M269 473q49 0 86 -18.5t61.5 -50t37 -72t12.5 -83.5q0 -45 -11.5 -86.5t-35.5 -73t-61.5 -50t-88.5 -18.5t-88 19t-62 50.5t-37 73t-12 85.5q0 43 13 83.5t38 72t62 50t86 18.5zM146 582l21 -22l112 62q51 -40 92 -88.5t63 -99.5l-2 -2q-36 44 -77 59t-86 15
q-57 0 -101 -20.5t-74.5 -56t-46 -82t-15.5 -98.5q0 -55 14.5 -102.5t43.5 -83t74 -55.5t105 -20q59 0 103 20.5t73.5 56t44 83t14.5 101.5q0 125 -48 220.5t-143 171.5l109 61l-20 22l-115 -64q-48 39 -108 71l-28 -24q25 -12 51.5 -29t51.5 -36z" />
    <glyph glyph-name="onesuperior" horiz-adv-x="333" 
d="M208 693h-29q-20 -29 -51.5 -48.5t-68.5 -24.5v-27q71 6 117 53v-371h32v418z" />
    <glyph glyph-name="threesuperior" horiz-adv-x="333" 
d="M18 415q-3 -74 40.5 -111.5t125.5 -37.5q31 0 59 7.5t49 23t33 39t12 55.5q0 42 -26 71t-72 34v2q40 5 64 31.5t24 63.5q0 30 -12 50.5t-32.5 33.5t-46 19t-52.5 6q-75 0 -114.5 -38.5t-40.5 -104.5h32q2 51 31 83.5t87 32.5q19 0 40 -5t37.5 -15t27.5 -25.5t11 -36.5
q0 -26 -12.5 -43t-33 -27t-45.5 -13t-49 -2v-27q28 2 55 -1.5t48 -14t34 -28.5t13 -46q0 -23 -10.5 -41.5t-28.5 -31t-40.5 -19t-46.5 -6.5q-61 0 -96 32.5t-33 89.5h-32z" />
    <glyph glyph-name="thorn" horiz-adv-x="556" 
d="M292 21q-54 0 -90.5 19.5t-58 52t-30.5 75t-9 88.5t10 88.5t32.5 75.5t58.5 53t87 20q52 0 88.5 -20.5t59.5 -54t34 -76t11 -86.5q0 -48 -11.5 -90.5t-35 -74.5t-60 -51t-86.5 -19zM65 -184h38v291h2q23 -63 73 -91t114 -28q59 0 102.5 20t72 55.5t42.5 84.5t14 108
q0 54 -14 103t-42.5 86t-72 59t-102.5 22q-42 0 -74.5 -13t-55.5 -32.5t-37 -42.5t-20 -42h-2v318h-38v-898z" />
    <glyph glyph-name="twosuperior" horiz-adv-x="333" 
d="M48 302q7 23 21 40t32 31.5t40 28t46 28.5t46.5 31.5t40.5 35.5t28.5 40.5t10.5 46.5q0 30 -11 52.5t-30.5 37t-45.5 21.5t-56 7q-39 0 -66 -11t-44 -31t-25.5 -47.5t-10.5 -61.5h32q3 57 28.5 90.5t85.5 33.5q29 0 50 -8t34.5 -20.5t20 -29t6.5 -32.5q0 -24 -11 -44
t-29.5 -37t-42 -32t-47.5 -30t-48 -31.5t-43 -36.5t-31 -44t-13 -55h300v27h-268z" />
    <glyph glyph-name="onequarter" horiz-adv-x="834" 
d="M626 414l-200 -283v-27h215v-104h32v104h71v27h-71v283h-47zM641 131h-179l177 250h2v-250zM151 -24h40l465 738h-40zM243 693h-29q-20 -29 -51.5 -48.5t-68.5 -24.5v-27q71 6 117 53v-371h32v418z" />
    </font>
</defs>
</svg>
